<svg xmlns="http://www.w3.org/2000/svg" width="30" height="30" viewBox="0 0 30 30" fill="none">
    <g clip-path="url(#clip0_6_2444)">
        <path
            d="M15.0005 19.375C13.8402 19.375 12.7274 18.9141 11.9069 18.0936C11.0865 17.2731 10.6255 16.1603 10.6255 15C10.6255 13.8397 11.0865 12.7269 11.9069 11.9064C12.7274 11.0859 13.8402 10.625 15.0005 10.625C16.1609 10.625 17.2737 11.0859 18.0941 11.9064C18.9146 12.7269 19.3755 13.8397 19.3755 15C19.3755 16.1603 18.9146 17.2731 18.0941 18.0936C17.2737 18.9141 16.1609 19.375 15.0005 19.375ZM24.288 16.2125C24.338 15.8125 24.3755 15.4125 24.3755 15C24.3755 14.5875 24.338 14.175 24.288 13.75L26.9255 11.7125C27.163 11.525 27.2255 11.1875 27.0755 10.9125L24.5755 6.5875C24.4255 6.3125 24.088 6.2 23.813 6.3125L20.7005 7.5625C20.0505 7.075 19.3755 6.65 18.588 6.3375L18.1255 3.025C18.1001 2.87777 18.0235 2.74429 17.9091 2.64819C17.7947 2.5521 17.6499 2.4996 17.5005 2.5H12.5005C12.188 2.5 11.9255 2.725 11.8755 3.025L11.413 6.3375C10.6255 6.65 9.95053 7.075 9.30053 7.5625L6.18803 6.3125C5.91303 6.2 5.57553 6.3125 5.42553 6.5875L2.92553 10.9125C2.76303 11.1875 2.83803 11.525 3.07553 11.7125L5.71303 13.75C5.66303 14.175 5.62553 14.5875 5.62553 15C5.62553 15.4125 5.66303 15.8125 5.71303 16.2125L3.07553 18.2875C2.83803 18.475 2.76303 18.8125 2.92553 19.0875L5.42553 23.4125C5.57553 23.6875 5.91303 23.7875 6.18803 23.6875L9.30053 22.425C9.95053 22.925 10.6255 23.35 11.413 23.6625L11.8755 26.975C11.9255 27.275 12.188 27.5 12.5005 27.5H17.5005C17.813 27.5 18.0755 27.275 18.1255 26.975L18.588 23.6625C19.3755 23.3375 20.0505 22.925 20.7005 22.425L23.813 23.6875C24.088 23.7875 24.4255 23.6875 24.5755 23.4125L27.0755 19.0875C27.2255 18.8125 27.163 18.475 26.9255 18.2875L24.288 16.2125Z"
            fill="#FF603B" />
    </g>
    <defs>
        <clipPath id="clip0_6_2444">
            <rect width="30" height="30" fill="white" />
        </clipPath>
    </defs>
</svg>