<svg xmlns="http://www.w3.org/2000/svg" width="20" height="20" viewBox="0 0 20 20" fill="none">
    <g clip-path="url(#clip0_6_2299)">
        <path fill-rule="evenodd" clip-rule="evenodd"
            d="M7.49955 5.625C7.33379 5.625 7.17482 5.55915 7.05761 5.44194C6.94039 5.32473 6.87455 5.16576 6.87455 5C6.87455 4.83424 6.94039 4.67527 7.05761 4.55806C7.17482 4.44085 7.33379 4.375 7.49955 4.375H14.9995C15.1653 4.375 15.3243 4.44085 15.4415 4.55806C15.5587 4.67527 15.6245 4.83424 15.6245 5V12.5C15.6245 12.6658 15.5587 12.8247 15.4415 12.9419C15.3243 13.0592 15.1653 13.125 14.9995 13.125C14.8338 13.125 14.6748 13.0592 14.5576 12.9419C14.4404 12.8247 14.3745 12.6658 14.3745 12.5V6.50833L5.44121 15.4417C5.32273 15.5521 5.16603 15.6122 5.00411 15.6093C4.84219 15.6065 4.68771 15.5409 4.57319 15.4264C4.45868 15.3118 4.39309 15.1574 4.39023 14.9954C4.38738 14.8335 4.44748 14.6768 4.55788 14.5583L13.4912 5.625H7.49955Z"
            fill="#FF603B" />
    </g>
    <defs>
        <clipPath id="clip0_6_2299">
            <rect width="20" height="20" fill="white" />
        </clipPath>
    </defs>
</svg>