<svg xmlns="http://www.w3.org/2000/svg" width="23" height="22" viewBox="0 0 23 22" fill="none">
    <path fill-rule="evenodd" clip-rule="evenodd"
        d="M11.0893 13.0938L19.5939 21.544C19.8775 21.8161 20.2572 21.9666 20.6514 21.9632C21.0456 21.9598 21.4226 21.8027 21.7014 21.5258C21.9801 21.2488 22.1382 20.8742 22.1416 20.4825C22.1451 20.0909 21.9935 19.7135 21.7197 19.4318L13.2151 10.9816L21.7197 2.53148C21.9935 2.24976 22.1451 1.87243 22.1416 1.48077C22.1382 1.08912 21.9801 0.714465 21.7014 0.437511C21.4226 0.160557 21.0456 0.00345986 20.6514 5.64678e-05C20.2572 -0.00334693 19.8775 0.147215 19.5939 0.419314L11.0893 8.86948L2.58473 0.419314C2.29992 0.153941 1.92237 0.00907799 1.53197 0.0153768C1.14157 0.0216757 0.768947 0.178643 0.492953 0.453064C0.21696 0.727485 0.0592447 1.09783 0.0531815 1.48574C0.0471183 1.87364 0.193182 2.24868 0.460465 2.53148L8.96356 10.9816L0.458962 19.4318C0.315375 19.5696 0.200845 19.7344 0.122054 19.9167C0.0432639 20.0989 0.00179138 20.2949 5.6763e-05 20.4933C-0.00167786 20.6916 0.0363598 20.8883 0.111951 21.0719C0.187542 21.2555 0.299172 21.4222 0.440328 21.5625C0.581484 21.7027 0.749339 21.8137 0.934098 21.8888C1.11886 21.9639 1.31682 22.0017 1.51644 21.9999C1.71605 21.9982 1.91333 21.957 2.09675 21.8787C2.28016 21.8004 2.44605 21.6866 2.58473 21.544L11.0893 13.0938Z"
        fill="black" />
</svg>