<svg width="32" height="32" viewBox="0 0 32 32" fill="none" xmlns="http://www.w3.org/2000/svg">
<path d="M19.0562 31.3402C19.0562 31.7046 18.7608 32 18.3964 32H17.5621C16.7819 32 16.133 31.3997 16.0725 30.6219L15.8605 27.8982C15.8377 27.6066 15.5944 27.3814 15.3019 27.3814V27.3814C14.9924 27.3814 14.7416 27.1306 14.7416 26.8212V26.7216C14.7416 26.3573 14.4462 26.0619 14.0818 26.0619H13.6036C13.2392 26.0619 12.9438 26.3573 12.9438 26.7216V26.7216C12.9438 27.086 12.6484 27.3814 12.284 27.3814H11.9708C11.5153 27.3814 11.1461 27.7507 11.1461 28.2062V28.2062C11.1461 28.6617 10.7768 29.0309 10.3213 29.0309H10.1731C9.71757 29.0309 9.34832 29.4002 9.34832 29.8557V29.8557C9.34832 30.3112 9.71757 30.6804 10.1731 30.6804H10.4863C10.8507 30.6804 11.1461 30.9758 11.1461 31.3402V31.3402C11.1461 31.7046 10.8507 32 10.4863 32H9.52809C8.63451 32 7.91011 31.2756 7.91011 30.382V26.9607C7.91011 26.4643 7.50767 26.0619 7.01124 26.0619H6.77215C6.40776 26.0619 6.11236 25.7665 6.11236 25.4021V25.4021C6.11236 25.0377 5.81696 24.7423 5.45257 24.7423H5.39326C4.99611 24.7423 4.67416 24.4203 4.67416 24.0232V23.9175C4.67416 23.462 4.30491 23.0928 3.84942 23.0928H3.70115C3.24565 23.0928 2.8764 22.7235 2.8764 22.268V22.1624C2.8764 21.7653 2.55445 21.4433 2.1573 21.4433V21.4433C1.76015 21.4433 1.4382 21.1213 1.4382 20.7242V20.5129C1.4382 20.1158 1.11625 19.7938 0.719101 19.7938V19.7938C0.321953 19.7938 0 19.4719 0 19.0747V12.2655C0 11.8683 0.321953 11.5464 0.719101 11.5464V11.5464C1.11625 11.5464 1.4382 11.8683 1.4382 12.2655V13.4665C1.4382 13.8636 1.76015 14.1856 2.1573 14.1856V14.1856C2.55445 14.1856 2.8764 14.5075 2.8764 14.9047V15.0103C2.8764 15.4658 3.24565 15.8351 3.70115 15.8351H4.01436C4.37876 15.8351 4.67416 16.1305 4.67416 16.4948V16.4948C4.67416 16.8592 4.96956 17.1546 5.33395 17.1546H7.25032C7.61471 17.1546 7.91011 16.8592 7.91011 16.4948V16.4948C7.91011 16.1305 8.20551 15.8351 8.56991 15.8351H8.88312C9.33862 15.8351 9.70787 15.4658 9.70787 15.0103V15.0103C9.70787 14.5548 10.0771 14.1856 10.5326 14.1856H11.2054C11.5698 14.1856 11.8652 13.8902 11.8652 13.5258V13.5258C11.8652 13.1614 12.1606 12.866 12.525 12.866H13.5573C14.0128 12.866 14.382 12.4967 14.382 12.0412V12.003C14.382 11.5686 14.7342 11.2165 15.1685 11.2165V11.2165C15.6029 11.2165 15.9551 10.8644 15.9551 10.43V2.48095C15.9551 2.02174 16.3307 1.64948 16.7899 1.64948V1.64948C17.2454 1.64948 17.618 1.28023 17.618 0.824742V0.824742C17.618 0.36925 17.9872 0 18.4427 0H29.7371C30.1926 0 30.5618 0.36925 30.5618 0.824743V0.930384C30.5618 1.32753 30.8838 1.64948 31.2809 1.64948V1.64948C31.678 1.64948 32 1.97144 32 2.36859V6.91743C32 8.13023 31.0168 9.1134 29.804 9.1134H22.8488C22.5414 9.1134 22.2921 9.36264 22.2921 9.6701V9.6701C22.2921 9.97756 22.5414 10.2268 22.8488 10.2268H26.1119C26.3852 10.2268 26.6067 10.4484 26.6067 10.7216V10.7216C26.6067 10.9949 26.3852 11.2165 26.1119 11.2165H23.7767C22.9568 11.2165 22.2921 11.8811 22.2921 12.701V12.701C22.2921 13.5209 22.9568 14.1856 23.7767 14.1856H24.0436C24.8634 14.1856 25.5281 14.8502 25.5281 15.6701V16.4355C25.5281 16.8327 25.2061 17.1546 24.809 17.1546H24.7497C24.3853 17.1546 24.0899 16.8592 24.0899 16.4948V16.4948C24.0899 16.1305 23.7945 15.8351 23.4301 15.8351H23.191C22.6946 15.8351 22.2921 16.2375 22.2921 16.7339V20.0644C22.2921 20.4616 21.9702 20.7835 21.573 20.7835V20.7835C21.1759 20.7835 20.8539 21.1055 20.8539 21.5026V22.1939C20.8539 22.6903 20.4515 23.0928 19.9551 23.0928H19.8809C19.4254 23.0928 19.0562 23.462 19.0562 23.9175V24.0232C19.0562 24.4203 18.7342 24.7423 18.3371 24.7423V24.7423C17.9399 24.7423 17.618 25.0642 17.618 25.4614V29.9613C17.618 30.3585 17.9399 30.6804 18.3371 30.6804H18.3964C18.7608 30.6804 19.0562 30.9758 19.0562 31.3402V31.3402Z" fill="#FF603B"/>
</svg>
