<svg xmlns="http://www.w3.org/2000/svg" width="32" height="32" viewBox="0 0 294 294" fill="none">
<path d="M86.7799 40.721L86.7799 36.7688C86.7799 35.5145 85.763 34.4976 84.5087 34.4976L26.9571 34.4976C25.7027 34.4976 24.6859 35.5145 24.6859 36.7688L24.6859 40.721C24.6859 41.9753 23.669 42.9922 22.4146 42.9922L16.6081 42.9922C15.3537 42.9922 14.3368 41.9753 14.3368 40.721L14.3368 28.4091C14.3368 27.1548 15.3537 26.1379 16.6081 26.1379L22.4146 26.1379C23.669 26.1379 24.6859 25.121 24.6859 23.8667L24.6859 19.9146C24.6859 18.6602 25.7027 17.6433 26.9571 17.6433L32.2708 17.6433C33.5252 17.6433 34.542 16.6265 34.542 15.3721L34.542 10.8807C34.542 9.62631 35.5589 8.60946 36.8133 8.60946L84.5087 8.60946C85.763 8.60946 86.7799 7.59261 86.7799 6.33825L86.7799 2.38611C86.7799 1.13176 87.7967 0.114904 89.0511 0.114904L95.1862 0.114904C96.4406 0.114904 97.4574 1.13176 97.4574 2.38611L97.4574 6.33825C97.4574 7.5926 98.4743 8.60946 99.7286 8.60946L105.207 8.60946C106.461 8.60946 107.478 9.62632 107.478 10.8807L107.478 15.3721C107.478 16.6265 108.495 17.6434 109.749 17.6434L116.541 17.6434C117.796 17.6434 118.813 18.6602 118.813 19.9146L118.813 23.8667C118.813 25.1211 117.796 26.1379 116.541 26.1379L109.749 26.1379C108.495 26.1379 107.478 27.1548 107.478 28.4091L107.478 32.2264C107.478 33.4808 106.461 34.4976 105.207 34.4976L99.7286 34.4976C98.4743 34.4976 97.4574 35.5145 97.4574 36.7688L97.4574 40.721C97.4574 41.9753 96.4406 42.9922 95.1862 42.9922L89.0511 42.9922C87.7967 42.9922 86.7799 41.9753 86.7799 40.721Z" fill="#FF603B"/>
<path d="M46.3686 63.9841L46.3686 67.9362C46.3686 69.1906 47.3854 70.2074 48.6398 70.2074L106.191 70.2075C107.446 70.2075 108.463 69.1906 108.463 67.9362L108.463 63.9841C108.463 62.7298 109.479 61.7129 110.734 61.7129L116.54 61.7129C117.795 61.7129 118.812 62.7298 118.812 63.9841L118.812 76.296C118.812 77.5503 117.795 78.5672 116.54 78.5672L110.734 78.5672C109.479 78.5672 108.463 79.584 108.463 80.8384L108.463 84.7905C108.463 86.0449 107.446 87.0617 106.191 87.0617L100.878 87.0617C99.6232 87.0617 98.6064 88.0786 98.6064 89.3329L98.6064 93.8244C98.6064 95.0788 97.5895 96.0956 96.3352 96.0956L48.6398 96.0956C47.3854 96.0956 46.3686 97.1125 46.3686 98.3668L46.3686 102.319C46.3686 103.573 45.3517 104.59 44.0974 104.59L37.9622 104.59C36.7079 104.59 35.691 103.573 35.691 102.319L35.691 98.3668C35.691 97.1125 34.6742 96.0956 33.4198 96.0956L27.9418 96.0956C26.6874 96.0956 25.6706 95.0788 25.6706 93.8244L25.6706 89.3329C25.6706 88.0786 24.6537 87.0617 23.3993 87.0617L16.6071 87.0617C15.3528 87.0617 14.3359 86.0449 14.3359 84.7905L14.3359 80.8384C14.3359 79.584 15.3528 78.5672 16.6071 78.5672L23.3993 78.5672C24.6537 78.5672 25.6706 77.5503 25.6706 76.296L25.6706 72.4787C25.6706 71.2243 26.6874 70.2074 27.9418 70.2074L33.4198 70.2074C34.6742 70.2074 35.691 69.1906 35.691 67.9362L35.691 63.9841C35.691 62.7297 36.7079 61.7129 37.9622 61.7129L44.0974 61.7129C45.3517 61.7129 46.3686 62.7297 46.3686 63.9841Z" fill="#FF603B"/>
<path d="M175.011 291.804C175.011 293.017 174.028 294 172.815 294H150.626C149.479 294 148.525 293.118 148.436 291.974L145.45 253.609C145.361 252.466 144.407 251.583 143.26 251.583H137.582C136.369 251.583 135.386 250.6 135.386 249.387V241.66C135.386 240.447 134.402 239.464 133.19 239.464H121.071C119.858 239.464 118.875 240.447 118.875 241.66V249.387C118.875 250.6 117.892 251.583 116.679 251.583H104.561C103.348 251.583 102.365 252.566 102.365 253.779V264.536C102.365 265.749 101.382 266.732 100.169 266.732H88.0503C86.8375 266.732 85.8543 267.715 85.8543 268.928V279.685C85.8543 280.898 86.8375 281.881 88.0503 281.881H100.169C101.382 281.881 102.365 282.864 102.365 284.077V291.804C102.365 293.017 101.382 294 100.169 294H74.8419C73.6291 294 72.6459 293.017 72.6459 291.804V241.66C72.6459 240.447 71.6628 239.464 70.45 239.464H58.3315C57.1187 239.464 56.1355 238.481 56.1355 237.268V229.541C56.1355 228.328 55.1523 227.345 53.9395 227.345H45.1231C43.9103 227.345 42.9272 226.362 42.9272 225.149V214.392C42.9272 213.18 41.944 212.196 40.7312 212.196H28.6127C27.3999 212.196 26.4167 211.213 26.4167 210V199.244C26.4167 198.031 25.4335 197.048 24.2207 197.048H15.4043C14.1915 197.048 13.2084 196.064 13.2084 194.852V184.095C13.2084 182.882 12.2252 181.899 11.0124 181.899H2.19597C0.983169 181.899 0 180.916 0 179.703V108.351C0 107.138 0.983171 106.155 2.19597 106.155H11.0124C12.2252 106.155 13.2084 107.138 13.2084 108.351V128.197C13.2084 129.41 14.1915 130.393 15.4043 130.393H24.2207C25.4335 130.393 26.4167 131.376 26.4167 132.589V143.346C26.4167 144.559 27.3999 145.542 28.6127 145.542H40.7312C41.944 145.542 42.9272 146.525 42.9272 147.738V155.465C42.9272 156.678 43.9103 157.661 45.1231 157.661H70.45C71.6628 157.661 72.6459 156.678 72.6459 155.465V147.738C72.6459 146.525 73.6291 145.542 74.8419 145.542H86.9604C88.1732 145.542 89.1564 144.559 89.1564 143.346V132.589C89.1564 131.376 90.1396 130.393 91.3524 130.393H106.773C107.986 130.393 108.969 129.41 108.969 128.197V120.47C108.969 119.257 109.952 118.274 111.165 118.274H129.888C131.1 118.274 132.084 117.291 132.084 116.078V105.321C132.084 104.108 133.067 103.125 134.28 103.125H144.334C145.547 103.125 146.53 102.142 146.53 100.929V17.458C146.53 16.2452 147.513 15.2621 148.726 15.2621H159.606C160.819 15.2621 161.802 14.2789 161.802 13.0661V2.30925C161.802 1.09645 162.786 0.113281 163.998 0.113281H278.482C279.694 0.113281 280.678 1.09645 280.678 2.30925V13.0661C280.678 14.2789 281.661 15.2621 282.873 15.2621H291.69C292.903 15.2621 293.886 16.2452 293.886 17.458V81.6144C293.886 82.8272 292.903 83.8104 291.69 83.8104H206.925C205.713 83.8104 204.729 84.7935 204.729 86.0064V91.8398C204.729 93.0527 205.713 94.0358 206.925 94.0358H242.159C243.371 94.0358 244.355 95.019 244.355 96.2318V100.929C244.355 102.142 243.371 103.125 242.159 103.125H206.925C205.713 103.125 204.729 104.108 204.729 105.321V128.197C204.729 129.41 205.713 130.393 206.925 130.393H232.252C233.465 130.393 234.448 131.376 234.448 132.589V155.465C234.448 156.678 233.465 157.661 232.252 157.661H223.436C222.223 157.661 221.24 156.678 221.24 155.465V147.738C221.24 146.525 220.257 145.542 219.044 145.542H206.925C205.713 145.542 204.729 146.525 204.729 147.738V188.792C204.729 190.005 203.746 190.988 202.534 190.988H193.717C192.504 190.988 191.521 191.971 191.521 193.184V210C191.521 211.213 190.538 212.196 189.325 212.196H177.207C175.994 212.196 175.011 213.18 175.011 214.392V225.149C175.011 226.362 174.028 227.345 172.815 227.345H163.998C162.786 227.345 161.802 228.328 161.802 229.541V279.685C161.802 280.898 162.786 281.881 163.998 281.881H172.815C174.028 281.881 175.011 282.864 175.011 284.077V291.804Z" fill="#FF603B"/>
</svg>