<svg xmlns="http://www.w3.org/2000/svg" width="32" height="32" viewBox="0 0 32 32" fill="none">
    <path
        d="M10.1488 4.6687L9.91109 4.6687C9.65568 4.6687 9.44862 4.46165 9.44862 4.20623C9.44862 3.95082 9.24157 3.74376 8.98616 3.74376L3.14994 3.74376C2.89452 3.74376 2.68747 3.95082 2.68747 4.20623C2.68747 4.46165 2.48041 4.6687 2.225 4.6687L2.12404 4.6687C1.81286 4.6687 1.56061 4.41644 1.56061 4.10527L1.56061 3.39694C1.56061 3.08576 1.81286 2.83351 2.12404 2.83351L2.225 2.83351C2.48041 2.83351 2.68747 2.62645 2.68747 2.37104C2.68747 2.11563 2.89452 1.90857 3.14994 1.90857L3.26884 1.90857C3.54047 1.90857 3.76067 1.68837 3.76067 1.41674C3.76067 1.14511 3.98087 0.92491 4.2525 0.92491L8.98616 0.92491C9.24157 0.92491 9.44863 0.717856 9.44863 0.462442C9.44863 0.207028 9.65568 -2.6036e-05 9.91109 -2.60137e-05L10.1488 -2.59929e-05C10.4042 -2.59706e-05 10.6113 0.207028 10.6113 0.462442C10.6113 0.717856 10.8183 0.924911 11.0737 0.924911L11.2105 0.924911C11.4821 0.924911 11.7023 1.14511 11.7023 1.41674C11.7023 1.68837 11.9225 1.90857 12.1942 1.90857L12.4741 1.90857C12.7295 1.90857 12.9365 2.11563 12.9365 2.37104C12.9365 2.62646 12.7295 2.83351 12.4741 2.83351L12.1575 2.83351C11.9061 2.83351 11.7023 3.03728 11.7023 3.28864C11.7023 3.54 11.4986 3.74376 11.2472 3.74376L11.0737 3.74376C10.8183 3.74376 10.6113 3.95082 10.6113 4.20623C10.6113 4.46165 10.4042 4.6687 10.1488 4.6687Z"
        fill="#FF603B" />
    <path
        d="M4.34926 6.70715L4.58695 6.70715C4.84237 6.70715 5.04942 6.91421 5.04942 7.16962C5.04942 7.42504 5.25648 7.63209 5.51189 7.63209L11.3481 7.63209C11.6035 7.63209 11.8106 7.42504 11.8106 7.16962C11.8106 6.91421 12.0176 6.70715 12.273 6.70715L12.374 6.70715C12.6852 6.70715 12.9374 6.95941 12.9374 7.27058L12.9374 7.97892C12.9374 8.29009 12.6852 8.54235 12.374 8.54235L12.273 8.54235C12.0176 8.54235 11.8106 8.7494 11.8106 9.00481C11.8106 9.26023 11.6035 9.46728 11.3481 9.46728L11.2292 9.46728C10.9576 9.46728 10.7374 9.68748 10.7374 9.95911C10.7374 10.2307 10.5172 10.4509 10.2455 10.4509L5.51189 10.4509C5.25648 10.4509 5.04942 10.658 5.04942 10.9134C5.04942 11.1688 4.84237 11.3759 4.58695 11.3759L4.34926 11.3759C4.09384 11.3759 3.88679 11.1688 3.88679 10.9134C3.88679 10.658 3.67973 10.4509 3.42432 10.4509L3.28753 10.4509C3.0159 10.4509 2.7957 10.2307 2.7957 9.95911C2.7957 9.68748 2.5755 9.46728 2.30387 9.46728L2.02399 9.46728C1.76858 9.46728 1.56152 9.26023 1.56152 9.00481C1.56152 8.7494 1.76858 8.54234 2.02399 8.54234L2.34058 8.54234C2.59194 8.54234 2.7957 8.33858 2.7957 8.08722C2.7957 7.83586 2.99947 7.63209 3.25083 7.63209L3.42432 7.63209C3.67974 7.63209 3.88679 7.42504 3.88679 7.16962C3.88679 6.91421 4.09384 6.70715 4.34926 6.70715Z"
        fill="#FF603B" />
    <path
        d="M19.0562 31.3402C19.0562 31.7046 18.7608 32 18.3964 32H17.5621C16.7819 32 16.133 31.3997 16.0725 30.6219L15.8605 27.8983C15.8377 27.6066 15.5944 27.3815 15.3019 27.3815C14.9924 27.3815 14.7416 27.1306 14.7416 26.8212V26.7217C14.7416 26.3573 14.4462 26.0619 14.0818 26.0619H13.6036C13.2392 26.0619 12.9438 26.3573 12.9438 26.7217C12.9438 27.0861 12.6484 27.3815 12.284 27.3815H11.9708C11.5153 27.3815 11.1461 27.7507 11.1461 28.2062C11.1461 28.6617 10.7768 29.0309 10.3213 29.0309H10.1731C9.71756 29.0309 9.34831 29.4002 9.34831 29.8557C9.34831 30.3112 9.71757 30.6804 10.1731 30.6804H10.4863C10.8507 30.6804 11.1461 30.9758 11.1461 31.3402C11.1461 31.7046 10.8507 32 10.4863 32H9.52809C8.63451 32 7.91011 31.2756 7.91011 30.382V26.9607C7.91011 26.4643 7.50767 26.0619 7.01124 26.0619H6.77216C6.40776 26.0619 6.11236 25.7665 6.11236 25.4021C6.11236 25.0377 5.81696 24.7423 5.45256 24.7423H5.39326C4.99611 24.7423 4.67416 24.4203 4.67416 24.0232V23.9175C4.67416 23.462 4.30491 23.0928 3.84941 23.0928H3.70115C3.24566 23.0928 2.8764 22.7235 2.8764 22.268V22.1624C2.8764 21.7652 2.55445 21.4433 2.1573 21.4433C1.76015 21.4433 1.4382 21.1213 1.4382 20.7242V20.5129C1.4382 20.1158 1.11625 19.7938 0.719101 19.7938C0.321953 19.7938 0 19.4719 0 19.0747V12.2655C0 11.8683 0.321953 11.5464 0.719101 11.5464C1.11625 11.5464 1.4382 11.8683 1.4382 12.2655V13.4664C1.4382 13.8636 1.76015 14.1855 2.1573 14.1855C2.55445 14.1855 2.8764 14.5075 2.8764 14.9046V15.0103C2.8764 15.4658 3.24566 15.835 3.70115 15.835H4.01436C4.37876 15.835 4.67416 16.1304 4.67416 16.4948C4.67416 16.8592 4.96956 17.1546 5.33395 17.1546H7.25032C7.61471 17.1546 7.91011 16.8592 7.91011 16.4948C7.91011 16.1304 8.20551 15.835 8.56991 15.835H8.88312C9.33861 15.835 9.70787 15.4658 9.70787 15.0103C9.70787 14.5548 10.0771 14.1855 10.5326 14.1855H11.2054C11.5698 14.1855 11.8652 13.8901 11.8652 13.5257C11.8652 13.1614 12.1606 12.866 12.525 12.866H13.5573C14.0128 12.866 14.382 12.4967 14.382 12.0412V12.003C14.382 11.5686 14.7342 11.2165 15.1685 11.2165C15.6029 11.2165 15.9551 10.8643 15.9551 10.4299V2.48089C15.9551 2.02169 16.3307 1.64943 16.7899 1.64943C17.2454 1.64943 17.618 1.28018 17.618 0.824683C17.618 0.369189 17.9872 -6.10352e-05 18.4427 -6.10352e-05H29.7371C30.1925 -6.10352e-05 30.5618 0.369189 30.5618 0.824683V0.930327C30.5618 1.32748 30.8838 1.64943 31.2809 1.64943C31.678 1.64943 32 1.97138 32 2.36853V7.17962C32 8.2476 31.1342 9.11336 30.0663 9.11336H22.8488C22.5414 9.11336 22.2921 9.36261 22.2921 9.67007C22.2921 9.97752 22.5414 10.2268 22.8488 10.2268H26.1119C26.3852 10.2268 26.6067 10.4483 26.6067 10.7216C26.6067 10.9949 26.3852 11.2165 26.1119 11.2165H23.7767C22.9568 11.2165 22.2921 11.8811 22.2921 12.701C22.2921 13.5209 22.9568 14.1855 23.7767 14.1855H24.0436C24.8634 14.1855 25.5281 14.8502 25.5281 15.6701V16.4355C25.5281 16.8327 25.2061 17.1546 24.809 17.1546H24.7497C24.3853 17.1546 24.0899 16.8592 24.0899 16.4948C24.0899 16.1304 23.7945 15.835 23.4301 15.835H23.191C22.6946 15.835 22.2921 16.2375 22.2921 16.7339V20.0644C22.2921 20.4615 21.9702 20.7835 21.573 20.7835C21.1759 20.7835 20.8539 21.1054 20.8539 21.5026V22.1939C20.8539 22.6903 20.4515 23.0928 19.9551 23.0928H19.8809C19.4254 23.0928 19.0562 23.462 19.0562 23.9175V24.0232C19.0562 24.4203 18.7342 24.7423 18.3371 24.7423C17.9399 24.7423 17.618 25.0642 17.618 25.4614V29.9613C17.618 30.3585 17.9399 30.6804 18.3371 30.6804H18.3964C18.7608 30.6804 19.0562 30.9758 19.0562 31.3402Z"
        fill="#FF603B" />
</svg>