<svg xmlns="http://www.w3.org/2000/svg" width="10" height="10" viewBox="0 0 10 10" fill="none">
    <path fill-rule="evenodd" clip-rule="evenodd"
        d="M1.90716 0C1.69561 0 1.48761 0.053922 1.30277 0.156606C1.11455 0.252551 0.955687 0.397576 0.843019 0.576416C0.728727 0.757827 0.666346 0.967099 0.662651 1.18148L0.662598 1.18764V8.81237L0.662651 8.81853C0.666346 9.03289 0.728727 9.24218 0.843019 9.42357C0.955687 9.60246 1.11455 9.74744 1.30277 9.84343C1.48761 9.94607 1.69561 10 1.90716 10C2.12171 10 2.33261 9.94457 2.5194 9.83899C2.52351 9.83671 2.52757 9.83427 2.53159 9.83177L8.70416 6.01408C8.89134 5.91974 9.04935 5.77602 9.16107 5.5983C9.2763 5.41477 9.33753 5.20243 9.33753 4.98569C9.33753 4.76896 9.2763 4.55662 9.16107 4.3731C9.04927 4.19518 8.89099 4.05134 8.70359 3.95701L2.53057 0.167587C2.52689 0.165326 2.52316 0.163133 2.5194 0.161007C2.33261 0.0554632 2.12171 0 1.90716 0Z"
        fill="#FAFAFA" />
</svg>