<svg xmlns="http://www.w3.org/2000/svg" width="19" height="18" viewBox="0 0 19 18" fill="none">
    <g clip-path="url(#clip0_43_133)">
        <path
            d="M16.2157 2.74088C16.2157 2.74088 17.6726 2.17276 17.5507 3.55238C17.5106 4.12051 17.1465 6.10913 16.863 8.25976L15.8917 14.631C15.8917 14.631 15.8107 15.5644 15.0821 15.7268C14.3538 15.8888 13.2611 15.1586 13.0586 14.9963C12.8966 14.8744 10.0233 13.0481 9.01159 12.1556C8.72809 11.9119 8.40409 11.4251 9.05209 10.857L13.3016 6.79876C13.7872 6.31126 14.2728 5.17501 12.2493 6.55501L6.58309 10.41C6.58309 10.41 5.93547 10.8161 4.72159 10.4509L2.09059 9.63901C2.09059 9.63901 1.11934 9.03038 2.77872 8.42176C6.82609 6.51451 11.8042 4.56676 16.2153 2.74051"
            fill="black" />
    </g>
    <defs>
        <clipPath id="clip0_43_133">
            <rect width="18" height="18" fill="white" transform="translate(0.683105)" />
        </clipPath>
    </defs>
</svg> 