<svg xmlns="http://www.w3.org/2000/svg" width="21" height="20" viewBox="0 0 21 20" fill="none">
    <path
        d="M10.7306 1.80182C13.4133 1.80182 13.731 1.81182 14.7908 1.85991C15.428 1.86767 16.0591 1.98412 16.6567 2.20418C17.0901 2.37053 17.4837 2.62535 17.8122 2.95224C18.1407 3.27913 18.3967 3.67085 18.5639 4.10219C18.785 4.69697 18.902 5.32509 18.9098 5.95924C18.9576 7.01395 18.9681 7.33013 18.9681 10C18.9681 12.6699 18.9581 12.986 18.9098 14.0408C18.902 14.6749 18.785 15.303 18.5639 15.8978C18.3967 16.3291 18.1407 16.7209 17.8122 17.0478C17.4837 17.3747 17.0901 17.6295 16.6567 17.7958C16.0591 18.0159 15.428 18.1323 14.7908 18.1401C13.7315 18.1877 13.4138 18.1982 10.7306 18.1982C8.04745 18.1982 7.72976 18.1882 6.67047 18.1401C6.03328 18.1323 5.40214 18.0159 4.8045 17.7958C4.3711 17.6295 3.9775 17.3747 3.64904 17.0478C3.32057 16.7209 3.06453 16.3291 2.89739 15.8978C2.67626 15.303 2.55926 14.6749 2.55146 14.0408C2.50362 12.986 2.49309 12.6699 2.49309 10C2.49309 7.33013 2.50314 7.01395 2.55146 5.95924C2.55926 5.32509 2.67626 4.69697 2.89739 4.10219C3.06453 3.67085 3.32057 3.27913 3.64904 2.95224C3.9775 2.62535 4.3711 2.37053 4.8045 2.20418C5.40214 1.98412 6.03328 1.86767 6.67047 1.85991C7.73024 1.81229 8.04793 1.80182 10.7306 1.80182ZM10.7306 0C8.00344 0 7.65991 0.011428 6.58817 0.0599971C5.75425 0.0765049 4.92918 0.233646 4.14806 0.524737C3.47799 0.775994 2.87107 1.16974 2.36965 1.67849C1.85799 2.17769 1.46202 2.78206 1.2094 3.44936C0.916916 4.22675 0.759021 5.04788 0.742434 5.87782C0.694588 6.94348 0.683105 7.28537 0.683105 9.99952C0.683105 12.7137 0.694588 13.0556 0.743391 14.1222C0.759977 14.9521 0.917873 15.7733 1.21036 16.5506C1.4627 17.2179 1.85834 17.8222 2.36965 18.3215C2.87134 18.8304 3.4786 19.2241 4.14902 19.4753C4.93014 19.7664 5.75521 19.9235 6.58913 19.94C7.66086 19.9876 8.00296 20 10.7316 20C13.4602 20 13.8023 19.9886 14.874 19.94C15.7079 19.9235 16.533 19.7664 17.3141 19.4753C17.9814 19.2179 18.5873 18.8247 19.0931 18.3209C19.599 17.8172 19.9936 17.2139 20.2518 16.5497C20.5443 15.7723 20.7022 14.9512 20.7188 14.1212C20.7666 13.0556 20.7781 12.7137 20.7781 9.99952C20.7781 7.28537 20.7666 6.94348 20.7178 5.87686C20.7013 5.04693 20.5434 4.2258 20.2509 3.44841C19.9985 2.78119 19.6029 2.17684 19.0916 1.67754C18.5899 1.16867 17.9826 0.774919 17.3122 0.523785C16.5311 0.232694 15.706 0.0755526 14.8721 0.0590448C13.8013 0.0114281 13.4578 0 10.7306 0Z"
        fill="black" />
    <path
        d="M10.729 4.86481C9.7085 4.86481 8.71093 5.16597 7.86243 5.73021C7.01394 6.29445 6.35261 7.09643 5.96209 8.03472C5.57157 8.97302 5.46939 10.0055 5.66848 11.0016C5.86756 11.9977 6.35897 12.9126 7.08056 13.6308C7.80215 14.3489 8.72151 14.838 9.72238 15.0361C10.7233 15.2343 11.7607 15.1326 12.7035 14.7439C13.6463 14.3553 14.4521 13.6971 15.0191 12.8527C15.586 12.0082 15.8886 11.0154 15.8886 9.9998C15.8886 8.63792 15.345 7.33181 14.3774 6.36881C13.4098 5.40581 12.0974 4.86481 10.729 4.86481ZM10.729 13.333C10.0666 13.333 9.41904 13.1375 8.86827 12.7712C8.31751 12.405 7.88824 11.8844 7.63474 11.2754C7.38125 10.6663 7.31493 9.9961 7.44416 9.34953C7.57339 8.70296 7.89236 8.10904 8.36075 7.64289C8.82914 7.17674 9.42591 6.85928 10.0756 6.73067C10.7253 6.60206 11.3987 6.66807 12.0106 6.92035C12.6226 7.17263 13.1457 7.59985 13.5137 8.14799C13.8817 8.69613 14.0781 9.34056 14.0781 9.9998C14.0781 10.8838 13.7253 11.7316 13.0972 12.3567C12.4691 12.9818 11.6172 13.333 10.729 13.333Z"
        fill="black" />
    <path
        d="M16.0939 5.86159C16.7598 5.86159 17.2996 5.32435 17.2996 4.66164C17.2996 3.99893 16.7598 3.4617 16.0939 3.4617C15.428 3.4617 14.8882 3.99893 14.8882 4.66164C14.8882 5.32435 15.428 5.86159 16.0939 5.86159Z"
        fill="black" />
</svg>