<svg width="100" height="24" viewBox="0 0 100 24" fill="none" xmlns="http://www.w3.org/2000/svg">
<g clip-path="url(#clip0_2987_826)">
<path d="M0 8.36364L2.54545 6.90909L4.72727 9.45455H6.90909L8.5 22.5L10 15.5L11.5 19.5L13.8182 15.2727H16L18.5455 10.1818L20 12.3636L22.1818 10.1818L25.0909 8.36364L26.5455 12.3636L28 9.45455L29.8182 8L32.7273 10.1818L34.5455 6.54545L35.2727 8L36.7273 4.36364L38.1818 6.54545L39.5 1.5L40.7273 3.27273L41.8182 2.18182L43.2727 5.81818L44 4.36364L45.0909 5.81818L47 1L49.0909 6.54545L50.9091 4.72727L53.4545 10.5455L55.6364 7.63636L56.3636 8.36364L58.5455 5.81818L60 6.90909L62.9091 5.45455L64.7273 3.27273L67.6364 4.36364L69.0909 10.1818L72.3636 9.81818L74.5455 12.3636L76.7273 12L77.4545 16L79.6364 14.1818L81.8182 18.1818L84 17.4545L88.7273 10.5455L90.1818 11.2727L91.6364 10.5455L94.1818 20L97.4546 13.0909L98.5455 16.3636L100 14.5455" stroke="#F83B28"/>
</g>
<defs>
<clipPath id="clip0_2987_826">
<rect width="100" height="24" fill="white"/>
</clipPath>
</defs>
</svg>
