<svg width="25" height="24" viewBox="0 0 25 24" fill="none" xmlns="http://www.w3.org/2000/svg">
<g clip-path="url(#clip0_3498_2284)">
<path d="M13.1204 5.79544H4.7443C4.21538 5.79546 3.70813 6.00559 3.33413 6.3796C2.96013 6.75361 2.75001 7.26086 2.75 7.78978V19.7557C2.75001 20.2846 2.96013 20.7919 3.33413 21.1659C3.70813 21.5399 4.21538 21.75 4.7443 21.75H16.7102C16.9721 21.75 17.2315 21.6985 17.4735 21.5983C17.7154 21.4981 17.9353 21.3512 18.1205 21.166C18.3057 20.9808 18.4526 20.7609 18.5528 20.5189C18.653 20.277 18.7046 20.0176 18.7046 19.7557V11.3796M16.0454 2.25H22.25M22.25 2.25V8.45456M22.25 2.25L10.625 13.875" stroke="#FF603B" stroke-width="2" stroke-linecap="round" stroke-linejoin="round"/>
</g>
<defs>
<clipPath id="clip0_3498_2284">
<rect width="24" height="24" fill="white" transform="matrix(-1 0 0 1 24.5 0)"/>
</clipPath>
</defs>
</svg>
