<svg width="14" height="14" viewBox="0 0 14 14" fill="none" xmlns="http://www.w3.org/2000/svg">
<path fill-rule="evenodd" clip-rule="evenodd" d="M5.68761 10.5002C6.3196 10.5002 6.94541 10.3757 7.5293 10.1339C8.11319 9.892 8.64373 9.53751 9.09062 9.09062C9.53751 8.64373 9.892 8.11319 10.1339 7.5293C10.3757 6.94541 10.5002 6.3196 10.5002 5.68761C10.5002 5.05561 10.3757 4.4298 10.1339 3.84591C9.892 3.26202 9.53751 2.73148 9.09062 2.28459C8.64373 1.8377 8.11319 1.48321 7.5293 1.24135C6.94541 0.999497 6.3196 0.875016 5.68761 0.875016C4.41123 0.875016 3.18713 1.38206 2.28459 2.28459C1.38206 3.18713 0.875016 4.41123 0.875016 5.68761C0.875016 6.96398 1.38206 8.18808 2.28459 9.09062C3.18713 9.99316 4.41123 10.5002 5.68761 10.5002ZM11.3752 5.68761C11.3752 7.19605 10.776 8.64272 9.70935 9.70935C8.64272 10.776 7.19605 11.3752 5.68761 11.3752C4.17916 11.3752 2.73249 10.776 1.66586 9.70935C0.599228 8.64272 0 7.19605 0 5.68761C0 4.17916 0.599228 2.73249 1.66586 1.66586C2.73249 0.599228 4.17916 0 5.68761 0C7.19605 0 8.64272 0.599228 9.70935 1.66586C10.776 2.73249 11.3752 4.17916 11.3752 5.68761Z" fill="black"/>
<path d="M9.05078 10.2749C9.07645 10.3099 9.10503 10.3435 9.13653 10.3756L12.5053 13.7444C12.6694 13.9086 12.892 14.0008 13.1241 14.0009C13.3562 14.001 13.5789 13.9089 13.7431 13.7448C13.9072 13.5807 13.9995 13.3582 13.9996 13.126C13.9997 12.8939 13.9076 12.6713 13.7435 12.5071L10.3747 9.13828C10.3434 9.1066 10.3098 9.07735 10.2741 9.05078C9.9312 9.51915 9.51866 9.93228 9.05078 10.2758V10.2749Z" fill="black"/>
<path fill-rule="evenodd" clip-rule="evenodd" d="M5.27344 5.25022L6.12506 5.25L8.31261 5.25023C8.42864 5.25023 8.53992 5.29633 8.62197 5.37838C8.70402 5.46043 8.75011 5.57171 8.75011 5.68774C8.75011 5.80378 8.70402 5.91506 8.62197 5.99711C8.53992 6.07915 8.42864 6.12525 8.31261 6.12525H6.12506L5.25005 6.12504L3.06251 6.12525C2.94647 6.12525 2.83519 6.07915 2.75314 5.99711C2.67109 5.91506 2.625 5.80378 2.625 5.68774C2.625 5.57171 2.67109 5.46043 2.75314 5.37838C2.83519 5.29633 2.94647 5.25023 3.06251 5.25023H5.25005L5.27344 5.25022Z" fill="black"/>
</svg>
