<svg width="18" height="18" viewBox="0 0 18 18" fill="none" xmlns="http://www.w3.org/2000/svg">
<g clip-path="url(#clip0_2957_1430)">
<path d="M9 0C4.02947 0 0 4.02947 0 9C0 13.9708 4.02947 18 9 18C13.9708 18 18 13.9708 18 9C18 4.02947 13.9708 0 9 0ZM9 16.8927C4.65778 16.8927 1.125 13.3422 1.125 8.99996C1.125 4.65775 4.65778 1.12496 9 1.12496C13.3422 1.12496 16.875 4.65776 16.875 8.99996C16.875 13.3422 13.3422 16.8927 9 16.8927ZM12.5918 5.70684L7.31136 11.0205L4.93339 8.64253C4.71373 8.42288 4.35767 8.42288 4.13773 8.64253C3.91808 8.86219 3.91808 9.21825 4.13773 9.43791L6.92183 12.2223C7.14148 12.4417 7.49754 12.4417 7.71748 12.2223C7.74279 12.197 7.76447 12.1694 7.78416 12.1407L13.3878 6.50248C13.6072 6.28283 13.6072 5.92676 13.3878 5.70684C13.1678 5.48719 12.8118 5.48719 12.5918 5.70684Z" fill="white"/>
</g>
<defs>
<clipPath id="clip0_2957_1430">
<rect width="18" height="18" fill="white"/>
</clipPath>
</defs>
</svg>
