<svg width="50" height="50" viewBox="0 0 50 50" fill="none" xmlns="http://www.w3.org/2000/svg">
<g clip-path="url(#clip0_3653_44)">
<path d="M49.252 31.0476C45.9126 44.4406 32.3462 52.5913 18.9501 49.2515C5.55965 45.9126 -2.59197 32.3468 0.748797 18.9549C4.08664 5.56048 17.6531 -2.59084 31.045 0.748085C44.4401 4.08702 52.5913 17.6543 49.2516 31.0479L49.2518 31.0476H49.252Z" fill="#F7931A"/>
<path d="M36.0254 21.4384C36.523 18.1115 33.9898 16.3231 30.5258 15.1301L31.6496 10.6235L28.9059 9.93988L27.812 14.3279C27.0907 14.148 26.35 13.9785 25.6138 13.8105L26.7157 9.39353L23.9737 8.70996L22.8494 13.2151C22.2525 13.0793 21.6662 12.945 21.0975 12.8035L21.1007 12.7893L17.3171 11.8446L16.5873 14.7746C16.5873 14.7746 18.6228 15.2412 18.5799 15.2699C19.6909 15.5472 19.8919 16.2826 19.8585 16.8654L18.5785 21.9996C18.655 22.019 18.7542 22.0471 18.8637 22.0911C18.7722 22.0684 18.6748 22.0436 18.5737 22.0194L16.7795 29.2116C16.6437 29.5491 16.2991 30.0556 15.5223 29.8632C15.5498 29.9031 13.5282 29.3657 13.5282 29.3657L12.166 32.5059L15.7364 33.3959C16.4006 33.5624 17.0515 33.7367 17.6925 33.9005L16.5572 38.4589L19.2977 39.1424L20.422 34.6325C21.1707 34.8357 21.8972 35.0232 22.6085 35.1999L21.4879 39.6885L24.2317 40.3721L25.3669 35.8223C30.0454 36.7077 33.5633 36.3507 35.044 32.1195C36.2371 28.7129 34.9846 26.7479 32.5233 25.4666C34.316 25.0532 35.6663 23.8742 36.0263 21.4388L36.0255 21.4382L36.0254 21.4384ZM29.7568 30.2276C28.9089 33.6343 23.1725 31.7927 21.3127 31.331L22.8193 25.2919C24.679 25.7562 30.6429 26.6749 29.7569 30.2276H29.7568ZM30.6053 21.3891C29.8318 24.4878 25.0574 22.9135 23.5086 22.5275L24.8745 17.0504C26.4233 17.4365 31.411 18.1569 30.6055 21.3891H30.6053Z" fill="white"/>
</g>
<defs>
<clipPath id="clip0_3653_44">
<rect width="50" height="50" fill="white"/>
</clipPath>
</defs>
</svg>
