<svg width="50" height="50" viewBox="0 0 50 50" fill="none" xmlns="http://www.w3.org/2000/svg">
<g clip-path="url(#clip0_3653_39)">
<path d="M25 0C38.8084 0 50 11.1939 50 25C50 38.8084 38.8084 50 25 50C11.1939 50 0 38.8073 0 25C0 11.1939 11.1939 0 25 0Z" fill="#F5AC37"/>
<path d="M25.9209 26.7649H35.4205C35.623 26.7649 35.7186 26.7649 35.7333 26.4994C35.8109 25.533 35.8109 24.561 35.7333 23.5935C35.7333 23.4056 35.6399 23.328 35.4363 23.328H16.5304C16.2964 23.328 16.2334 23.4056 16.2334 23.625V26.406C16.2334 26.7649 16.2334 26.7649 16.6081 26.7649H25.9209ZM34.6724 20.0778C34.6994 20.0069 34.6994 19.9293 34.6724 19.8595C34.5138 19.5142 34.3259 19.1845 34.1076 18.8752C33.7791 18.3464 33.3921 17.8593 32.9511 17.4216C32.743 17.1573 32.5022 16.9199 32.2322 16.7185C30.88 15.5676 29.2723 14.7531 27.5443 14.3436C26.6724 14.1479 25.7814 14.0545 24.8882 14.0624H16.4978C16.2638 14.0624 16.2323 14.1557 16.2323 14.3594V19.9057C16.2323 20.1397 16.2323 20.2027 16.5293 20.2027H34.5599C34.5599 20.2027 34.7163 20.1712 34.7478 20.0778H34.6713H34.6724ZM34.6724 30.015C34.4069 29.9858 34.1391 29.9858 33.8736 30.015H16.5462C16.3122 30.015 16.2334 30.015 16.2334 30.3278V35.7503C16.2334 36.0001 16.2334 36.0631 16.5462 36.0631H24.5462C24.9287 36.0923 25.3112 36.0653 25.6858 35.9855C26.8468 35.9022 27.9887 35.6502 29.0777 35.2351C29.4737 35.0978 29.8562 34.9189 30.2173 34.7041H30.3265C32.2019 33.7287 33.7251 32.1964 34.6859 30.3154C34.6859 30.3154 34.795 30.0791 34.6724 30.0173V30.015ZM13.0935 38.8745V38.7811V35.1406V33.9064V30.2344C13.0935 30.0308 13.0935 30.0004 12.8438 30.0004H9.453C9.26513 30.0004 9.1875 30.0004 9.1875 29.7506V26.7817H12.8123C13.0148 26.7817 13.0935 26.7817 13.0935 26.5162V23.5788C13.0935 23.391 13.0935 23.3448 12.8438 23.3448H9.453C9.26513 23.3448 9.1875 23.3448 9.1875 23.0951V20.3455C9.1875 20.1734 9.1875 20.1273 9.43725 20.1273H12.7965C13.0305 20.1273 13.0935 20.1273 13.0935 19.8303V11.4085C13.0935 11.1587 13.0935 11.0957 13.4063 11.0957H25.1244C25.9749 11.1295 26.8198 11.2228 27.6557 11.377C29.3781 11.6953 31.033 12.3107 32.5461 13.1893C33.5496 13.78 34.4733 14.4932 35.2956 15.3145C35.9144 15.9569 36.4724 16.6521 36.9674 17.3924C37.459 18.1428 37.8674 18.9449 38.188 19.783C38.2274 20.0013 38.4367 20.1487 38.6549 20.1115H41.4517C41.8106 20.1115 41.8106 20.1115 41.8263 20.4558V23.0186C41.8263 23.2683 41.733 23.3313 41.4821 23.3313H39.3254C39.1072 23.3313 39.0442 23.3313 39.0599 23.6126C39.1454 24.5643 39.1454 25.5195 39.0599 26.4712C39.0599 26.7367 39.0599 26.7682 39.3581 26.7682H41.8252C41.9343 26.9089 41.8252 27.0495 41.8252 27.1912C41.841 27.3724 41.841 27.5557 41.8252 27.7369V29.628C41.8252 29.8935 41.7476 29.9723 41.5125 29.9723H38.5593C38.3534 29.9329 38.1532 30.0645 38.1059 30.2693C37.4028 32.0974 36.2778 33.7366 34.8243 35.0506C34.2933 35.5287 33.7352 35.9787 33.1525 36.3938C32.527 36.7538 31.9184 37.1285 31.2771 37.4255C30.097 37.9565 28.8594 38.348 27.5893 38.5966C26.3833 38.8126 25.1604 38.9105 23.933 38.8936H13.089V38.8779L13.0935 38.8745Z" fill="#FEFEFD"/>
</g>
<defs>
<clipPath id="clip0_3653_39">
<rect width="50" height="50" fill="white"/>
</clipPath>
</defs>
</svg>
