<svg width="50" height="50" viewBox="0 0 50 50" fill="none" xmlns="http://www.w3.org/2000/svg">
<g clip-path="url(#clip0_3653_55)">
<path fill-rule="evenodd" clip-rule="evenodd" d="M9.15521 0.245571L0.0384576 22.2593C0.00376571 22.3412 -0.00722792 22.4337 0.00708439 22.5233C0.0213967 22.6128 0.0602641 22.6948 0.118003 22.7572L24.7402 49.8798C24.8101 49.9569 24.9033 50 25.0002 50C25.0971 50 25.1902 49.9569 25.2602 49.8798L49.8823 22.7589C49.9401 22.6965 49.9789 22.6145 49.9932 22.525C50.0075 22.4354 49.9966 22.3429 49.9619 22.261L40.8451 0.247264C40.8157 0.173333 40.7684 0.110703 40.7088 0.0668611C40.6493 0.023019 40.58 -0.000181357 40.5092 3.27706e-05H9.49402C9.42295 -0.000983524 9.35316 0.021658 9.29304 0.0652261C9.23292 0.108794 9.18506 0.171428 9.15521 0.245571Z" fill="#50AF95"/>
<path fill-rule="evenodd" clip-rule="evenodd" d="M28.163 24.52C27.9862 24.5353 27.0729 24.5979 25.0357 24.5979C23.4153 24.5979 22.2649 24.542 21.8612 24.52C15.5993 24.2034 10.9253 22.9503 10.9253 21.45C10.9253 19.9496 15.5993 18.6982 21.8612 18.3765V23.272C22.2707 23.3059 23.4433 23.3855 25.0637 23.3855C27.0081 23.3855 27.9818 23.2923 28.1571 23.2737V18.3799C34.4058 18.6999 39.0695 19.953 39.0695 21.45C39.0695 22.9469 34.4073 24.2 28.1571 24.5183L28.163 24.52ZM28.163 17.8736V13.4928H36.8835V6.8125H13.1407V13.4928H21.8598V17.8719C14.7729 18.2461 9.44336 19.8599 9.44336 21.7937C9.44336 23.7275 14.7729 25.3396 21.8598 25.7155V39.7535H28.1615V25.7105C35.2322 25.3362 40.5529 23.7241 40.5529 21.792C40.5529 19.8599 35.2366 18.2478 28.1615 17.8719L28.163 17.8736Z" fill="white"/>
</g>
<defs>
<clipPath id="clip0_3653_55">
<rect width="50" height="50" fill="white"/>
</clipPath>
</defs>
</svg>
