<svg width="50" height="50" viewBox="0 0 50 50" fill="none" xmlns="http://www.w3.org/2000/svg">
<g clip-path="url(#clip0_3653_59)">
<path d="M40.7694 10.493L39.3965 11.8658C42.6724 15.4483 44.489 20.1269 44.489 24.9813C44.489 29.8358 42.6724 34.5144 39.3965 38.0968L40.7694 39.4697C44.4125 35.5181 46.4351 30.3401 46.4351 24.9653C46.4351 19.5906 44.4125 14.4126 40.7694 10.4609V10.493Z" fill="#5A5564"/>
<path d="M11.8981 10.6119C15.4805 7.336 20.1592 5.51934 25.0136 5.51934C29.868 5.51934 34.5467 7.336 38.1291 10.6119L39.5019 9.23903C35.5503 5.59588 30.3723 3.57324 24.9976 3.57324C19.6228 3.57324 14.4448 5.59588 10.4932 9.23903L11.8981 10.6119Z" fill="#5A5564"/>
<path d="M10.6119 38.1107C7.33988 34.529 5.52562 29.8532 5.52562 25.002C5.52562 20.1508 7.33988 15.475 10.6119 11.8934L9.23903 10.5205C5.59588 14.4722 3.57324 19.6501 3.57324 25.0249C3.57324 30.3997 5.59588 35.5776 9.23903 39.5293L10.6119 38.1107Z" fill="#5A5564"/>
<path d="M38.1107 39.3789C34.5283 42.6548 29.8496 44.4715 24.9952 44.4715C20.1408 44.4715 15.4621 42.6548 11.8797 39.3789L10.5068 40.7518C14.4585 44.3949 19.6365 46.4176 25.0112 46.4176C30.386 46.4176 35.564 44.3949 39.5156 40.7518L38.1107 39.3789Z" fill="#5A5564"/>
<path d="M33.6673 20.4188C33.3927 17.5541 30.9215 16.5931 27.7959 16.3002V12.3555H25.3797V16.227C24.7436 16.227 24.0938 16.227 23.4485 16.227V12.3555H21.0506V16.3276H16.1494V18.9132C16.1494 18.9132 17.9341 18.8812 17.9067 18.9132C18.2285 18.8778 18.5515 18.9687 18.8076 19.1668C19.0637 19.3648 19.2329 19.6545 19.2796 19.9749V30.8481C19.2727 30.961 19.2432 31.0715 19.1929 31.1729C19.1426 31.2743 19.0725 31.3646 18.9867 31.4384C18.9025 31.5136 18.804 31.571 18.697 31.6072C18.5901 31.6434 18.4769 31.6576 18.3643 31.6489C18.3963 31.6764 16.607 31.6489 16.607 31.6489L16.1494 34.5365H21.0048V38.5727H23.4211V34.596H25.3522V38.5544H27.7731V34.564C31.8551 34.3168 34.7015 33.3101 35.0584 29.4889C35.3467 26.4137 33.9006 25.0408 31.5896 24.4871C32.9946 23.7961 33.864 22.5147 33.6673 20.4188ZM30.2808 29.013C30.2808 32.015 25.1371 31.6718 23.4989 31.6718V26.345C25.1371 26.3496 30.2808 25.8783 30.2808 29.013ZM29.1597 21.5079C29.1597 24.2537 24.8672 23.9196 23.5034 23.9196V19.078C24.8672 19.078 29.1597 18.6478 29.1597 21.5079Z" fill="#F09242"/>
<path d="M24.9954 50C20.0513 49.9991 15.2184 48.5322 11.1079 45.7848C6.99737 43.0375 3.79377 39.1329 1.90215 34.565C0.0105237 29.997 -0.484174 24.9707 0.480603 20.1216C1.44538 15.2725 3.8263 10.8184 7.32234 7.32234C10.8184 3.8263 15.2725 1.44538 20.1216 0.480603C24.9707 -0.484174 29.997 0.0105237 34.565 1.90215C39.1329 3.79377 43.0375 6.99737 45.7848 11.1079C48.5322 15.2184 49.9991 20.0513 50 24.9954C50.0006 28.2793 49.3543 31.531 48.0979 34.565C46.8415 37.599 44.9997 40.3557 42.6777 42.6777C40.3557 44.9997 37.599 46.8415 34.565 48.0979C31.531 49.3543 28.2793 50.0006 24.9954 50ZM24.9954 1.94949C20.4404 1.95311 15.9886 3.30704 12.2028 5.84015C8.41705 8.37326 5.46721 11.9718 3.72614 16.181C1.98508 20.3903 1.53095 25.0211 2.42116 29.4884C3.31136 33.9556 5.50594 38.0587 8.7275 41.279C11.9491 44.4993 16.053 46.6922 20.5206 47.5806C24.9882 48.4691 29.6189 48.0131 33.8274 46.2704C38.0359 44.5276 41.6333 41.5764 44.165 37.7896C46.6966 34.0028 48.0487 29.5505 48.0505 24.9954C48.0517 21.9679 47.4562 18.9698 46.2978 16.1726C45.1395 13.3754 43.4412 10.8339 41.3 8.69357C39.1588 6.55319 36.6166 4.85588 33.819 3.69868C31.0213 2.54148 28.023 1.94708 24.9954 1.94949Z" fill="#282138"/>
</g>
<defs>
<clipPath id="clip0_3653_59">
<rect width="50" height="50" fill="white"/>
</clipPath>
</defs>
</svg>
