<svg xmlns="http://www.w3.org/2000/svg" width="20" height="20" viewBox="0 0 20 20" fill="none">
    <path fill-rule="evenodd" clip-rule="evenodd"
        d="M10.3893 0.667114C5.06323 0.667114 0.77832 4.93156 0.77832 10.2322C0.77832 14.4568 3.54148 18.0437 7.34584 19.3191C7.82639 19.3988 7.98658 19.1198 7.98658 18.8408C7.98658 18.6017 7.98658 18.0039 7.98658 17.2068C5.3035 17.8046 4.74286 15.9314 4.74286 15.9314C4.30236 14.8155 3.66162 14.5365 3.66162 14.5365C2.78061 13.9387 3.74171 13.9387 3.74171 13.9387C4.70282 14.0184 5.22341 14.9351 5.22341 14.9351C6.06437 16.4097 7.46598 15.9713 8.02662 15.7322C8.10671 15.0945 8.34699 14.6959 8.62731 14.4568C6.50488 14.2177 4.26231 13.3807 4.26231 9.71411C4.26231 8.67789 4.62272 7.80109 5.26346 7.16342C5.18337 6.92429 4.82295 5.96778 5.34355 4.61272C5.34355 4.61272 6.14447 4.37359 7.98658 5.60909C8.74745 5.40981 9.58841 5.29025 10.3893 5.29025C11.1902 5.29025 12.0312 5.40981 12.7921 5.60909C14.6342 4.37359 15.4351 4.61272 15.4351 4.61272C15.9557 5.92792 15.6353 6.88443 15.5152 7.16342C16.1159 7.84094 16.5163 8.67789 16.5163 9.71411C16.5163 13.3807 14.2738 14.1778 12.1113 14.417C12.4717 14.6959 12.752 15.2938 12.752 16.1706C12.752 17.4459 12.752 18.4821 12.752 18.801C12.752 19.0401 12.9122 19.3589 13.4328 19.2792C17.2372 18.0437 20.0003 14.4568 20.0003 10.2322C20.0003 4.93156 15.7154 0.667114 10.3893 0.667114Z"
        fill="black" />
</svg>