<svg width="84" height="84" viewBox="0 0 84 84" fill="none" xmlns="http://www.w3.org/2000/svg">
    <path
        d="M24.8035 11.6062L24.8035 10.4766C24.8035 10.1181 24.5129 9.82742 24.1544 9.82742L7.7047 9.82742C7.34617 9.82742 7.05553 10.1181 7.05553 10.4766L7.05553 11.6062C7.05553 11.9647 6.76489 12.2554 6.40637 12.2554L4.7467 12.2554C4.38818 12.2554 4.09753 11.9647 4.09753 11.6062L4.09753 8.08717C4.09753 7.72865 4.38818 7.438 4.7467 7.438L6.40637 7.438C6.76489 7.438 7.05553 7.14736 7.05553 6.78884L7.05553 5.65922C7.05553 5.3007 7.34618 5.01005 7.7047 5.01005L9.22351 5.01005C9.58203 5.01005 9.87267 4.71941 9.87267 4.36089L9.87267 3.07711C9.87267 2.71859 10.1633 2.42795 10.5218 2.42795L24.1544 2.42795C24.5129 2.42795 24.8035 2.13731 24.8035 1.77878L24.8035 0.649164C24.8035 0.290639 25.0942 -3.63603e-06 25.4527 -3.60469e-06L27.2063 -3.45139e-06C27.5648 -3.42004e-06 27.8554 0.290639 27.8554 0.649165L27.8554 1.77878C27.8554 2.13731 28.1461 2.42795 28.5046 2.42795L30.0704 2.42795C30.4289 2.42795 30.7195 2.71859 30.7195 3.07712L30.7195 4.36089C30.7195 4.71941 31.0102 5.01006 31.3687 5.01006L33.3101 5.01006C33.6686 5.01006 33.9592 5.3007 33.9592 5.65922L33.9592 6.78884C33.9592 7.14737 33.6686 7.43801 33.3101 7.43801L31.3687 7.43801C31.0102 7.43801 30.7195 7.72865 30.7195 8.08717L30.7195 9.17825C30.7195 9.53678 30.4289 9.82742 30.0703 9.82742L28.5046 9.82742C28.1461 9.82742 27.8554 10.1181 27.8554 10.4766L27.8554 11.6062C27.8554 11.9647 27.5648 12.2554 27.2063 12.2554L25.4527 12.2554C25.0942 12.2554 24.8035 11.9647 24.8035 11.6062Z"
        fill="#FF603B" />
    <path
        d="M13.2534 18.2556L13.2534 19.3852C13.2534 19.7438 13.544 20.0344 13.9025 20.0344L30.3522 20.0344C30.7107 20.0344 31.0014 19.7438 31.0014 19.3852L31.0014 18.2556C31.0014 17.8971 31.292 17.6064 31.6505 17.6064L33.3102 17.6064C33.6687 17.6064 33.9594 17.8971 33.9594 18.2556L33.9594 21.7746C33.9594 22.1332 33.6687 22.4238 33.3102 22.4238L31.6505 22.4238C31.292 22.4238 31.0014 22.7145 31.0014 23.073L31.0014 24.2026C31.0014 24.5611 30.7107 24.8518 30.3522 24.8518L28.8334 24.8518C28.4749 24.8518 28.1842 25.1424 28.1842 25.5009L28.1842 26.7847C28.1842 27.1432 27.8936 27.4339 27.535 27.4339L13.9025 27.4339C13.544 27.4339 13.2534 27.7245 13.2534 28.083L13.2534 29.2127C13.2534 29.5712 12.9627 29.8618 12.6042 29.8618L10.8506 29.8618C10.4921 29.8618 10.2015 29.5712 10.2015 29.2127L10.2015 28.083C10.2015 27.7245 9.91082 27.4339 9.55229 27.4339L7.98653 27.4339C7.62801 27.4339 7.33737 27.1432 7.33737 26.7847L7.33737 25.5009C7.33737 25.1424 7.04673 24.8518 6.6882 24.8518L4.74682 24.8518C4.3883 24.8518 4.09766 24.5611 4.09766 24.2026L4.09766 23.073C4.09766 22.7145 4.3883 22.4238 4.74682 22.4238L6.6882 22.4238C7.04673 22.4238 7.33737 22.1332 7.33737 21.7746L7.33737 20.6836C7.33737 20.325 7.62801 20.0344 7.98654 20.0344L9.55229 20.0344C9.91082 20.0344 10.2015 19.7438 10.2015 19.3852L10.2015 18.2556C10.2015 17.8971 10.4921 17.6064 10.8506 17.6064L12.6042 17.6064C12.9627 17.6064 13.2534 17.8971 13.2534 18.2556Z"
        fill="#FF603B" />
    <path
        d="M50.0223 83.3723C50.0223 83.719 49.7413 84 49.3947 84H43.0525C42.7247 84 42.4522 83.7478 42.4267 83.421L41.573 72.4552C41.5476 72.1285 41.275 71.8763 40.9473 71.8763H39.3242C38.9775 71.8763 38.6965 71.5953 38.6965 71.2486V69.04C38.6965 68.6934 38.4155 68.4124 38.0689 68.4124H34.6051C34.2584 68.4124 33.9774 68.6934 33.9774 69.04V71.2486C33.9774 71.5953 33.6964 71.8763 33.3498 71.8763H29.886C29.5394 71.8763 29.2583 72.1573 29.2583 72.5039V75.5785C29.2583 75.9252 28.9773 76.2062 28.6307 76.2062H25.1669C24.8203 76.2062 24.5393 76.4872 24.5393 76.8338V79.9084C24.5393 80.2551 24.8203 80.5361 25.1669 80.5361H28.6307C28.9773 80.5361 29.2583 80.8171 29.2583 81.1637V83.3723C29.2583 83.719 28.9773 84 28.6307 84H21.3916C21.045 84 20.764 83.719 20.764 83.3723V69.04C20.764 68.6934 20.483 68.4124 20.1363 68.4124H16.6726C16.3259 68.4124 16.0449 68.1313 16.0449 67.7847V65.5761C16.0449 65.2295 15.7639 64.9484 15.4172 64.9484H12.8973C12.5506 64.9484 12.2696 64.6674 12.2696 64.3208V61.2462C12.2696 60.8996 11.9886 60.6185 11.642 60.6185H8.1782C7.83155 60.6185 7.55054 60.3375 7.55054 59.9909V56.9163C7.55054 56.5697 7.26953 56.2887 6.92288 56.2887H4.40293C4.05628 56.2887 3.77527 56.0076 3.77527 55.661V52.5864C3.77527 52.2398 3.49426 51.9588 3.14761 51.9588H0.627662C0.281014 51.9588 0 51.6777 0 51.3311V30.9369C0 30.5903 0.281014 30.3093 0.627662 30.3093H3.14761C3.49426 30.3093 3.77527 30.5903 3.77527 30.9369V36.6094C3.77527 36.9561 4.05628 37.2371 4.40293 37.2371H6.92288C7.26953 37.2371 7.55054 37.5181 7.55054 37.8648V40.9393C7.55054 41.286 7.83155 41.567 8.1782 41.567H11.642C11.9886 41.567 12.2696 41.848 12.2696 42.1947V44.4033C12.2696 44.7499 12.5506 45.0309 12.8973 45.0309H20.1363C20.483 45.0309 20.764 44.7499 20.764 44.4033V42.1947C20.764 41.848 21.045 41.567 21.3916 41.567H24.8554C25.2021 41.567 25.4831 41.286 25.4831 40.9393V37.8648C25.4831 37.5181 25.7641 37.2371 26.1107 37.2371H30.5183C30.865 37.2371 31.146 36.9561 31.146 36.6094V34.4009C31.146 34.0542 31.427 33.7732 31.7736 33.7732H37.125C37.4717 33.7732 37.7527 33.4922 37.7527 33.1455V30.071C37.7527 29.7243 38.0337 29.4433 38.3804 29.4433H41.2542C41.6009 29.4433 41.8819 29.1623 41.8819 28.8156V4.95756C41.8819 4.61091 42.1629 4.3299 42.5096 4.3299H45.6194C45.966 4.3299 46.2471 4.04888 46.2471 3.70223V0.627662C46.2471 0.281014 46.5281 0 46.8747 0H79.5968C79.9435 0 80.2245 0.281014 80.2245 0.627662V3.70223C80.2245 4.04888 80.5055 4.3299 80.8522 4.3299H83.3721C83.7188 4.3299 83.9998 4.61091 83.9998 4.95756V23.295C83.9998 23.6417 83.7188 23.9227 83.3721 23.9227H59.1444C58.7977 23.9227 58.5167 24.2037 58.5167 24.5503V26.2177C58.5167 26.5643 58.7977 26.8454 59.1444 26.8454H69.2148C69.5615 26.8454 69.8425 27.1264 69.8425 27.473V28.8156C69.8425 29.1623 69.5615 29.4433 69.2148 29.4433H59.1444C58.7977 29.4433 58.5167 29.7243 58.5167 30.071V36.6094C58.5167 36.9561 58.7977 37.2371 59.1444 37.2371H66.3834C66.73 37.2371 67.011 37.5181 67.011 37.8648V44.4033C67.011 44.7499 66.73 45.0309 66.3834 45.0309H63.8634C63.5168 45.0309 63.2358 44.7499 63.2358 44.4033V42.1947C63.2358 41.848 62.9548 41.567 62.6081 41.567H59.1444C58.7977 41.567 58.5167 41.848 58.5167 42.1947V53.929C58.5167 54.2757 58.2357 54.5567 57.889 54.5567H55.3691C55.0224 54.5567 54.7414 54.8377 54.7414 55.1844V59.9909C54.7414 60.3375 54.4604 60.6185 54.1138 60.6185H50.65C50.3033 60.6185 50.0223 60.8996 50.0223 61.2462V64.3208C50.0223 64.6674 49.7413 64.9484 49.3947 64.9484H46.8747C46.5281 64.9484 46.2471 65.2295 46.2471 65.5761V79.9084C46.2471 80.2551 46.5281 80.5361 46.8747 80.5361H49.3947C49.7413 80.5361 50.0223 80.8171 50.0223 81.1637V83.3723Z"
        fill="#FF603B" />
</svg>
    