<svg width="90" height="89" viewBox="0 0 90 89" fill="none" xmlns="http://www.w3.org/2000/svg">
<g filter="url(#filter0_d_3050_2213)">
<circle cx="45" cy="43" r="37.5" fill="white"/>
</g>
<path d="M55.417 30.5C55.417 29.8096 54.8573 29.25 54.167 29.25C53.4766 29.25 52.917 29.8096 52.917 30.5L55.417 30.5ZM53.2831 56.3839C53.7713 56.872 54.5627 56.872 55.0509 56.3839L63.0058 48.4289C63.494 47.9408 63.494 47.1493 63.0058 46.6612C62.5177 46.173 61.7262 46.173 61.2381 46.6612L54.167 53.7322L47.0959 46.6612C46.6078 46.173 45.8163 46.173 45.3282 46.6612C44.84 47.1493 44.84 47.9408 45.3282 48.4289L53.2831 56.3839ZM52.917 30.5L52.917 55.5L55.417 55.5L55.417 30.5L52.917 30.5Z" fill="black"/>
<path d="M37.917 55.5C37.917 56.1904 37.3573 56.75 36.667 56.75C35.9766 56.75 35.417 56.1904 35.417 55.5L37.917 55.5ZM35.7831 29.6161C36.2713 29.128 37.0627 29.128 37.5509 29.6161L45.5058 37.5711C45.994 38.0592 45.994 38.8507 45.5058 39.3388C45.0177 39.827 44.2262 39.827 43.7381 39.3388L36.667 32.2678L29.5959 39.3388C29.1078 39.827 28.3163 39.827 27.8282 39.3388C27.34 38.8507 27.34 38.0592 27.8282 37.5711L35.7831 29.6161ZM35.417 55.5L35.417 30.5L37.917 30.5L37.917 55.5L35.417 55.5Z" fill="black"/>
<defs>
<filter id="filter0_d_3050_2213" x="0.833333" y="0.5" width="88.3333" height="88.3333" filterUnits="userSpaceOnUse" color-interpolation-filters="sRGB">
<feFlood flood-opacity="0" result="BackgroundImageFix"/>
<feColorMatrix in="SourceAlpha" type="matrix" values="0 0 0 0 0 0 0 0 0 0 0 0 0 0 0 0 0 0 127 0" result="hardAlpha"/>
<feOffset dy="1.66667"/>
<feGaussianBlur stdDeviation="3.33333"/>
<feComposite in2="hardAlpha" operator="out"/>
<feColorMatrix type="matrix" values="0 0 0 0 0 0 0 0 0 0 0 0 0 0 0 0 0 0 0.25 0"/>
<feBlend mode="normal" in2="BackgroundImageFix" result="effect1_dropShadow_3050_2213"/>
<feBlend mode="normal" in="SourceGraphic" in2="effect1_dropShadow_3050_2213" result="shape"/>
</filter>
</defs>
</svg>
