<svg width="40" height="40" viewBox="0 0 40 40" fill="none" xmlns="http://www.w3.org/2000/svg">
<rect x="0.8" y="0.8" width="38.4" height="38.4" rx="19.2" stroke="#00AA66" stroke-width="1.6"/>
<path d="M20 11.3109V20.0006C20 20.1995 19.921 20.3903 19.7803 20.5309C19.6397 20.6716 19.4489 20.7506 19.25 20.7506C19.0511 20.7506 18.8603 20.6716 18.7197 20.5309C18.579 20.3903 18.5 20.1995 18.5 20.0006V11.3109L16.7806 13.0312C16.6399 13.1719 16.449 13.251 16.25 13.251C16.051 13.251 15.8601 13.1719 15.7194 13.0312C15.5786 12.8905 15.4996 12.6996 15.4996 12.5006C15.4996 12.3016 15.5786 12.1107 15.7194 11.97L18.7194 8.96997C18.789 8.90023 18.8717 8.84491 18.9628 8.80717C19.0538 8.76943 19.1514 8.75 19.25 8.75C19.3486 8.75 19.4462 8.76943 19.5372 8.80717C19.6283 8.84491 19.711 8.90023 19.7806 8.96997L22.7806 11.97C22.9214 12.1107 23.0004 12.3016 23.0004 12.5006C23.0004 12.6996 22.9214 12.8905 22.7806 13.0312C22.6399 13.1719 22.449 13.251 22.25 13.251C22.051 13.251 21.8601 13.1719 21.7194 13.0312L20 11.3109ZM26 19.59V17.0006C26 16.6028 25.842 16.2212 25.5607 15.9399C25.2794 15.6586 24.8978 15.5006 24.5 15.5006H23C22.8011 15.5006 22.6103 15.5796 22.4697 15.7203C22.329 15.8609 22.25 16.0517 22.25 16.2506C22.25 16.4495 22.329 16.6403 22.4697 16.7809C22.6103 16.9216 22.8011 17.0006 23 17.0006H24.5V24.5381C24.0527 24.0812 23.4541 23.8032 22.8164 23.7564C22.1788 23.7096 21.5459 23.8971 21.0367 24.2838C20.5275 24.6704 20.1769 25.2296 20.0508 25.8564C19.9246 26.4832 20.0316 27.1345 20.3516 27.6881L20.3741 27.7237L22.4609 30.9112C22.5698 31.0777 22.7404 31.1941 22.9351 31.2348C23.1298 31.2755 23.3328 31.2372 23.4992 31.1283C23.6657 31.0193 23.7821 30.8488 23.8228 30.6541C23.8635 30.4593 23.8252 30.2564 23.7162 30.09L21.6416 26.9222C21.4945 26.6625 21.4566 26.355 21.5363 26.0673C21.6159 25.7797 21.8065 25.5355 22.0662 25.3884C22.326 25.2413 22.6334 25.2035 22.9211 25.2831C23.2087 25.3627 23.4529 25.5534 23.6 25.8131C23.6066 25.8253 23.6141 25.8375 23.6216 25.8487L24.6228 27.3778C24.7113 27.5128 24.841 27.6156 24.9926 27.671C25.1442 27.7264 25.3096 27.7314 25.4643 27.6853C25.619 27.6391 25.7546 27.5444 25.8512 27.415C25.9477 27.2856 25.9999 27.1286 26 26.9672V21.5006C26.7069 22.155 27.2715 22.9479 27.6586 23.83C28.0457 24.7121 28.247 25.6645 28.25 26.6278V30.5006C28.25 30.6995 28.329 30.8903 28.4697 31.0309C28.6103 31.1716 28.8011 31.2506 29 31.2506C29.1989 31.2506 29.3897 31.1716 29.5303 31.0309C29.671 30.8903 29.75 30.6995 29.75 30.5006V26.624C29.7458 25.2347 29.4018 23.8675 28.7482 22.6415C28.0946 21.4155 27.1512 20.3679 26 19.59ZM15.5 15.5006H14C13.6022 15.5006 13.2206 15.6586 12.9393 15.9399C12.658 16.2212 12.5 16.6028 12.5 17.0006V26.7506C12.5 26.9495 12.579 27.1403 12.7197 27.2809C12.8603 27.4216 13.0511 27.5006 13.25 27.5006C13.4489 27.5006 13.6397 27.4216 13.7803 27.2809C13.921 27.1403 14 26.9495 14 26.7506V17.0006H15.5C15.6989 17.0006 15.8897 16.9216 16.0303 16.7809C16.171 16.6403 16.25 16.4495 16.25 16.2506C16.25 16.0517 16.171 15.8609 16.0303 15.7203C15.8897 15.5796 15.6989 15.5006 15.5 15.5006Z" fill="black"/>
</svg>
