<svg width="49" height="49" viewBox="0 0 49 49" fill="none" xmlns="http://www.w3.org/2000/svg">
<rect x="1" y="1" width="47" height="47" rx="11.5" fill="#FFB19F"/>
<rect x="1" y="1" width="47" height="47" rx="11.5" stroke="black"/>
<path d="M37.0938 33.0553V38.0625C37.0938 38.3194 36.9917 38.5658 36.81 38.7475C36.6283 38.9292 36.3819 39.0312 36.125 39.0312C35.8681 39.0312 35.6217 38.9292 35.44 38.7475C35.2583 38.5658 35.1562 38.3194 35.1562 38.0625V33.0553C35.1517 31.8118 34.8914 30.5826 34.3914 29.4441C33.8914 28.3056 33.1625 27.2822 32.25 26.4375V33.5033C32.2498 33.7118 32.1824 33.9147 32.0577 34.0818C31.9331 34.2489 31.7578 34.3713 31.5581 34.4309C31.3583 34.4904 31.1446 34.484 30.9488 34.4124C30.753 34.3409 30.5855 34.2081 30.4711 34.0337L29.1779 32.0587C29.1682 32.0441 29.1585 32.0284 29.15 32.0127C28.96 31.6772 28.6446 31.431 28.2731 31.3281C27.9015 31.2252 27.5044 31.2741 27.1689 31.4641C26.8335 31.6541 26.5872 31.9695 26.4843 32.341C26.3815 32.7126 26.4304 33.1097 26.6204 33.4452L29.3002 37.537C29.4408 37.752 29.4903 38.0141 29.4377 38.2656C29.3852 38.5171 29.2348 38.7374 29.0198 38.8781C28.8048 39.0187 28.5427 39.0682 28.2912 39.0157C28.0397 38.9631 27.8194 38.8128 27.6787 38.5977L24.9832 34.4805L24.9541 34.4345C24.5368 33.7195 24.3956 32.8764 24.5571 32.0644C24.7185 31.2524 25.1715 30.5275 25.8306 30.0265C26.4897 29.5254 27.3093 29.2828 28.1349 29.3444C28.9605 29.4061 29.7351 29.7676 30.3125 30.3609V16.75H28.375C28.1181 16.75 27.8717 16.6479 27.69 16.4663C27.5083 16.2846 27.4062 16.0382 27.4062 15.7812C27.4062 15.5243 27.5083 15.2779 27.69 15.0962C27.8717 14.9146 28.1181 14.8125 28.375 14.8125H30.3125C30.8264 14.8125 31.3192 15.0166 31.6825 15.38C32.0459 15.7433 32.25 16.2361 32.25 16.75V23.9696C33.7369 24.9744 34.9556 26.3275 35.7998 27.9111C36.6441 29.4947 37.0883 31.2607 37.0938 33.0553ZM19.6562 15.7812C19.6562 15.5243 19.5542 15.2779 19.3725 15.0962C19.1908 14.9146 18.9444 14.8125 18.6875 14.8125H16.75C16.2361 14.8125 15.7433 15.0166 15.38 15.38C15.0166 15.7433 14.8125 16.2361 14.8125 16.75V33.2188C14.8125 33.4757 14.9146 33.7221 15.0962 33.9038C15.2779 34.0854 15.5243 34.1875 15.7812 34.1875C16.0382 34.1875 16.2846 34.0854 16.4663 33.9038C16.6479 33.7221 16.75 33.4757 16.75 33.2188V16.75H18.6875C18.9444 16.75 19.1908 16.6479 19.3725 16.4663C19.5542 16.2846 19.6562 16.0382 19.6562 15.7812ZM28.0916 20.9084C28.0017 20.8183 27.8948 20.7468 27.7772 20.6981C27.6596 20.6493 27.5336 20.6242 27.4062 20.6242C27.2789 20.6242 27.1529 20.6493 27.0353 20.6981C26.9177 20.7468 26.8108 20.8183 26.7209 20.9084L24.5 23.1304V10.9375C24.5 10.6806 24.3979 10.4342 24.2163 10.2525C24.0346 10.0708 23.7882 9.96875 23.5312 9.96875C23.2743 9.96875 23.0279 10.0708 22.8462 10.2525C22.6646 10.4342 22.5625 10.6806 22.5625 10.9375V23.1304L20.3416 20.9084C20.1599 20.7266 19.9133 20.6245 19.6562 20.6245C19.3992 20.6245 19.1526 20.7266 18.9709 20.9084C18.7891 21.0901 18.687 21.3367 18.687 21.5938C18.687 21.8508 18.7891 22.0974 18.9709 22.2791L22.8459 26.1541C22.9358 26.2442 23.0427 26.3157 23.1603 26.3644C23.2779 26.4132 23.4039 26.4383 23.5312 26.4383C23.6586 26.4383 23.7846 26.4132 23.9022 26.3644C24.0198 26.3157 24.1267 26.2442 24.2166 26.1541L28.0916 22.2791C28.1817 22.1892 28.2532 22.0823 28.3019 21.9647C28.3507 21.8471 28.3758 21.7211 28.3758 21.5938C28.3758 21.4664 28.3507 21.3404 28.3019 21.2228C28.2532 21.1052 28.1817 20.9983 28.0916 20.9084Z" fill="black"/>
</svg>
