<svg width="224" height="224" viewBox="0 0 224 224" fill="none" xmlns="http://www.w3.org/2000/svg">
<g clip-path="url(#clip0_3394_99618)">
<path d="M177.609 191.297H170.752V184.482H150.036V177.798H143.11V184.385H101.539L101.636 184.482V177.611H108.368V170.796H115.447V163.682L115.343 163.779H122.463V177.355H135.886V170.47H129.396V163.648H136.281V157.012H143.103V163.461H150.043V142.938H156.782C156.782 138.097 156.782 133.63 156.782 129.162C161.34 129.162 165.897 129.162 170.607 129.162V122.25H177.699V129.259H191.427L191.323 129.162V149.775H198.221V156.867L198.318 156.77H191.323V177.59L191.427 177.493H184.424V184.495L184.521 184.399H177.519V191.401L177.616 191.297H177.609ZM177.401 157.068H157.108V177.362H177.401V157.068ZM177.422 136.282H163.951V143.146H170.738V149.705H177.415V136.282H177.422Z" fill="white"/>
<path d="M149.884 46.3969H156.748V66.8914C159.206 67.0022 161.326 67.0922 163.674 67.2031V73.7206H170.607V67.2308H177.422V73.7483H184.355V67.3208H191.281V94.4783H198.201V88.0231H205.134V94.5753H211.838V108.435H198.235L198.332 108.538V101.64C193.359 101.64 188.892 101.64 184.425 101.64V94.7277H177.512V87.8292C174.95 87.8292 172.782 87.8292 170.614 87.8292V81.1108H163.798V87.8292H156.727V73.9145H149.891L149.988 74.0115V66.9399H143.089V60.1107L142.992 60.2076H149.988V46.293L149.891 46.3969H149.884Z" fill="white"/>
<path d="M59.9729 12.0547V59.9768H12.0508V12.0547H59.9729ZM52.9775 53.0992V19.0016H18.88V53.0992H52.9775Z" fill="white"/>
<path d="M163.902 59.9083V12H211.824V59.9083H163.902ZM204.94 53.0999V19.0024H170.835V53.0999H204.94Z" fill="white"/>
<path d="M59.9807 163.973V211.874H12.0586V163.973H59.9807ZM18.8739 170.788V204.948H52.9853V170.788H18.8739Z" fill="white"/>
<path d="M18.631 108.452V115.288H32.4348V122.118H39.2225V115.531H46.3772C46.3772 112.94 46.3772 110.696 46.3772 108.445L46.2733 108.542H66.9964V115.448L67.0934 115.344H53.4627V122.166H59.8625V129.099H39.4649V135.942H25.7511V129.432H18.7003V156.679H12.0234V108.563H18.7349L18.6379 108.466L18.631 108.452Z" fill="white"/>
<path d="M122.342 115.339H115.485V108.683H101.668V115.139H94.7414V108.67H87.9399V122.051H67.0852C67.0852 119.835 67.0852 117.584 67.0852 115.339L66.9883 115.443H80.896V101.536L80.7991 101.633H101.709V94.8449H108.518V101.342H115.34V80.8125H136.229V74.011H149.971L149.874 73.9141V80.9857H143.065C143.065 83.4999 143.065 85.6608 143.065 87.8149C136.222 87.8149 129.379 87.8149 122.522 87.8149V101.529H129.255C129.255 103.863 129.255 106.197 129.255 108.524C126.997 108.524 124.739 108.524 122.245 108.524V115.43L122.342 115.326V115.339Z" fill="white"/>
<path d="M53.2827 74.0105V67.2852H87.7127V74.0105L87.8166 73.9135H81.1051V87.8212H94.722L94.625 87.7243V94.7959H80.8073V101.632L80.9042 101.535H67.2735V87.5996H73.7703V80.812H66.9134V73.9135H53.1719L53.2758 74.0105H53.2827Z" fill="white"/>
<path d="M136.07 18.664C138.404 18.6987 140.731 18.7402 143.065 18.7748L142.968 18.6709V39.4841L143.065 39.3871H115.34L115.444 39.4841V12.0703H136.167C136.167 14.2659 136.167 16.51 136.167 18.761C131.616 18.761 127.066 18.761 122.55 18.761V25.7149H129.241V32.2947H136.07V18.664Z" fill="white"/>
<path d="M108.539 67.1052C108.497 57.9142 108.456 48.7163 108.421 39.5183L108.324 39.6291C110.7 39.5807 113.076 39.5322 115.444 39.4837L115.34 39.3867V46.4583H122.35C122.35 48.9725 122.35 51.1335 122.35 53.2875C120.106 53.2875 117.855 53.2875 115.624 53.2875V60.1029H122.35V67.1676H128.943V74.0106C124.234 74.0106 119.794 74.0106 115.347 74.0106C115.347 71.7527 115.347 69.5017 115.347 67.0013H108.435L108.539 67.0983V67.1052Z" fill="white"/>
<path d="M46.2828 74.0249C48.6169 74.0249 50.9511 74.018 53.2782 74.011L53.1744 73.9141V81.0203H59.9551V87.8287H53.4653V94.7549H59.9274V101.674H46.262V108.538L46.3659 108.441C44.205 108.441 42.0371 108.441 39.6406 108.441V94.7618H46.3729V73.921L46.2759 74.018L46.2828 74.0249Z" fill="white"/>
<path d="M115.445 163.682H81.1055V150.134H87.6507V156.569H101.635V149.878L101.538 149.975C103.865 149.975 106.199 149.975 108.526 149.975L108.429 149.871V156.873H115.432L115.335 156.776C115.335 159.111 115.335 161.445 115.335 163.779L115.438 163.682H115.445Z" fill="white"/>
<path d="M80.7999 177.5C80.7999 179.827 80.7999 182.161 80.7999 184.488L80.9038 184.392H74.1854V191.394H80.9038L80.7999 191.297V198.292L80.8899 198.195H74.0122V211.881H67.3008V177.597H80.8968L80.7999 177.5Z" fill="white"/>
<path d="M101.539 184.387V191.257H122.102V198.094H94.8272V191.306H80.8086L80.9125 191.403V184.401L80.8086 184.498C87.7555 184.498 94.6956 184.498 101.643 184.491L101.546 184.394L101.539 184.387Z" fill="white"/>
<path d="M87.7081 18.6838V25.5545H80.969V39.1714H67.269V32.6469H73.6896V25.7069H67.2344V18.8846H73.8766V12H80.6988V18.7807H87.812L87.715 18.6838H87.7081Z" fill="white"/>
<path d="M46.3779 73.9209H32.5879V80.6809H25.7587V74.0387H11.9688V67.3203H46.281C46.281 69.509 46.281 71.7669 46.281 74.0179L46.3779 73.9209Z" fill="white"/>
<path d="M205.133 177.502C205.133 179.829 205.133 182.163 205.133 184.491L205.237 184.394H198.235V191.396L198.332 191.292H191.503V198.031H177.609C177.609 195.773 177.609 193.529 177.609 191.292L177.512 191.396H184.514V184.394L184.417 184.491H191.419V177.488L191.316 177.585C195.949 177.585 200.59 177.592 205.223 177.599L205.126 177.502H205.133Z" fill="white"/>
<path d="M108.535 149.977V143.162H115.295V136.166H122.353L122.256 136.062V142.968H129.265V156.779H115.351L115.448 156.876V149.873H108.445L108.542 149.977H108.535Z" fill="white"/>
<path d="M74.139 143.175C74.0351 141.007 73.9382 138.84 73.8204 136.312H67.2891V129.136C78.6688 129.136 90.0761 129.136 101.497 129.136L101.387 129.039V136.111H80.9475V143.085C78.4956 143.085 76.2654 143.085 74.0282 143.085L74.139 143.182V143.175Z" fill="white"/>
<path d="M18.7287 108.551V94.7683H11.9688V88.043H25.5163V101.466H32.2416V108.454C27.7535 108.454 23.1961 108.454 18.6386 108.454L18.7356 108.551H18.7287Z" fill="white"/>
<path d="M156.781 198.215C156.781 200.543 156.781 202.87 156.781 205.197L156.878 205.1C149.945 205.1 143.012 205.1 136.079 205.1L136.176 205.197V198.34H129.402V191.504H142.881V198.305H156.878L156.781 198.208V198.215Z" fill="white"/>
<path d="M39.5778 149.727C37.4099 149.831 35.2351 149.928 32.7001 150.045V156.584H25.8086V143.195H39.4878C39.4878 145.529 39.4878 147.677 39.4878 149.838L39.5847 149.727H39.5778Z" fill="white"/>
<path d="M198.531 67.2227H205.097V73.8371H211.885V80.701H198.531V67.2227Z" fill="white"/>
<path d="M87.7148 74.0101C92.3554 74.0101 96.989 74.0101 101.63 74.0101L101.533 73.9062V87.717H94.6272L94.7241 87.814V80.7424H87.8187V73.9062L87.7148 74.0032V74.0101Z" fill="white"/>
<path d="M149.883 18.7727H156.608V39.385H149.883L149.98 39.4889V18.6758L149.883 18.7797V18.7727Z" fill="white"/>
<path d="M101.613 32.473H94.597C94.597 27.8464 94.597 23.3236 94.597 18.8008L94.5 18.9116H108.311V25.4776H101.509V32.57L101.606 32.473H101.613Z" fill="white"/>
<path d="M122.345 129.148C115.364 129.113 108.375 129.078 101.387 129.044C101.387 129.044 101.498 129.141 101.491 129.134C101.491 126.98 101.491 124.826 101.491 122.346H122.345L122.248 122.242C122.248 124.576 122.248 126.91 122.248 129.245L122.345 129.141V129.148Z" fill="white"/>
<path d="M59.9398 149.762V156.661H39.5631C39.5631 154.243 39.5631 151.992 39.5631 149.734C39.5631 149.734 39.4661 149.845 39.473 149.838C46.3299 149.838 53.1868 149.845 60.0437 149.852L59.9329 149.755L59.9398 149.762Z" fill="white"/>
<path d="M60.0977 143.071C64.7729 143.105 69.4549 143.133 74.137 143.174C74.137 143.174 74.0262 143.077 74.0331 143.084C74.0331 145.225 74.0331 147.358 74.0331 149.768C69.1433 149.768 64.5443 149.768 59.9453 149.768C59.9453 149.768 60.0561 149.865 60.0492 149.858C60.0908 147.566 60.1392 145.273 60.1947 142.98L60.0977 143.077V143.071Z" fill="white"/>
<path d="M156.773 205.198H170.39V211.833H156.87C156.87 209.582 156.87 207.338 156.87 205.094L156.773 205.191V205.198Z" fill="white"/>
<path d="M198.337 205.198C198.337 200.564 198.33 195.93 198.324 191.297L198.227 191.401H205.229L205.125 191.304V205.101H198.233L198.33 205.198H198.337Z" fill="white"/>
<path d="M101.384 39.2765V46.2857H87.7188L87.8157 46.3827V39.3665C92.4424 39.3665 96.9652 39.3665 101.488 39.3665L101.377 39.2695L101.384 39.2765Z" fill="white"/>
<path d="M73.8185 46.6094V59.9422H67.2109V46.6094H73.8185Z" fill="white"/>
<path d="M80.8977 177.596V170.871H94.4453V177.499C89.881 177.499 85.3443 177.499 80.8008 177.499L80.8977 177.596Z" fill="white"/>
<path d="M87.7203 46.2852V59.8951H81.0781V46.3821C83.3291 46.3821 85.5732 46.3821 87.8173 46.3821L87.7203 46.2852Z" fill="white"/>
<path d="M101.614 66.9995H94.9023V53.4727H101.517V67.0964L101.614 66.9995Z" fill="white"/>
<path d="M198.219 156.87H211.836V163.505H198.316C198.316 161.261 198.316 159.01 198.316 156.766L198.219 156.863V156.87Z" fill="white"/>
<path d="M73.765 170.477H67.2891V157.047H73.765V170.477Z" fill="white"/>
<path d="M198.243 205.102V211.827H184.695V205.199C189.26 205.199 193.796 205.199 198.34 205.199L198.243 205.102Z" fill="white"/>
<path d="M60.195 142.975H46.5781V136.34H60.098C60.098 138.584 60.098 140.835 60.098 143.079L60.195 142.982V142.975Z" fill="white"/>
<path d="M198.226 122.25V129.155C195.829 129.155 193.571 129.155 191.32 129.155L191.424 129.252C191.39 126.918 191.355 124.584 191.32 122.25C193.654 122.285 195.995 122.312 198.33 122.347L198.226 122.25Z" fill="white"/>
<path d="M122.343 136.166C122.343 133.831 122.343 131.49 122.343 129.156L122.246 129.26C124.58 129.226 126.914 129.191 129.248 129.156C129.248 131.49 129.248 133.831 129.248 136.166C126.914 136.131 124.58 136.096 122.246 136.062L122.343 136.166Z" fill="white"/>
<path d="M212.029 129.406V135.848H205.422V129.406H212.029Z" fill="white"/>
<path d="M101.516 67.0961C103.857 67.0961 106.198 67.0961 108.539 67.0961L108.435 66.9991C108.47 69.3332 108.497 71.6673 108.532 74.0084C106.198 73.9738 103.864 73.9391 101.529 73.9045L101.626 74.0084C101.626 71.6673 101.626 69.3332 101.62 66.9922L101.523 67.0892L101.516 67.0961Z" fill="white"/>
<path d="M198.233 115.449H204.952V122.257C202.722 122.257 200.471 122.257 198.227 122.257L198.33 122.354V115.352L198.233 115.455V115.449Z" fill="white"/>
<path d="M101.636 149.881H94.918V143.246H101.539C101.539 145.497 101.539 147.741 101.539 149.985L101.636 149.888V149.881Z" fill="white"/>
<path d="M122.343 122.353C122.343 120.019 122.343 117.678 122.343 115.344L122.246 115.448C124.58 115.413 126.914 115.378 129.248 115.344C129.248 117.678 129.248 120.019 129.248 122.353C126.914 122.318 124.58 122.284 122.246 122.249L122.343 122.353Z" fill="white"/>
<path d="M198.233 108.433C198.233 110.767 198.233 113.108 198.233 115.442L198.33 115.338C195.995 115.373 193.654 115.4 191.32 115.435V108.53H198.33L198.233 108.426V108.433Z" fill="white"/>
<path d="M205.23 177.597V170.879H211.872V177.5C209.621 177.5 207.377 177.5 205.133 177.5L205.23 177.597Z" fill="white"/>
<path d="M149.882 39.3858C149.882 41.72 149.882 44.061 149.882 46.3951L149.979 46.2912H143.074V39.3858L142.977 39.4828C145.311 39.4828 147.645 39.4828 149.979 39.4828L149.882 39.3789V39.3858Z" fill="white"/>
<path d="M101.519 32.5726H108.335C108.335 34.976 108.335 37.2963 108.335 39.6235C108.335 39.6235 108.432 39.5127 108.425 39.5196C106.084 39.4434 103.743 39.3603 101.395 39.2772C101.395 39.2772 101.505 39.3741 101.498 39.3672C101.533 37.0677 101.575 34.7682 101.616 32.4688L101.519 32.5657V32.5726Z" fill="white"/>
<path d="M205.133 184.488H211.858V191.304C209.628 191.304 207.384 191.304 205.133 191.304L205.237 191.401C205.237 189.067 205.237 186.733 205.237 184.398L205.133 184.495V184.488Z" fill="white"/>
<path d="M143.067 18.7731V12.0547H149.882C149.882 14.2849 149.882 16.529 149.882 18.7731L149.979 18.6692H142.977L143.074 18.7731H143.067Z" fill="white"/>
<path d="M156.878 198.312V191.594H163.52V198.215C161.269 198.215 159.025 198.215 156.781 198.215L156.878 198.312Z" fill="white"/>
<path d="M80.793 198.291H87.5113V204.927H80.8899C80.8899 202.676 80.8899 200.432 80.8899 198.188L80.793 198.284V198.291Z" fill="white"/>
<path d="M108.285 211.998H101.844V205.391H108.285V211.998Z" fill="white"/>
<path d="M122.142 205.391V211.887H115.652V205.391H122.142Z" fill="white"/>
<path d="M136.072 205.102V211.82H129.43V205.199C131.681 205.199 133.925 205.199 136.169 205.199L136.072 205.102Z" fill="white"/>
<path d="M87.804 18.7796V12.082H94.5155C94.5155 14.2707 94.5155 16.591 94.5155 18.9112C94.5155 18.9112 94.6124 18.8004 94.6055 18.8073C92.306 18.7727 90.0065 18.7312 87.707 18.6896L87.804 18.7866V18.7796Z" fill="white"/>
<path d="M143.073 122.348C143.038 120.014 143.003 117.68 142.969 115.346H149.812V101.535H156.883V115.263H170.701V122.348C166.234 122.348 161.766 122.348 156.883 122.348V129.254C154.549 129.219 152.215 129.184 149.881 129.15L149.978 129.254V122.251H142.976L143.08 122.348H143.073Z" fill="white"/>
<path d="M129.159 136.062C133.793 136.062 138.433 136.062 143.067 136.062V149.659H136.224V143.065H129.152C129.152 140.731 129.152 138.397 129.152 136.062H129.159Z" fill="white"/>
<path d="M142.972 136.158C143.006 133.824 143.041 131.489 143.076 129.155L142.972 129.252C145.306 129.252 147.64 129.252 149.974 129.252L149.877 129.148C149.877 131.316 149.877 133.484 149.877 136.158H142.965H142.972Z" fill="white"/>
<path d="M177.512 101.535H184.514V115.443H177.512V101.535Z" fill="white"/>
<path d="M191.42 115.344V122.346H184.418V115.344H191.42Z" fill="white"/>
<path d="M156.789 101.631V94.7328C159.282 94.7328 161.533 94.7328 163.791 94.7328L163.694 94.6289C163.694 96.963 163.694 99.2971 163.694 101.631L163.791 101.527C161.457 101.562 159.123 101.597 156.789 101.631Z" fill="white"/>
<path d="M177.608 94.6289V101.631C175.274 101.597 172.94 101.562 170.605 101.527L170.702 101.631V94.6289L170.605 94.7328C172.94 94.6982 175.274 94.6635 177.608 94.6289Z" fill="white"/>
<path d="M170.604 101.527V108.246H163.788C163.788 106.016 163.788 103.771 163.788 101.527L163.691 101.631C166.026 101.631 168.36 101.631 170.694 101.631L170.597 101.527H170.604Z" fill="white"/>
<path d="M170.494 163.961V170.458H164.004V163.961H170.494Z" fill="white"/>
<path d="M108.438 73.9141C110.772 73.9141 113.106 73.9141 115.44 73.9141V80.9164H108.438V73.9141Z" fill="white"/>
<path d="M143.082 60.1079H136.363V53.4727H142.985C142.985 55.7237 142.985 57.9677 142.985 60.2118L143.082 60.1149V60.1079Z" fill="white"/>
<path d="M122.254 60.1977V53.1953H128.972V60.1977H122.254Z" fill="white"/>
<path d="M143.068 115.444C138.434 115.444 133.794 115.444 129.16 115.444V108.441H143.068V115.444Z" fill="white"/>
<path d="M129.16 101.631V94.6289H143.068V101.631H129.16Z" fill="white"/>
<path d="M163.691 87.7227H170.694C170.659 90.0568 170.631 92.3909 170.597 94.7319L170.694 94.628C168.36 94.628 166.026 94.628 163.691 94.628L163.788 94.7319C163.754 92.3978 163.726 90.0637 163.691 87.7227Z" fill="white"/>
<path d="M142.969 94.725V87.7227H149.687V94.725H142.969Z" fill="white"/>
<path d="M25.7383 46.0902V25.8242H46.1566V46.0902H25.7383Z" fill="white"/>
<path d="M198.13 25.875V46.1548H177.836V25.875H198.13Z" fill="white"/>
<path d="M25.8438 177.695H46.1443V197.982H25.8438V177.695Z" fill="white"/>
<path d="M129.16 122.25C133.801 122.285 138.434 122.312 143.075 122.347L142.971 122.25V129.252L143.075 129.155C138.434 129.19 133.801 129.218 129.16 129.252V122.25Z" fill="white"/>
</g>
<defs>
<clipPath id="clip0_3394_99618">
<rect width="200.062" height="200" fill="white" transform="translate(11.9688 12)"/>
</clipPath>
</defs>
</svg>
