<svg width="49" height="49" viewBox="0 0 49 49" fill="none" xmlns="http://www.w3.org/2000/svg">
<rect x="1" y="1" width="47" height="47" rx="11.5" fill="#FF603B"/>
<rect x="1" y="1" width="47" height="47" rx="11.5" stroke="black"/>
<path d="M24.5 13.2766V24.5008C24.5 24.7577 24.3979 25.0041 24.2163 25.1858C24.0346 25.3675 23.7882 25.4695 23.5312 25.4695C23.2743 25.4695 23.0279 25.3675 22.8462 25.1858C22.6646 25.0041 22.5625 24.7577 22.5625 24.5008V13.2766L20.3416 15.4987C20.1599 15.6804 19.9133 15.7826 19.6562 15.7826C19.3992 15.7826 19.1526 15.6804 18.9709 15.4987C18.7891 15.3169 18.687 15.0703 18.687 14.8133C18.687 14.5562 18.7891 14.3096 18.9709 14.1279L22.8459 10.2529C22.9358 10.1628 23.0427 10.0913 23.1603 10.0426C23.2779 9.99384 23.4039 9.96875 23.5312 9.96875C23.6586 9.96875 23.7846 9.99384 23.9022 10.0426C24.0198 10.0913 24.1267 10.1628 24.2166 10.2529L28.0916 14.1279C28.2734 14.3096 28.3755 14.5562 28.3755 14.8133C28.3755 15.0703 28.2734 15.3169 28.0916 15.4987C27.9099 15.6804 27.6633 15.7826 27.4062 15.7826C27.1492 15.7826 26.9026 15.6804 26.7209 15.4987L24.5 13.2766ZM32.25 23.9704V20.6258C32.25 20.1119 32.0459 19.6191 31.6825 19.2557C31.3192 18.8924 30.8264 18.6883 30.3125 18.6883H28.375C28.1181 18.6883 27.8717 18.7903 27.69 18.972C27.5083 19.1537 27.4062 19.4001 27.4062 19.657C27.4062 19.9139 27.5083 20.1603 27.69 20.342C27.8717 20.5237 28.1181 20.6258 28.375 20.6258H30.3125V30.3617C29.7348 29.7715 28.9615 29.4125 28.1379 29.352C27.3142 29.2915 26.4968 29.5337 25.8391 30.0332C25.1814 30.5326 24.7285 31.2549 24.5656 32.0646C24.4026 32.8742 24.5408 33.7155 24.9541 34.4305L24.9832 34.4765L27.6787 38.5937C27.8194 38.8087 28.0397 38.959 28.2912 39.0116C28.5427 39.0642 28.8048 39.0147 29.0198 38.874C29.2348 38.7333 29.3852 38.513 29.4377 38.2615C29.4903 38.01 29.4408 37.7479 29.3002 37.5329L26.6204 33.4411C26.4304 33.1057 26.3815 32.7085 26.4843 32.337C26.5872 31.9654 26.8335 31.65 27.1689 31.46C27.5044 31.2701 27.9015 31.2211 28.2731 31.324C28.6446 31.4269 28.96 31.6731 29.15 32.0086C29.1585 32.0243 29.1682 32.0401 29.1779 32.0546L30.4711 34.0296C30.5855 34.204 30.753 34.3368 30.9488 34.4083C31.1446 34.4799 31.3583 34.4864 31.5581 34.4268C31.7578 34.3672 31.9331 34.2448 32.0577 34.0777C32.1824 33.9106 32.2498 33.7077 32.25 33.4992V26.4383C33.1631 27.2835 33.8924 28.3077 34.3924 29.4471C34.8924 30.5865 35.1524 31.8166 35.1562 33.0609V38.0633C35.1562 38.3202 35.2583 38.5666 35.44 38.7483C35.6217 38.93 35.8681 39.032 36.125 39.032C36.3819 39.032 36.6283 38.93 36.81 38.7483C36.9917 38.5666 37.0938 38.3202 37.0938 38.0633V33.056C37.0883 31.2615 36.6441 29.4955 35.7998 27.9119C34.9556 26.3283 33.7369 24.9752 32.25 23.9704ZM18.6875 18.6883H16.75C16.2361 18.6883 15.7433 18.8924 15.38 19.2557C15.0166 19.6191 14.8125 20.1119 14.8125 20.6258V33.2195C14.8125 33.4764 14.9146 33.7229 15.0962 33.9045C15.2779 34.0862 15.5243 34.1883 15.7812 34.1883C16.0382 34.1883 16.2846 34.0862 16.4663 33.9045C16.6479 33.7229 16.75 33.4764 16.75 33.2195V20.6258H18.6875C18.9444 20.6258 19.1908 20.5237 19.3725 20.342C19.5542 20.1603 19.6562 19.9139 19.6562 19.657C19.6562 19.4001 19.5542 19.1537 19.3725 18.972C19.1908 18.7903 18.9444 18.6883 18.6875 18.6883Z" fill="black"/>
</svg>
