<svg width="40" height="40" viewBox="0 0 40 40" fill="none" xmlns="http://www.w3.org/2000/svg">
<rect x="0.8" y="0.8" width="38.4" height="38.4" rx="19.2" stroke="#FF0000" stroke-width="1.6"/>
<path d="M29.75 26.6234V30.5C29.75 30.6989 29.671 30.8897 29.5303 31.0303C29.3897 31.171 29.1989 31.25 29 31.25C28.8011 31.25 28.6103 31.171 28.4697 31.0303C28.329 30.8897 28.25 30.6989 28.25 30.5V26.6234C28.2465 25.6608 28.0449 24.7091 27.6579 23.8277C27.2708 22.9463 26.7065 22.154 26 21.5V26.9703C25.9999 27.1317 25.9477 27.2888 25.8512 27.4181C25.7546 27.5475 25.619 27.6423 25.4643 27.6884C25.3096 27.7345 25.1442 27.7295 24.9926 27.6741C24.841 27.6187 24.7113 27.5159 24.6228 27.3809L23.6216 25.8519C23.6141 25.8406 23.6066 25.8284 23.6 25.8162C23.4529 25.5565 23.2087 25.3659 22.9211 25.2863C22.6334 25.2066 22.326 25.2445 22.0662 25.3916C21.8065 25.5386 21.6159 25.7828 21.5363 26.0705C21.4566 26.3581 21.4945 26.6656 21.6416 26.9253L23.7162 30.0931C23.8252 30.2596 23.8635 30.4625 23.8228 30.6572C23.7821 30.8519 23.6657 31.0225 23.4992 31.1314C23.3328 31.2403 23.1298 31.2786 22.9351 31.2379C22.7404 31.1972 22.5698 31.0808 22.4609 30.9144L20.3741 27.7269L20.3516 27.6912C20.0285 27.1376 19.9192 26.485 20.0442 25.8563C20.1692 25.2277 20.5199 24.6665 21.0301 24.2786C21.5404 23.8906 22.175 23.7028 22.8141 23.7505C23.4533 23.7982 24.053 24.0781 24.5 24.5375V14H23C22.8011 14 22.6103 13.921 22.4697 13.7803C22.329 13.6397 22.25 13.4489 22.25 13.25C22.25 13.0511 22.329 12.8603 22.4697 12.7197C22.6103 12.579 22.8011 12.5 23 12.5H24.5C24.8978 12.5 25.2794 12.658 25.5607 12.9393C25.842 13.2206 26 13.6022 26 14V19.5894C27.1512 20.3673 28.0946 21.4149 28.7482 22.6409C29.4018 23.8669 29.7458 25.2341 29.75 26.6234ZM16.25 13.25C16.25 13.0511 16.171 12.8603 16.0303 12.7197C15.8897 12.579 15.6989 12.5 15.5 12.5H14C13.6022 12.5 13.2206 12.658 12.9393 12.9393C12.658 13.2206 12.5 13.6022 12.5 14V26.75C12.5 26.9489 12.579 27.1397 12.7197 27.2803C12.8603 27.421 13.0511 27.5 13.25 27.5C13.4489 27.5 13.6397 27.421 13.7803 27.2803C13.921 27.1397 14 26.9489 14 26.75V14H15.5C15.6989 14 15.8897 13.921 16.0303 13.7803C16.171 13.6397 16.25 13.4489 16.25 13.25ZM22.7806 17.2194C22.711 17.1496 22.6283 17.0943 22.5372 17.0566C22.4462 17.0188 22.3486 16.9994 22.25 16.9994C22.1514 16.9994 22.0538 17.0188 21.9628 17.0566C21.8717 17.0943 21.789 17.1496 21.7194 17.2194L20 18.9397V9.5C20 9.30109 19.921 9.11032 19.7803 8.96967C19.6397 8.82902 19.4489 8.75 19.25 8.75C19.0511 8.75 18.8603 8.82902 18.7197 8.96967C18.579 9.11032 18.5 9.30109 18.5 9.5V18.9397L16.7806 17.2194C16.6399 17.0786 16.449 16.9996 16.25 16.9996C16.051 16.9996 15.8601 17.0786 15.7194 17.2194C15.5786 17.3601 15.4996 17.551 15.4996 17.75C15.4996 17.949 15.5786 18.1399 15.7194 18.2806L18.7194 21.2806C18.789 21.3504 18.8717 21.4057 18.9628 21.4434C19.0538 21.4812 19.1514 21.5006 19.25 21.5006C19.3486 21.5006 19.4462 21.4812 19.5372 21.4434C19.6283 21.4057 19.711 21.3504 19.7806 21.2806L22.7806 18.2806C22.8504 18.211 22.9057 18.1283 22.9434 18.0372C22.9812 17.9462 23.0006 17.8486 23.0006 17.75C23.0006 17.6514 22.9812 17.5538 22.9434 17.4628C22.9057 17.3717 22.8504 17.289 22.7806 17.2194Z" fill="black"/>
</svg>
