<svg width="23" height="22" viewBox="0 0 23 22" fill="none" xmlns="http://www.w3.org/2000/svg">
<path d="M12.1204 4.79544H3.7443C3.21538 4.79546 2.70813 5.00559 2.33413 5.3796C1.96013 5.75361 1.75001 6.26086 1.75 6.78978V18.7557C1.75001 19.2846 1.96013 19.7919 2.33413 20.1659C2.70813 20.5399 3.21538 20.75 3.7443 20.75H15.7102C15.9721 20.75 16.2315 20.6985 16.4735 20.5983C16.7154 20.4981 16.9353 20.3512 17.1205 20.166C17.3057 19.9808 17.4526 19.7609 17.5528 19.5189C17.653 19.277 17.7046 19.0176 17.7046 18.7557V10.3796M15.0454 1.25H21.25M21.25 1.25V7.45456M21.25 1.25L9.625 12.875" stroke="#FF603B" stroke-width="2" stroke-linecap="round" stroke-linejoin="round"/>
</svg>
