<svg width="24" height="24" viewBox="0 0 24 24" fill="none" xmlns="http://www.w3.org/2000/svg">
<path d="M8.6575 16.5865C8.65269 16.762 8.52288 16.9567 8.40028 17.101C8.19835 17.339 7.91709 17.5193 7.7416 17.7717C7.53486 18.0673 7.28486 18.1299 6.96513 18.1058C6.84013 18.0986 6.71271 18.1058 6.5829 18.1106C6.31125 18.1154 6.18145 18.2621 6.18145 18.5289C6.18145 18.8462 6.17663 19.1611 6.17663 19.4785C6.17663 20.6516 6.17663 21.8223 6.17663 22.993C6.17663 23.2695 6.17182 23.5315 6.47472 23.6854C6.53241 23.7142 6.51559 23.8849 6.53482 23.9907C6.43626 23.9907 6.26558 24.0171 6.25115 23.981C6.06124 23.5267 5.66699 23.6277 5.31602 23.6204C4.6934 23.6132 4.60687 23.5339 4.60446 22.8993C4.59966 21.6973 4.60446 20.4953 4.59965 19.291C4.59965 18.7068 4.57562 18.6804 4.0179 18.5914C3.59962 18.5265 3.44336 18.1299 3.15729 17.8967C2.89045 17.6803 2.69574 17.3726 2.4265 17.1611C2.1861 16.9736 2.10196 16.7692 2.10436 16.4759C2.11638 15.399 2.14043 14.322 2.09716 13.2475C2.07312 12.6946 2.50342 12.5022 2.76785 12.1729C2.7991 12.1344 2.95296 12.132 2.9818 12.1681C3.22941 12.4878 3.66692 12.6489 3.64769 13.185C3.60682 14.2932 3.63567 15.4014 3.63567 16.5072C3.63567 16.7788 3.68135 17.0144 4.0179 17.0625C4.43619 17.1202 4.59725 16.976 4.59965 16.4904C4.60446 14.6393 4.63571 12.7835 4.58042 10.9349C4.56359 10.3219 4.93379 10.0286 5.25592 9.66078C5.29679 9.6151 5.50112 9.64395 5.57084 9.70645C5.97229 10.0767 6.23914 10.4829 6.19106 11.0983C6.12134 11.9301 6.17423 12.7763 6.17423 13.6129C6.17423 14.5937 6.16942 15.5769 6.17904 16.5577C6.18385 16.9928 6.41703 17.1587 6.8257 17.0505C7.12619 16.9688 7.14061 16.7332 7.14061 16.4856C7.14061 15.4879 7.18869 14.4879 7.12379 13.4951C7.08773 12.9301 7.33053 12.5744 7.69833 12.2378C7.75843 12.1825 7.869 12.1416 7.94833 12.1537C8.15748 12.1873 8.66711 12.846 8.66711 13.072C8.67192 14.2427 8.67913 15.4134 8.6575 16.5841V16.5865Z" fill="#909D45"/>
<path d="M21.897 12.4019C21.897 12.7072 21.8105 12.914 21.5677 13.1327C20.9931 13.6472 20.4522 14.2049 19.933 14.7746C19.7503 14.9741 19.5676 15.0462 19.3152 15.0438C19.0147 15.0366 18.7142 15.0342 18.4113 15.0438C18.0098 15.0583 17.9041 15.1592 17.8921 15.5559C17.88 15.9646 17.8872 16.378 17.8872 16.7915V22.8206C17.8872 22.948 17.8632 23.0826 17.8993 23.2004C17.9329 23.3206 18.0267 23.424 18.0964 23.537C18.1901 23.4672 18.2815 23.3999 18.3776 23.3326C18.4714 23.2653 18.5627 23.1908 18.6661 23.1451C18.6902 23.1355 18.8176 23.2701 18.8055 23.2966C18.7575 23.3999 18.6757 23.4865 18.6012 23.5778C18.582 23.5995 18.5339 23.6019 18.5219 23.6259C18.2791 24.0538 18.0459 24.1788 17.7454 23.6572C17.6973 23.573 17.4521 23.5874 17.2983 23.5874C16.1901 23.5826 15.0794 23.5874 13.9712 23.5826C13.7453 23.5826 13.4159 23.6331 13.4159 23.3086C13.4159 23.0273 13.7236 23.049 13.9424 23.0369C14.214 23.0225 14.3438 22.8831 14.3583 22.6187C14.3631 22.5081 14.3655 22.3975 14.3655 22.2869V13.3106C14.3655 12.6062 14.3126 12.5558 13.6082 12.5534C13.3871 12.5534 13.1587 12.5173 12.9447 12.5606C12.2139 12.7048 11.7644 12.301 11.3413 11.8057C11.1154 11.5437 10.8798 11.2841 10.6105 11.0701C10.3845 10.8898 10.3124 10.6807 10.3124 10.4139C10.3124 8.30801 10.3124 6.20216 10.3076 4.09871C10.3076 3.81986 10.4134 3.63235 10.6298 3.45446C10.9038 3.22849 11.1033 2.98088 11.536 2.95204C12.1635 2.90876 12.4423 3.32465 12.7813 3.67322C12.8774 3.77178 12.8582 4.00015 12.8582 4.17324C12.863 5.86561 12.8582 7.56038 12.863 9.25276C12.863 9.49796 12.7789 9.85374 13.0698 9.92105C13.4207 10.0052 13.8126 9.95951 14.178 9.90663C14.2573 9.89461 14.3486 9.61816 14.3534 9.4619C14.3751 8.86092 14.3631 8.25993 14.3631 7.65895C14.3631 5.49059 14.3631 3.32224 14.3631 1.15389C14.3631 0.487998 14.8463 0.00240394 15.5049 0C15.9016 0 16.2982 0 16.6925 0C17.3824 0.00480788 17.8872 0.519251 17.8896 1.2188C17.8896 3.14916 17.8896 5.08192 17.8896 7.01229V12.8082C17.8896 13.4909 17.9233 13.5197 18.6253 13.5197C18.7358 13.5197 18.8488 13.5197 18.9594 13.5149C19.207 13.5029 19.332 13.3707 19.3416 13.1255C19.3464 12.9837 19.3464 12.8394 19.3464 12.6976C19.3464 10.7192 19.3657 8.74072 19.3392 6.76228C19.3272 5.84878 20.3032 5.28626 21.1422 5.5579C21.4859 5.66848 21.8994 6.2887 21.8994 6.66371C21.8994 8.57965 21.8946 10.4932 21.9042 12.4091L21.897 12.4019Z" fill="#909D45"/>
</svg>
