<svg width="29" height="29" viewBox="0 0 29 29" fill="none" xmlns="http://www.w3.org/2000/svg">
<g id="Group 214">
<rect id="Rectangle 4" x="0.304688" y="4.73438" width="20" height="24" rx="3" fill="#DADCC0"/>
<path id="Intersect" fill-rule="evenodd" clip-rule="evenodd" d="M11.6332 4.73438H17.3047C18.9615 4.73438 20.3047 6.07752 20.3047 7.73438V16.5927C19.3574 17.0249 18.3045 17.2656 17.1953 17.2656C13.0532 17.2656 9.69531 13.9078 9.69531 9.76562C9.69531 7.82962 10.4289 6.06495 11.6332 4.73438Z" fill="#C2D170"/>
<path id="Icon" d="M27.6953 21.2656L22.862 16.4323M25.4731 10.1545C25.4731 15.0637 21.4934 19.0434 16.5842 19.0434C11.675 19.0434 7.69531 15.0637 7.69531 10.1545C7.69531 5.24532 11.675 1.26562 16.5842 1.26562C21.4934 1.26562 25.4731 5.24532 25.4731 10.1545Z" stroke="#909D45" stroke-width="2.5" stroke-linecap="round" stroke-linejoin="round"/>
</g>
</svg>
