<svg width="590" height="104" viewBox="0 0 590 104" fill="none" xmlns="http://www.w3.org/2000/svg">
<path d="M65.2434 104H0.490355V97.5563H13.4173V6.87038H0.490355V0.387169H65.2434V6.87038H26.3837V97.5563H65.2434V104ZM78.2099 97.5563H65.2434V91.0731H71.7266V84.5899H78.2099V71.6235H84.6535V32.7637H78.2099V19.8368H71.7266V13.3536H65.2434V6.87038H78.2099V13.3536H84.6535V19.8368H91.1368V32.7637H97.62V71.6235H91.1368V84.5899H84.6535V91.0731H78.2099V97.5563ZM126.794 13.3536H113.828V0.387169H126.794V13.3536ZM133.278 104H107.384V97.5563H113.828V45.7301H107.384V39.2469H113.828V32.7637H120.311V26.2805H126.794V97.5563H133.278V104ZM168.856 104H142.963V97.5563H149.407V45.7301H142.963V39.2469H149.407V32.7637H155.89V26.2805H162.373V39.2469H168.856V45.7301H162.373V97.5563H168.856V104ZM217.441 104H191.508V97.5563H197.991V45.7301H191.508V39.2469H168.856V32.7637H197.991V39.2469H204.474V45.7301H210.958V97.5563H217.441V104ZM279.031 104H246.655V97.5563H240.172V91.0731H233.688V78.1067H227.245V58.6966H233.688V45.7301H240.172V39.2469H246.655V32.7637H279.031V39.2469H285.515V45.7301H291.998V58.6966H298.481V78.1067H291.998V91.0731H285.515V97.5563H279.031V104ZM253.138 97.5563H272.548V91.0731H279.031V78.1067H285.515V58.6966H279.031V45.7301H272.548V39.2469H253.138V45.7301H246.655V58.6966H240.172V78.1067H246.655V91.0731H253.138V97.5563ZM369.796 104H305.043V97.5563H317.97V6.87038H305.043V0.387169H369.796V6.87038H330.937V97.5563H369.796V104ZM382.763 97.5563H369.796V91.0731H376.28V84.5899H382.763V71.6235H389.206V32.7637H382.763V19.8368H376.28V13.3536H369.796V6.87038H382.763V13.3536H389.206V19.8368H395.69V32.7637H402.173V71.6235H395.69V84.5899H389.206V91.0731H382.763V97.5563ZM486.336 104H408.617V97.5563H421.543V6.87038H408.617V0.387169H479.853V13.3536H486.336V26.2805H479.853V19.8368H473.37V13.3536H466.886V6.87038H434.51V45.7301H466.886V32.7637H473.37V65.1402H466.886V52.2134H434.51V97.5563H473.37V91.0731H479.853V84.5899H486.336V78.1067H492.78V91.0731H486.336V104ZM589.751 104H550.891V97.5563H563.858V87.8315H557.375V78.1067H550.891V68.3819H544.448V58.6966H537.965V48.9717H531.481V39.2469H524.998V29.5221H518.515V19.8368H512.032V6.87038H499.144V0.387169H537.965V6.87038H524.998V16.5952H531.481V26.2805H537.965V36.0053H544.448V45.7301H550.891V55.455H557.375V65.1402H563.858V74.8651H570.341V84.5899H576.824V97.5563H589.751V104ZM576.824 16.5952H570.341V6.87038H557.375V0.387169H589.751V6.87038H576.824V16.5952ZM570.341 26.2805H563.858V16.5952H570.341V26.2805ZM563.858 36.0053H557.375V26.2805H563.858V36.0053ZM557.375 45.7301H550.891V36.0053H557.375V45.7301ZM537.965 68.3819H531.481V58.6966H537.965V68.3819ZM531.481 78.1067H524.998V68.3819H531.481V78.1067ZM524.998 87.8315H518.515V78.1067H524.998V87.8315ZM531.481 104H499.144V97.5563H512.032V87.8315H518.515V97.5563H531.481V104Z" fill="black"/>
</svg>
