<svg width="2300" height="115" viewBox="0 0 2300 115" fill="none" xmlns="http://www.w3.org/2000/svg">
<g clip-path="url(#clip0_2889_104048)">
<line x1="908.5" y1="86.2493" x2="927.667" y2="86.2494" stroke="#535353" stroke-width="3.83333"/>
<line x1="1916.67" y1="67.0833" x2="1935.83" y2="67.0833" stroke="#535353" stroke-width="3.83333"/>
<line x1="2204.17" y1="86.2493" x2="2223.33" y2="86.2494" stroke="#535353" stroke-width="3.83333"/>
<line x1="2280.83" y1="74.7493" x2="2300" y2="74.7494" stroke="#535353" stroke-width="3.83333"/>
<line x1="2142.83" y1="67.0833" x2="2204.17" y2="67.0833" stroke="#535353" stroke-width="3.83333"/>
<line x1="2227.17" y1="51.7493" x2="2246.33" y2="51.7493" stroke="#535353" stroke-width="3.83333"/>
<line x1="1541" y1="86.2493" x2="1560.17" y2="86.2494" stroke="#535353" stroke-width="3.83333"/>
<line x1="1617.67" y1="74.7493" x2="1636.83" y2="74.7494" stroke="#535353" stroke-width="3.83333"/>
<line x1="1479.67" y1="67.0833" x2="1541" y2="67.0833" stroke="#535353" stroke-width="3.83333"/>
<line x1="1564" y1="51.7493" x2="1583.17" y2="51.7493" stroke="#535353" stroke-width="3.83333"/>
<line x1="1096.33" y1="74.7493" x2="1115.5" y2="74.7494" stroke="#535353" stroke-width="3.83333"/>
<line x1="992.832" y1="67.0833" x2="1054.17" y2="67.0833" stroke="#535353" stroke-width="3.83333"/>
<line x1="1042.67" y1="51.7493" x2="1061.83" y2="51.7493" stroke="#535353" stroke-width="3.83333"/>
<line x1="444.668" y1="86.2493" x2="463.835" y2="86.2494" stroke="#535353" stroke-width="3.83333"/>
<line x1="521.332" y1="74.7493" x2="540.499" y2="74.7494" stroke="#535353" stroke-width="3.83333"/>
<line x1="383.332" y1="67.0833" x2="444.665" y2="67.0833" stroke="#535353" stroke-width="3.83333"/>
<line x1="467.668" y1="51.7493" x2="486.835" y2="51.7493" stroke="#535353" stroke-width="3.83333"/>
<line x1="61.332" y1="86.2493" x2="80.4987" y2="86.2494" stroke="#535353" stroke-width="3.83333"/>
<line x1="138" y1="74.7493" x2="157.167" y2="74.7494" stroke="#535353" stroke-width="3.83333"/>
<line y1="67.0833" x2="61.3333" y2="67.0833" stroke="#535353" stroke-width="3.83333"/>
<line x1="84.332" y1="51.7493" x2="103.499" y2="51.7493" stroke="#535353" stroke-width="3.83333"/>
<path d="M0 15.334L205.083 15.334L207 3.83398L230 3.83398L235.75 15.334L998.583 15.334L1010.08 23.0006L1025.42 17.2506L1036.92 15.334L1048.42 28.7506L1059.92 28.7506L1063.75 15.334L2300 15.334" stroke="#535353" stroke-width="3.83333"/>
</g>
<defs>
<clipPath id="clip0_2889_104048">
<rect width="2300" height="115" fill="white"/>
</clipPath>
</defs>
</svg>
