<svg width="22" height="23" viewBox="0 0 22 23" fill="none" xmlns="http://www.w3.org/2000/svg">
<g opacity="0.5">
<path fill-rule="evenodd" clip-rule="evenodd" d="M4.97917 9.57088V7.6875C4.97917 4.27024 7.74941 1.5 11.1667 1.5C14.5839 1.5 17.3542 4.27024 17.3542 7.6875V9.57088C18.3761 9.64724 19.0415 9.83983 19.5279 10.3263C20.3333 11.1318 20.3333 12.4281 20.3333 15.0208C20.3333 17.6135 20.3333 18.9099 19.5279 19.7154C18.7224 20.5208 17.426 20.5208 14.8333 20.5208H7.5C4.90727 20.5208 3.61091 20.5208 2.80546 19.7154C2 18.9099 2 17.6135 2 15.0208C2 12.4281 2 11.1318 2.80546 10.3263C3.29187 9.83983 3.95731 9.64724 4.97917 9.57088ZM6.35417 7.6875C6.35417 5.02963 8.5088 2.875 11.1667 2.875C13.8245 2.875 15.9792 5.02963 15.9792 7.6875V9.52413C15.6281 9.52083 15.2472 9.52083 14.8333 9.52083H7.5C7.08612 9.52083 6.70526 9.52083 6.35417 9.52413V7.6875Z" fill="#FF603B"/>
</g>
</svg>
