<svg width="15" height="15" viewBox="0 0 15 15" fill="none" xmlns="http://www.w3.org/2000/svg">
<path d="M4.135 13.125C3.855 13.125 3.61667 13.0267 3.42 12.83C3.22333 12.6333 3.125 12.3952 3.125 12.1156V6.63437C3.125 6.35521 3.22333 6.11708 3.42 5.92C3.61667 5.72333 3.855 5.625 4.135 5.625H5V4.375C5 3.67875 5.24271 3.08812 5.72813 2.60312C6.21312 2.11771 6.80375 1.875 7.5 1.875C8.19625 1.875 8.78708 2.11771 9.2725 2.60312C9.75792 3.08854 10.0004 3.67917 10 4.375V5.625H10.8656C11.1448 5.625 11.3829 5.72333 11.58 5.92C11.7767 6.11667 11.875 6.355 11.875 6.635V12.1156C11.875 12.3948 11.7767 12.6329 11.58 12.83C11.3833 13.0267 11.1452 13.125 10.8656 13.125H4.135ZM4.135 12.5H10.8656C10.9777 12.5 11.0698 12.464 11.1419 12.3919C11.214 12.3198 11.25 12.2277 11.25 12.1156V6.63437C11.25 6.52229 11.214 6.43021 11.1419 6.35813C11.0698 6.28604 10.9777 6.25 10.8656 6.25H4.13437C4.02229 6.25 3.93021 6.28604 3.85812 6.35813C3.78604 6.43021 3.75 6.5225 3.75 6.635V12.1156C3.75 12.2277 3.78604 12.3198 3.85812 12.3919C3.93021 12.464 4.0225 12.5 4.135 12.5ZM7.5 10.3125C7.76375 10.3125 7.98583 10.2221 8.16625 10.0413C8.34708 9.86083 8.4375 9.63875 8.4375 9.375C8.4375 9.11125 8.34708 8.88917 8.16625 8.70875C7.98542 8.52833 7.76333 8.43792 7.5 8.4375C7.23667 8.43708 7.01458 8.5275 6.83375 8.70875C6.65292 8.88917 6.5625 9.11125 6.5625 9.375C6.5625 9.63875 6.65292 9.86083 6.83375 10.0413C7.01417 10.2221 7.23625 10.3125 7.5 10.3125ZM5.625 5.625H9.375V4.375C9.375 3.85417 9.19271 3.41146 8.82812 3.04688C8.46354 2.68229 8.02083 2.5 7.5 2.5C6.97917 2.5 6.53646 2.68229 6.17188 3.04688C5.80729 3.41146 5.625 3.85417 5.625 4.375V5.625Z" fill="black"/>
</svg>
