<svg width="18" height="17" viewBox="0 0 18 17" fill="none" xmlns="http://www.w3.org/2000/svg">
<path fill-rule="evenodd" clip-rule="evenodd" d="M15.875 8.5C15.875 12.2969 12.7969 15.375 9 15.375C5.20304 15.375 2.125 12.2969 2.125 8.5C2.125 4.70304 5.20304 1.625 9 1.625C12.7969 1.625 15.875 4.70304 15.875 8.5ZM17.25 8.5C17.25 13.0564 13.5564 16.75 9 16.75C4.44365 16.75 0.75 13.0564 0.75 8.5C0.75 3.94365 4.44365 0.25 9 0.25C13.5564 0.25 17.25 3.94365 17.25 8.5ZM8.3125 9.875V5.0625H9.6875V9.875H8.3125ZM8.3125 11.9375V10.5625H9.6875V11.9375H8.3125Z" fill="#5C1100"/>
</svg>
