<svg width="16" height="15" viewBox="0 0 16 15" fill="none" xmlns="http://www.w3.org/2000/svg">
<g clip-path="url(#clip0_3692_2332)">
<path d="M15.5746 11.4406C15.3892 11.6262 15.1694 11.7189 14.9154 11.7189H1.7906C1.53653 11.7189 1.31689 11.6262 1.13131 11.4406C0.945738 11.2548 0.853027 11.0352 0.853027 10.7813C0.853027 10.5274 0.945738 10.3077 1.13131 10.1221L7.69374 3.55969C7.87952 3.37411 8.09916 3.2812 8.35303 3.2812C8.60689 3.2812 8.82674 3.37411 9.01216 3.55969L15.5746 10.1222C15.76 10.3077 15.853 10.5274 15.853 10.7813C15.853 11.0352 15.76 11.2548 15.5746 11.4406Z" fill="#6BDF61"/>
</g>
<defs>
<clipPath id="clip0_3692_2332">
<rect width="15" height="15" fill="white" transform="translate(0.853027)"/>
</clipPath>
</defs>
</svg>
