<svg width="16" height="15" viewBox="0 0 16 15" fill="none" xmlns="http://www.w3.org/2000/svg">
<g clip-path="url(#clip0_3692_2394)">
<path d="M15.5746 3.55978C15.3892 3.3742 15.1694 3.28149 14.9154 3.28149H1.7906C1.53653 3.28149 1.31689 3.3742 1.13131 3.55978C0.945738 3.74556 0.853027 3.9652 0.853027 4.21912C0.853027 4.47298 0.945738 4.69262 1.13131 4.87825L7.69374 11.4407C7.87952 11.6263 8.09916 11.7192 8.35303 11.7192C8.60689 11.7192 8.82674 11.6263 9.01216 11.4407L15.5746 4.8782C15.76 4.69262 15.853 4.47298 15.853 4.21906C15.853 3.9652 15.76 3.74556 15.5746 3.55978Z" fill="#FF5656"/>
</g>
<defs>
<clipPath id="clip0_3692_2394">
<rect width="15" height="15" fill="white" transform="translate(0.853027 0.00012207)"/>
</clipPath>
</defs>
</svg>
