<svg width="14" height="14" viewBox="0 0 14 14" fill="none" xmlns="http://www.w3.org/2000/svg">
<rect width="14" height="14" rx="7" fill="#E6E6E6"/>
<path d="M7.43159 4.48602C7.21559 4.48602 7.04359 4.42602 6.91559 4.30602C6.78759 4.17802 6.72359 4.01402 6.72359 3.81402C6.72359 3.76602 6.73159 3.69402 6.74759 3.59802C6.80359 3.33402 6.92359 3.12202 7.10759 2.96202C7.29959 2.79402 7.52759 2.71002 7.79159 2.71002C8.01559 2.71002 8.19159 2.77402 8.31959 2.90202C8.45559 3.03002 8.52359 3.19802 8.52359 3.40602C8.52359 3.70202 8.41559 3.95802 8.19959 4.17402C7.98359 4.38202 7.72759 4.48602 7.43159 4.48602ZM6.45959 11.29C6.19559 11.29 5.96359 11.242 5.76359 11.146C5.57159 11.05 5.47559 10.894 5.47559 10.678C5.47559 10.614 5.47959 10.566 5.48759 10.534L6.25559 6.77802C6.26359 6.75402 6.26759 6.72202 6.26759 6.68202C6.26759 6.51402 6.17559 6.43002 5.99159 6.43002C5.97559 6.43002 5.87959 6.45002 5.70359 6.49002L5.69159 6.11802L7.87559 5.43402H8.21159L7.21559 10.282C7.20759 10.322 7.20359 10.378 7.20359 10.45C7.20359 10.61 7.28359 10.69 7.44359 10.69C7.51559 10.69 7.60359 10.678 7.70759 10.654C7.81959 10.622 7.89159 10.602 7.92359 10.594L7.85159 10.894C7.67559 11.022 7.45959 11.118 7.20359 11.182C6.95559 11.254 6.70759 11.29 6.45959 11.29Z" fill="#575C66"/>
</svg>
