<svg width="30" height="26" viewBox="0 0 30 26" fill="none" xmlns="http://www.w3.org/2000/svg">
<g id="Group 213">
<path id="Rectangle 4" d="M0.0878906 5C0.0878906 3.89543 0.983321 3 2.08789 3H6.08789C7.19246 3 8.08789 3.89543 8.08789 5V9C8.08789 11.2091 6.29703 13 4.08789 13H2.08789C0.983321 13 0.0878906 12.1046 0.0878906 11V5Z" fill="#DADCC0"/>
<rect id="Rectangle 5" x="25.9121" y="10" width="4" height="8" rx="2" fill="#C3D45B"/>
<path id="Union" fill-rule="evenodd" clip-rule="evenodd" d="M19.7935 0.5V13.5L25.7935 6.6579L19.7935 0.5ZM19.7933 3.52511C19.7933 3.52511 11.7935 2.73908 7.74171 5.10626C3.97696 7.30576 3.70965 10.3322 3.69126 10.5833C3.6904 10.586 3.68997 10.5884 3.68996 10.5907C3.68994 10.5969 3.68992 10.6 3.69001 10.6C3.69013 10.6 3.69046 10.5943 3.69126 10.5833C3.76941 10.3404 7.37891 8.42889 19.7933 9.20634V3.52511Z" fill="#909D45"/>
<path id="Union_2" fill-rule="evenodd" clip-rule="evenodd" d="M9.68994 25.5V12.5L3.68994 19.3421L9.68994 25.5ZM9.6901 22.4749C9.6901 22.4749 17.6899 23.2609 21.7417 20.8937C25.5064 18.6942 25.7737 15.6678 25.7921 15.4167C25.793 15.414 25.7934 15.4116 25.7934 15.4093C25.7935 15.4031 25.7935 15.4 25.7934 15.4C25.7933 15.4 25.7929 15.4057 25.7921 15.4167C25.714 15.6596 22.1045 17.5711 9.6901 16.7937V22.4749Z" fill="#C3D45B"/>
</g>
</svg>
