<svg width="30" height="31" viewBox="0 0 30 31" fill="none" xmlns="http://www.w3.org/2000/svg">
<g clip-path="url(#clip0_3498_12150)">
<path d="M25.7975 18.17L25.6738 16.9263L25.6325 16.93L25.5925 16.9375L25.7975 18.17ZM25.7975 18.17L25.9225 19.4138L25.9638 19.41L26.0038 19.4038L25.7975 18.17ZM20.7475 25.0225L21.5388 24.055L21.5288 24.0475L20.7475 25.0225ZM20.7475 25.0225L19.9563 25.99L19.9663 25.9988L20.7475 25.0225ZM9.25253 25.0225L8.46128 24.0563L8.44128 24.0725L8.42253 24.0888L9.25253 25.0225ZM9.25253 25.0225L10.0438 25.9913L10.0638 25.975L10.0825 25.9575L9.25253 25.0225ZM4.20128 12.83V11.58H4.13878L4.07753 11.5863L4.20128 12.83ZM4.20128 12.83V14.08H4.26378L4.32628 14.0738L4.20128 12.83ZM18.9138 4.57628C18.8932 4.33584 18.8636 4.09614 18.8275 3.85753C18.789 3.59484 18.7088 3.33998 18.59 3.10253L16.3688 4.25003C16.34 4.19378 16.3463 4.17378 16.3625 4.27253C16.3813 4.38378 16.3975 4.53878 16.4263 4.82628L18.9138 4.57628ZM19.0325 5.76378C19.1113 5.86628 19.085 5.91253 19.0413 5.66878C19 5.43628 18.9675 5.11003 18.9138 4.57628L16.425 4.82503C16.475 5.31753 16.5175 5.76003 16.5813 6.11253C16.6425 6.45003 16.75 6.89378 17.0438 7.27878L19.0325 5.76378ZM19.0325 5.76378L17.0438 7.27878C17.3113 7.62983 17.667 7.90381 18.0747 8.07287C18.4824 8.24192 18.9276 8.30003 19.365 8.24128L19.0325 5.76378ZM19.955 5.00753C19.6749 5.24429 19.3868 5.47151 19.0913 5.68878C18.8875 5.83003 18.9038 5.78003 19.0325 5.76378L19.365 8.24128C19.845 8.17628 20.235 7.93878 20.5175 7.74128C20.8113 7.53878 21.155 7.25628 21.5375 6.94253L19.955 5.00753ZM21.225 4.19503C20.9734 4.27873 20.7367 4.40194 20.5238 4.56003C20.3488 4.68503 20.1525 4.84628 19.955 5.00753L21.5375 6.94253C21.7613 6.76003 21.8825 6.66128 21.975 6.59628C22.0563 6.53753 22.045 6.55753 21.9863 6.57628L21.225 4.19503ZM22.98 4.28253C22.4249 4.04196 21.8013 4.01087 21.225 4.19503L21.9863 6.57628L22.98 4.28253ZM24.1625 5.21753C23.9942 5.04448 23.8204 4.87689 23.6413 4.71503C23.4448 4.53661 23.2212 4.39061 22.9788 4.28253L21.9863 6.57628C21.9288 6.55128 21.92 6.53128 21.995 6.59753C22.08 6.67253 22.1913 6.78128 22.395 6.98503L24.1625 5.21753ZM25.28 6.33503L24.1625 5.21753L22.395 6.98503L23.5125 8.10253L25.28 6.33503ZM26.215 7.51753C26.1069 7.27514 25.9609 7.0515 25.7825 6.85503C25.6206 6.67635 25.4531 6.50293 25.28 6.33503L23.5125 8.10378C23.7163 8.30753 23.825 8.41878 23.9 8.50378C23.9663 8.57878 23.9463 8.57003 23.9213 8.51253L26.215 7.51753ZM26.3025 9.27253C26.4867 8.69621 26.4556 8.07266 26.215 7.51753L23.9213 8.51253L26.3025 9.27253ZM25.49 10.5425C25.6453 10.3578 25.7945 10.1681 25.9375 9.97378C26.07 9.78878 26.2125 9.55878 26.3025 9.27253L23.9213 8.51253C23.94 8.45378 23.9588 8.44128 23.9013 8.52378C23.8363 8.61503 23.7388 8.73628 23.555 8.96003L25.49 10.5425ZM24.7338 11.4663C24.7175 11.595 24.6675 11.61 24.8088 11.4063C24.9425 11.2125 25.15 10.9575 25.49 10.5425L23.555 8.96003C23.2425 9.34253 22.9588 9.68628 22.755 9.98003C22.5588 10.2625 22.3213 10.6525 22.2563 11.1325L24.7338 11.4663ZM24.7338 11.4663L22.2563 11.1325C22.1975 11.57 22.2556 12.0152 22.4247 12.4229C22.5937 12.8306 22.8677 13.1863 23.2188 13.4538L24.7338 11.4663ZM25.9213 11.585C25.5558 11.5545 25.1914 11.5115 24.8288 11.4563C24.585 11.4125 24.6313 11.3875 24.7338 11.4663L23.2188 13.4538C23.6038 13.7475 24.0463 13.855 24.3863 13.9163C24.7375 13.9788 25.18 14.0225 25.6725 14.0725L25.9213 11.585ZM27.395 11.9075C27.1576 11.7888 26.9027 11.7086 26.64 11.67C26.4014 11.634 26.1617 11.6056 25.9213 11.585L25.6725 14.0725C25.8576 14.0888 26.0422 14.1096 26.2263 14.135C26.3263 14.1525 26.305 14.1588 26.2488 14.13L27.395 11.9075ZM28.5738 13.2113C28.3516 12.6483 27.9328 12.1851 27.395 11.9075L26.25 14.1325L28.5738 13.2113ZM28.7488 14.7088C28.7488 14.4538 28.7488 14.2 28.735 13.985C28.7224 13.7197 28.6675 13.4581 28.5725 13.21L26.25 14.1325C26.2275 14.0738 26.235 14.0538 26.2425 14.1538C26.25 14.2663 26.25 14.4225 26.25 14.7113L28.7488 14.7088ZM28.7488 16.2888V14.7088H26.2488V16.2888H28.7488ZM28.5738 17.7863C28.6838 17.5075 28.72 17.24 28.735 17.0113C28.7488 16.7975 28.7488 16.5438 28.7488 16.2888H26.2488C26.2488 16.5775 26.2488 16.7338 26.2413 16.8463C26.2338 16.9463 26.2263 16.9263 26.2488 16.8675L28.5738 17.7863ZM27.395 19.09C27.9328 18.8124 28.3516 18.3492 28.5738 17.7863L26.25 16.8688L27.395 19.09ZM25.9213 19.4125C26.1763 19.3875 26.4275 19.3625 26.64 19.3275C26.865 19.29 27.1275 19.2275 27.395 19.09L26.25 16.8688C26.305 16.84 26.3263 16.8463 26.2275 16.8625C26.0436 16.8889 25.8589 16.9102 25.6738 16.9263L25.9213 19.4125ZM24.735 19.5313C24.6313 19.61 24.585 19.585 24.8288 19.5413C25.0613 19.5 25.3875 19.4663 25.9213 19.4125L25.6725 16.925C25.1813 16.975 24.7375 17.0175 24.3863 17.0813C24.0475 17.1425 23.6038 17.25 23.2188 17.5438L24.735 19.5313ZM24.735 19.5313L23.2188 17.5438C22.8677 17.8113 22.5937 18.167 22.4247 18.5747C22.2556 18.9824 22.1975 19.4276 22.2563 19.865L24.735 19.5313ZM25.49 20.4538C25.2533 20.174 25.0261 19.8864 24.8088 19.5913C24.6675 19.3875 24.7188 19.4025 24.735 19.5313L22.2563 19.865C22.3213 20.345 22.5588 20.735 22.7563 21.0175C22.96 21.3113 23.2425 21.655 23.555 22.0375L25.49 20.4538ZM26.3025 21.7238C26.2187 21.4726 26.0955 21.2363 25.9375 21.0238C25.8125 20.8475 25.6513 20.6525 25.49 20.4538L23.555 22.0375C23.7375 22.2613 23.8363 22.3813 23.9013 22.4738C23.96 22.555 23.9413 22.545 23.9213 22.4863L26.3025 21.7238ZM26.215 23.48C26.4559 22.9245 26.487 22.3005 26.3025 21.7238L23.9213 22.4863L26.215 23.48ZM25.28 24.6625C25.4613 24.4813 25.64 24.3038 25.7825 24.1413C25.9325 23.9688 26.095 23.755 26.215 23.4788L23.9213 22.485C23.9463 22.4275 23.9663 22.42 23.9 22.495C23.825 22.58 23.7163 22.69 23.5125 22.895L25.28 24.6625ZM24.1625 25.7788L25.28 24.6625L23.5125 22.895L22.395 24.0113L24.1625 25.7788ZM22.98 26.715C23.2225 26.6066 23.4461 26.4601 23.6425 26.2813C23.8038 26.14 23.9825 25.96 24.1625 25.7788L22.395 24.0113C22.2653 24.1441 22.1319 24.2733 21.995 24.3988C21.92 24.4663 21.9288 24.4463 21.9863 24.4213L22.98 26.715ZM21.225 26.8025C21.8013 26.9867 22.4249 26.9556 22.98 26.715L21.9863 24.4213L21.225 26.8025ZM19.955 25.99C20.1525 26.1513 20.3475 26.3125 20.5238 26.4375C20.7088 26.5688 20.9388 26.7113 21.225 26.8025L21.9863 24.4213C22.045 24.44 22.0563 24.4588 21.9738 24.4013C21.8252 24.2899 21.6797 24.1745 21.5375 24.055L19.955 25.99ZM19.0325 25.235C18.9038 25.2163 18.8875 25.1663 19.0913 25.3075C19.285 25.4425 19.5388 25.6488 19.9538 25.9888L21.5375 24.055C21.155 23.7413 20.8113 23.4588 20.5175 23.255C20.235 23.0575 19.845 22.8213 19.365 22.7563L19.0325 25.235ZM19.0325 25.235L19.365 22.7563C18.9276 22.6975 18.4824 22.7556 18.0747 22.9247C17.667 23.0937 17.3113 23.3677 17.0438 23.7188L19.0325 25.235ZM18.9125 26.4213C18.9663 25.8875 19 25.56 19.0413 25.3288C19.085 25.085 19.11 25.13 19.0313 25.2338L17.0438 23.7175C16.75 24.1025 16.6425 24.5463 16.5813 24.885C16.5188 25.2375 16.4763 25.68 16.4263 26.1725L18.9125 26.4213ZM18.5888 27.895C18.7263 27.6275 18.7888 27.365 18.8263 27.14C18.8638 26.9275 18.8863 26.6763 18.9125 26.4213L16.4263 26.1725C16.4098 26.3581 16.3881 26.5419 16.3613 26.7263C16.345 26.8263 16.3388 26.805 16.3675 26.7488L18.5888 27.895ZM17.2875 29.0738C17.8495 28.8511 18.3118 28.4323 18.5888 27.895L16.3688 26.75L17.2875 29.0738ZM15.7875 29.2488C16.0438 29.2488 16.2975 29.2488 16.5125 29.235C16.74 29.22 17.0075 29.1863 17.2875 29.0738L16.3688 26.75C16.4275 26.7275 16.4475 26.735 16.3475 26.7425C16.1618 26.7502 15.9759 26.7527 15.79 26.75L15.7875 29.2488ZM14.2088 29.2488H15.7875L15.7888 26.7488H14.2088V29.2488ZM12.7113 29.0738C12.99 29.1838 13.2575 29.22 13.4863 29.235C13.7 29.2488 13.9538 29.2488 14.2088 29.2488V26.7488C13.92 26.7488 13.7638 26.7488 13.6513 26.7413C13.5513 26.7338 13.5713 26.7263 13.63 26.7488L12.7113 29.0738ZM11.4075 27.895C11.6851 28.4328 12.1483 28.8516 12.7113 29.0738L13.63 26.7488L11.4075 27.895ZM11.085 26.4213C11.11 26.6763 11.135 26.9275 11.17 27.14C11.2075 27.365 11.27 27.6275 11.4075 27.895L13.6325 26.75C13.6613 26.805 13.655 26.8263 13.6388 26.7275C13.6124 26.5436 13.5911 26.3589 13.575 26.1738L11.085 26.4213ZM10.9663 25.2338C10.8875 25.1313 10.9125 25.0838 10.9563 25.3288C10.9975 25.56 11.0313 25.8875 11.085 26.4213L13.5725 26.1725C13.5225 25.68 13.48 25.2375 13.4163 24.885C13.355 24.5475 13.2475 24.1038 12.9538 23.7188L10.9663 25.2338ZM10.9663 25.2338L12.9538 23.7188C12.6863 23.3677 12.3306 23.0937 11.9229 22.9247C11.5152 22.7556 11.07 22.6975 10.6325 22.7563L10.9663 25.2338ZM10.0425 25.99C10.4588 25.65 10.7125 25.4425 10.9063 25.3088C11.11 25.1675 11.095 25.2175 10.9663 25.2338L10.6325 22.7563C10.1525 22.8213 9.76253 23.0588 9.48003 23.2563C9.18628 23.4588 8.84253 23.7413 8.46003 24.055L10.0425 25.99ZM8.77253 26.8025C9.02416 26.7188 9.26086 26.5956 9.47378 26.4375C9.64878 26.3125 9.84503 26.1513 10.0425 25.99L8.46128 24.0563C8.31869 24.1757 8.17405 24.2912 8.02503 24.4025C7.94378 24.4613 7.95503 24.4425 8.01378 24.4225L8.77253 26.8025ZM7.01753 26.715C7.57266 26.9556 8.19621 26.9867 8.77253 26.8025L8.01128 24.4213L7.01753 26.715ZM5.83378 25.78C6.01503 25.9613 6.19378 26.14 6.35628 26.2825C6.52753 26.4325 6.74128 26.5963 7.01878 26.7163L8.01128 24.4213C8.06878 24.4463 8.07753 24.4663 8.00253 24.4C7.86562 24.2746 7.73224 24.1454 7.60253 24.0125L5.83378 25.78ZM4.71753 24.6625L5.83503 25.78L7.60253 24.0125L6.48503 22.895L4.71753 24.6625ZM3.78253 23.48C3.90128 23.755 4.06503 23.97 4.21503 24.1425C4.35753 24.3038 4.53628 24.4825 4.71753 24.6625L6.48503 22.895C6.35217 22.7653 6.22295 22.6319 6.09753 22.495C6.03128 22.42 6.05128 22.4288 6.07628 22.4863L3.78253 23.48ZM3.69503 21.725C3.51087 22.3013 3.54196 22.9249 3.78253 23.48L6.07628 22.4863L3.69503 21.725ZM4.50753 20.455C4.3523 20.6398 4.20305 20.8294 4.06003 21.0238C3.90194 21.2367 3.77873 21.4734 3.69503 21.725L6.07628 22.4863C6.05628 22.545 6.03878 22.5563 6.09628 22.4738C6.16128 22.3825 6.25878 22.2613 6.44253 22.0375L4.50753 20.455ZM5.26253 19.5313C5.28003 19.4025 5.33003 19.3875 5.18878 19.5913C5.05503 19.785 4.84753 20.04 4.50753 20.455L6.44253 22.0375C6.75503 21.655 7.03878 21.3113 7.24253 21.0175C7.43878 20.735 7.67628 20.345 7.74128 19.865L5.26253 19.5313ZM5.26253 19.5313L7.74128 19.865C7.80003 19.4276 7.74192 18.9824 7.57287 18.5747C7.40381 18.167 7.12983 17.8113 6.77878 17.5438L5.26253 19.5313ZM4.07503 19.4125C4.61003 19.4663 4.93753 19.5 5.16878 19.5413C5.41253 19.585 5.36628 19.61 5.26253 19.5313L6.77878 17.5438C6.39378 17.25 5.95128 17.1425 5.61128 17.0813C5.26003 17.0188 4.81753 16.975 4.32378 16.925L4.07503 19.4125ZM2.60253 19.09C2.87003 19.2275 3.13253 19.29 3.35753 19.3275C3.57003 19.3625 3.82128 19.3888 4.07628 19.4138L4.32378 16.925C4.13865 16.9093 3.95524 16.8885 3.77128 16.8625C3.67128 16.845 3.69253 16.8388 3.74878 16.8675L2.60253 19.09ZM1.42503 17.7875C1.64719 18.3505 2.06601 18.8137 2.60378 19.0913L3.75003 16.8688L1.42503 17.7875ZM1.25003 16.29C1.25003 16.545 1.25003 16.7988 1.26378 17.0138C1.27878 17.2413 1.31378 17.5088 1.42628 17.7888L3.75003 16.8675C3.77253 16.9263 3.76503 16.9463 3.75878 16.8463C3.7507 16.661 3.74778 16.4755 3.75003 16.29H1.25003ZM1.25003 14.71V16.29H3.75003V14.71H1.25003ZM1.42503 13.2113C1.33046 13.4594 1.27603 13.721 1.26378 13.9863C1.24878 14.2013 1.25003 14.455 1.25003 14.7113H3.75003C3.75003 14.4213 3.75003 14.265 3.75878 14.1525C3.76503 14.0525 3.77253 14.0725 3.75003 14.1313L1.42503 13.2113ZM2.60378 11.91C2.06646 12.187 1.6477 12.6493 1.42503 13.2113L3.75003 14.1313L2.60378 11.91ZM4.07753 11.585C3.82253 11.6113 3.57128 11.635 3.35878 11.6725C3.13378 11.71 2.87128 11.7725 2.60378 11.91L3.75003 14.1313C3.69378 14.16 3.67378 14.1538 3.77253 14.1375C3.95648 14.1111 4.14114 14.0899 4.32628 14.0738L4.07753 11.585ZM5.26503 11.4675C5.36878 11.3888 5.41503 11.4138 5.17003 11.4575C4.93878 11.4988 4.61128 11.5325 4.07753 11.5863L4.32628 14.0738C4.81753 14.0238 5.26128 13.9813 5.61378 13.9175C5.95253 13.8563 6.39628 13.7488 6.78128 13.455L5.26503 11.4675ZM5.26503 11.4675L6.78128 13.455C7.13211 13.1874 7.40584 12.8316 7.57467 12.4239C7.74351 12.0162 7.80142 11.5711 7.74253 11.1338L5.26503 11.4675ZM4.50878 10.5438C4.84878 10.9588 5.05628 11.2138 5.19128 11.4075C5.33253 11.6113 5.28253 11.5963 5.26503 11.4675L7.74253 11.1338C7.67753 10.6538 7.44128 10.265 7.24378 9.98128C7.04003 9.68753 6.75628 9.34378 6.44378 8.96128L4.50878 10.5438ZM3.69628 9.27253C3.78753 9.56003 3.92878 9.78878 4.06128 9.97503C4.18628 10.15 4.34753 10.3463 4.50878 10.5438L6.44378 8.96128C6.32431 8.81869 6.20885 8.67405 6.09753 8.52503C6.03878 8.44378 6.05878 8.45378 6.07753 8.51253L3.69628 9.27253ZM3.78378 7.51878C3.54352 8.07355 3.51243 8.69659 3.69628 9.27253L6.07753 8.51253L3.78378 7.51878ZM4.71878 6.33503C4.53753 6.51628 4.35878 6.69378 4.21628 6.85628C4.03786 7.05275 3.89186 7.27638 3.78378 7.51878L6.07753 8.51253C6.05253 8.57003 6.03253 8.57878 6.09878 8.50253C6.17378 8.41753 6.28253 8.30753 6.48628 8.10253L4.71878 6.33503ZM5.83628 5.21878L4.71878 6.33503L6.48628 8.10253L7.60503 6.98628L5.83628 5.21878ZM7.01878 4.28253C6.7763 4.39099 6.55266 4.53741 6.35628 4.71628C6.1776 4.87816 6.00418 5.04575 5.83628 5.21878L7.60503 6.98628C7.80878 6.78128 7.91878 6.67253 8.00378 6.59878C8.07878 6.53128 8.07003 6.55128 8.01253 6.57628L7.01878 4.28253ZM8.77378 4.19503C8.19746 4.01087 7.57391 4.04196 7.01878 4.28253L8.01253 6.57628L8.77378 4.19503ZM10.0425 5.00753C9.84503 4.84628 9.65128 4.68628 9.47503 4.56128C9.2622 4.40275 9.02548 4.27912 8.77378 4.19503L8.01253 6.57628C7.95378 6.55753 7.94253 6.53878 8.02503 6.59628C8.11628 6.66253 8.23753 6.76003 8.46128 6.94378L10.0425 5.00753ZM10.9675 5.76378C11.0963 5.78128 11.1113 5.83128 10.9075 5.69003C10.6124 5.47273 10.3248 5.24552 10.045 5.00878L8.46128 6.94378C8.84378 7.25628 9.18628 7.53878 9.48003 7.74378C9.76253 7.94003 10.1525 8.17628 10.6325 8.24128L10.9675 5.76378ZM10.9675 5.76378L10.6338 8.24128C11.0712 8.30003 11.5164 8.24192 11.9241 8.07287C12.3318 7.90381 12.6875 7.62983 12.955 7.27878L10.9675 5.76378ZM11.0863 4.57628C11.0325 5.11128 10.9988 5.43878 10.9575 5.67003C10.9138 5.91378 10.8888 5.86753 10.9675 5.76378L12.955 7.27878C13.2488 6.89378 13.3563 6.45128 13.4175 6.11253C13.48 5.76128 13.525 5.31753 13.5738 4.82503L11.0863 4.57628ZM11.4088 3.10378C11.29 3.34123 11.2099 3.59609 11.1713 3.85878C11.1363 4.07128 11.1113 4.32253 11.0863 4.57753L13.5738 4.82503C13.59 4.63995 13.6109 4.45656 13.6363 4.27253C13.6538 4.17253 13.66 4.19503 13.6313 4.25003L11.4088 3.10378ZM12.7125 1.92503C12.1496 2.14719 11.6864 2.56601 11.4088 3.10378L13.6313 4.25003L12.7125 1.92503ZM14.21 1.75003C13.955 1.75003 13.7013 1.75003 13.4863 1.76378C13.221 1.77603 12.9594 1.83046 12.7113 1.92503L13.6325 4.25003C13.5738 4.27253 13.5538 4.26503 13.6538 4.25878C13.7663 4.25128 13.9225 4.25003 14.2113 4.25003L14.21 1.75003ZM15.79 1.75003H14.21V4.25003H15.79V1.75003ZM17.2875 1.92503C17.0394 1.83046 16.7778 1.77603 16.5125 1.76378C16.3 1.74878 16.0463 1.75003 15.7913 1.75003V4.25003C16.08 4.25003 16.2363 4.25003 16.3488 4.25878C16.4488 4.26503 16.4275 4.27253 16.3688 4.25003L17.2875 1.92503ZM18.5913 3.10378C18.3137 2.56601 17.8505 2.14719 17.2875 1.92503L16.3688 4.25003L18.5913 3.10378ZM18.75 15.5C18.75 16.4946 18.3549 17.4484 17.6517 18.1517C16.9484 18.8549 15.9946 19.25 15 19.25V21.75C16.6576 21.75 18.2473 21.0915 19.4194 19.9194C20.5915 18.7473 21.25 17.1576 21.25 15.5H18.75ZM15 11.75C15.9946 11.75 16.9484 12.1451 17.6517 12.8484C18.3549 13.5516 18.75 14.5055 18.75 15.5H21.25C21.25 13.8424 20.5915 12.2527 19.4194 11.0806C18.2473 9.90851 16.6576 9.25003 15 9.25003V11.75ZM11.25 15.5C11.25 14.5055 11.6451 13.5516 12.3484 12.8484C13.0516 12.1451 14.0055 11.75 15 11.75V9.25003C13.3424 9.25003 11.7527 9.90851 10.5806 11.0806C9.40851 12.2527 8.75003 13.8424 8.75003 15.5H11.25ZM15 19.25C14.0055 19.25 13.0516 18.8549 12.3484 18.1517C11.6451 17.4484 11.25 16.4946 11.25 15.5H8.75003C8.75003 17.1576 9.40851 18.7473 10.5806 19.9194C11.7527 21.0915 13.3424 21.75 15 21.75V19.25Z" fill="#FF603B"/>
</g>
<defs>
<clipPath id="clip0_3498_12150">
<rect width="30" height="30" fill="white" transform="translate(0 0.5)"/>
</clipPath>
</defs>
</svg>
