<svg width="90" height="90" viewBox="0 0 90 90" fill="none" xmlns="http://www.w3.org/2000/svg">
<circle cx="45" cy="45" r="44" fill="white" stroke="black" stroke-width="2"/>
<path d="M57.5 30C57.5 29.1716 56.8284 28.5 56 28.5C55.1716 28.5 54.5 29.1716 54.5 30L57.5 30ZM54.9393 61.0607C55.5251 61.6464 56.4749 61.6464 57.0607 61.0607L66.6066 51.5147C67.1924 50.9289 67.1924 49.9792 66.6066 49.3934C66.0208 48.8076 65.0711 48.8076 64.4853 49.3934L56 57.8787L47.5147 49.3934C46.9289 48.8076 45.9792 48.8076 45.3934 49.3934C44.8076 49.9792 44.8076 50.9289 45.3934 51.5147L54.9393 61.0607ZM54.5 30L54.5 60L57.5 60L57.5 30L54.5 30Z" fill="black"/>
<path d="M36.5 60C36.5 60.8284 35.8284 61.5 35 61.5C34.1716 61.5 33.5 60.8284 33.5 60L36.5 60ZM33.9393 28.9393C34.5251 28.3536 35.4749 28.3536 36.0607 28.9393L45.6066 38.4853C46.1924 39.0711 46.1924 40.0208 45.6066 40.6066C45.0208 41.1924 44.0711 41.1924 43.4853 40.6066L35 32.1213L26.5147 40.6066C25.9289 41.1924 24.9792 41.1924 24.3934 40.6066C23.8076 40.0208 23.8076 39.0711 24.3934 38.4853L33.9393 28.9393ZM33.5 60L33.5 30L36.5 30L36.5 60L33.5 60Z" fill="black"/>
</svg>
