<svg width="28" height="29" viewBox="0 0 28 29" fill="none" xmlns="http://www.w3.org/2000/svg">
<path d="M25.5035 20.6237L16.6251 5.23534C16.3522 4.77076 15.9627 4.38557 15.4951 4.11792C15.0275 3.85027 14.4981 3.70947 13.9593 3.70947C13.4205 3.70947 12.8911 3.85027 12.4235 4.11792C11.9559 4.38557 11.5663 4.77076 11.2935 5.23534L2.41512 20.6237C2.14014 21.0903 1.99512 21.622 1.99512 22.1637C1.99512 22.7053 2.14014 23.237 2.41512 23.7037C2.68874 24.1929 3.09257 24.5967 3.58178 24.8703C4.04992 25.1417 4.58068 25.2865 5.12178 25.2903H22.8901C23.4302 25.29 23.9609 25.1493 24.4301 24.882C24.9193 24.6084 25.3232 24.2046 25.5968 23.7153C25.8651 23.2463 26.0051 22.7155 26.0051 22.1753C26.0051 21.6352 25.8651 21.2257 25.5968 20.7567L25.5035 20.6237ZM12.7868 9.307C12.7868 8.99759 12.9097 8.70084 13.1285 8.48205C13.3473 8.26325 13.644 8.14034 13.9535 8.14034C14.2629 8.14034 14.5596 8.26325 14.7784 8.48205C14.9972 8.70084 15.1201 8.99759 15.1201 9.307V16.6337C15.1201 16.9431 14.9972 17.2398 14.7784 17.4586C14.5596 17.6774 14.2629 17.8003 13.9535 17.8003C13.644 17.8003 13.3473 17.6774 13.1285 17.4586C12.9097 17.2398 12.7868 16.9431 12.7868 16.6337V9.307ZM14.0118 22.1403C13.6494 22.1402 13.2999 22.0052 13.0317 21.7615C12.7634 21.5178 12.5954 21.183 12.5606 20.8223C12.5257 20.4615 12.6265 20.1007 12.8431 19.8102C13.0598 19.5196 13.3769 19.3202 13.7326 19.2507C14.0883 19.1812 14.4571 19.2467 14.7672 19.4343C15.0773 19.622 15.3064 19.9184 15.4098 20.2657C15.5133 20.6131 15.4837 20.9865 15.3268 21.3132C15.1699 21.6399 14.897 21.8965 14.5613 22.033C14.3827 22.104 14.1923 22.1404 14.0001 22.1403H14.0118Z" fill="#F7931A"/>
</svg>
