<svg width="20" height="20" viewBox="0 0 20 20" fill="none" xmlns="http://www.w3.org/2000/svg">
<g clip-path="url(#clip0_3273_371)">
<path fill-rule="evenodd" clip-rule="evenodd" d="M7.50003 5.625C7.33427 5.625 7.1753 5.55915 7.05809 5.44194C6.94088 5.32473 6.87503 5.16576 6.87503 5C6.87503 4.83424 6.94088 4.67527 7.05809 4.55806C7.1753 4.44085 7.33427 4.375 7.50003 4.375H15C15.1658 4.375 15.3248 4.44085 15.442 4.55806C15.5592 4.67527 15.625 4.83424 15.625 5V12.5C15.625 12.6658 15.5592 12.8247 15.442 12.9419C15.3248 13.0592 15.1658 13.125 15 13.125C14.8343 13.125 14.6753 13.0592 14.5581 12.9419C14.4409 12.8247 14.375 12.6658 14.375 12.5V6.50833L5.4417 15.4417C5.32322 15.5521 5.16652 15.6122 5.0046 15.6093C4.84268 15.6065 4.68819 15.5409 4.57368 15.4264C4.45917 15.3118 4.39358 15.1574 4.39072 14.9954C4.38787 14.8335 4.44797 14.6768 4.55837 14.5583L13.4917 5.625H7.50003Z" fill="#FF603B"/>
</g>
<defs>
<clipPath id="clip0_3273_371">
<rect width="20" height="20" fill="white"/>
</clipPath>
</defs>
</svg>
