<svg width="24" height="25" viewBox="0 0 24 25" fill="none" xmlns="http://www.w3.org/2000/svg">
<path d="M7.75689 7.27436C7.464 6.98146 6.98913 6.98146 6.69623 7.27436C6.40334 7.56725 6.40334 8.04212 6.69623 8.33502L10.9389 12.5777L6.69629 16.8203C6.4034 17.1132 6.4034 17.5881 6.69629 17.881C6.98918 18.1739 7.46406 18.1739 7.75695 17.881L11.9996 13.6383L16.2422 17.881C16.5351 18.1739 17.0099 18.1739 17.3028 17.881C17.5957 17.5881 17.5957 17.1132 17.3028 16.8203L13.0602 12.5777L17.3029 8.33502C17.5958 8.04213 17.5958 7.56725 17.3029 7.27436C17.01 6.98147 16.5351 6.98147 16.2422 7.27436L11.9996 11.517L7.75689 7.27436Z" fill="black"/>
</svg>
