<svg width="21" height="21" viewBox="0 0 21 21" fill="none" xmlns="http://www.w3.org/2000/svg">
<g opacity="0.6">
<path opacity="0.3" d="M7.48438 15.8798C7.84906 17.2012 9.05973 18.1715 10.497 18.1715H13.8304C15.5563 18.1715 16.9554 16.7724 16.9554 15.0465V8.37985C16.9554 6.94254 15.985 5.73187 14.6637 5.36719V11.7132C14.6637 14.0144 12.7982 15.8798 10.497 15.8798H7.48438Z" fill="#535353"/>
<path d="M7.16406 1.92188C5.43817 1.92188 4.03906 3.32099 4.03906 5.04688V11.7135C4.03906 13.4394 5.43817 14.8385 7.16406 14.8385H10.4974C12.2233 14.8385 13.6224 13.4394 13.6224 11.7135V5.04687C13.6224 3.32099 12.2233 1.92188 10.4974 1.92188H7.16406Z" fill="#535353"/>
</g>
</svg>
