<svg width="17" height="18" viewBox="0 0 17 18" fill="none" xmlns="http://www.w3.org/2000/svg">
<path opacity="0.3" d="M5.67188 13.7393C5.96813 14.8126 6.95163 15.6009 8.11923 15.6009H10.8271C12.2291 15.6009 13.3657 14.4643 13.3657 13.0623V7.64657C13.3657 6.47897 12.5774 5.49547 11.5041 5.19922V10.3544C11.5041 12.2238 9.98862 13.7393 8.11923 13.7393H5.67188Z" fill="#FF603B"/>
<path d="M5.41362 2.39844C4.01158 2.39844 2.875 3.53501 2.875 4.93705V10.3528C2.875 11.7548 4.01158 12.8914 5.41362 12.8914H8.12147C9.52351 12.8914 10.6601 11.7548 10.6601 10.3528V4.93705C10.6601 3.53501 9.52351 2.39844 8.12147 2.39844H5.41362Z" fill="#FF603B"/>
</svg>
