<svg width="30" height="30" viewBox="0 0 30 30" fill="none" xmlns="http://www.w3.org/2000/svg">
<rect width="30" height="30" rx="15" fill="white"/>
<path fill-rule="evenodd" clip-rule="evenodd" d="M15.0108 16.2823L20.1807 21.4535C20.3531 21.62 20.5839 21.7121 20.8236 21.71C21.0632 21.7079 21.2924 21.6118 21.4619 21.4423C21.6313 21.2728 21.7274 21.0436 21.7295 20.8039C21.7316 20.5642 21.6395 20.3333 21.473 20.1609L16.303 14.9898L21.473 9.81868C21.6395 9.64628 21.7316 9.41537 21.7295 9.1757C21.7274 8.93602 21.6313 8.70675 21.4619 8.53727C21.2924 8.36778 21.0632 8.27165 20.8236 8.26957C20.5839 8.26748 20.3531 8.35962 20.1807 8.52613L15.0108 13.6972L9.8408 8.52613C9.66766 8.36374 9.43814 8.27509 9.20082 8.27894C8.96349 8.2828 8.73698 8.37885 8.5692 8.54679C8.40142 8.71472 8.30555 8.94135 8.30186 9.17873C8.29817 9.41611 8.38697 9.64562 8.54945 9.81868L13.7185 14.9898L8.54854 20.1609C8.46125 20.2452 8.39163 20.3461 8.34373 20.4576C8.29583 20.5691 8.27062 20.6891 8.26957 20.8105C8.26851 20.9318 8.29163 21.0522 8.33759 21.1646C8.38354 21.2769 8.4514 21.379 8.53721 21.4648C8.62302 21.5506 8.72506 21.6185 8.83737 21.6645C8.94969 21.7104 9.07003 21.7335 9.19138 21.7325C9.31273 21.7314 9.43265 21.7062 9.54415 21.6583C9.65565 21.6104 9.75649 21.5408 9.8408 21.4535L15.0108 16.2823Z" fill="#FF603B"/>
</svg>
