<svg width="24" height="24" viewBox="0 0 24 24" fill="none" xmlns="http://www.w3.org/2000/svg">
<g clip-path="url(#clip0_3427_302)">
<path opacity="0.7" d="M12.6204 5.79544H4.2443C3.71538 5.79546 3.20813 6.00559 2.83413 6.3796C2.46013 6.75361 2.25001 7.26086 2.25 7.78978V19.7557C2.25001 20.2846 2.46013 20.7919 2.83413 21.1659C3.20813 21.5399 3.71538 21.75 4.2443 21.75H16.2102C16.4721 21.75 16.7315 21.6985 16.9735 21.5983C17.2154 21.4981 17.4353 21.3512 17.6205 21.166C17.8057 20.9808 17.9526 20.7609 18.0528 20.5189C18.153 20.277 18.2046 20.0176 18.2046 19.7557V11.3796M15.5454 2.25H21.75M21.75 2.25V8.45456M21.75 2.25L10.125 13.875" stroke="black" stroke-width="2.5" stroke-linecap="round" stroke-linejoin="round"/>
</g>
<defs>
<clipPath id="clip0_3427_302">
<rect width="24" height="24" fill="white" transform="matrix(-1 0 0 1 24 0)"/>
</clipPath>
</defs>
</svg>
