<svg width="30" height="30" viewBox="0 0 30 30" fill="none" xmlns="http://www.w3.org/2000/svg">
<g clip-path="url(#clip0_3273_1153)">
<path d="M15.0015 19.375C13.8412 19.375 12.7284 18.9141 11.9079 18.0936C11.0874 17.2731 10.6265 16.1603 10.6265 15C10.6265 13.8397 11.0874 12.7269 11.9079 11.9064C12.7284 11.0859 13.8412 10.625 15.0015 10.625C16.1618 10.625 17.2746 11.0859 18.0951 11.9064C18.9156 12.7269 19.3765 13.8397 19.3765 15C19.3765 16.1603 18.9156 17.2731 18.0951 18.0936C17.2746 18.9141 16.1618 19.375 15.0015 19.375ZM24.289 16.2125C24.339 15.8125 24.3765 15.4125 24.3765 15C24.3765 14.5875 24.339 14.175 24.289 13.75L26.9265 11.7125C27.164 11.525 27.2265 11.1875 27.0765 10.9125L24.5765 6.5875C24.4265 6.3125 24.089 6.2 23.814 6.3125L20.7015 7.5625C20.0515 7.075 19.3765 6.65 18.589 6.3375L18.1265 3.025C18.1011 2.87777 18.0244 2.74429 17.91 2.64819C17.7956 2.5521 17.6509 2.4996 17.5015 2.5H12.5015C12.189 2.5 11.9265 2.725 11.8765 3.025L11.414 6.3375C10.6265 6.65 9.95151 7.075 9.30151 7.5625L6.18901 6.3125C5.91401 6.2 5.57651 6.3125 5.42651 6.5875L2.92651 10.9125C2.76401 11.1875 2.83901 11.525 3.07651 11.7125L5.71401 13.75C5.66401 14.175 5.62651 14.5875 5.62651 15C5.62651 15.4125 5.66401 15.8125 5.71401 16.2125L3.07651 18.2875C2.83901 18.475 2.76401 18.8125 2.92651 19.0875L5.42651 23.4125C5.57651 23.6875 5.91401 23.7875 6.18901 23.6875L9.30151 22.425C9.95151 22.925 10.6265 23.35 11.414 23.6625L11.8765 26.975C11.9265 27.275 12.189 27.5 12.5015 27.5H17.5015C17.814 27.5 18.0765 27.275 18.1265 26.975L18.589 23.6625C19.3765 23.3375 20.0515 22.925 20.7015 22.425L23.814 23.6875C24.089 23.7875 24.4265 23.6875 24.5765 23.4125L27.0765 19.0875C27.2265 18.8125 27.164 18.475 26.9265 18.2875L24.289 16.2125Z" fill="#FF603B"/>
</g>
<defs>
<clipPath id="clip0_3273_1153">
<rect width="30" height="30" fill="white"/>
</clipPath>
</defs>
</svg>
