<svg width="200" height="200" viewBox="0 0 200 200" fill="none" xmlns="http://www.w3.org/2000/svg">
<path fill-rule="evenodd" clip-rule="evenodd" d="M179.28 38.9812C192.029 55.529 199.257 75.6272 199.998 96.4418C200.068 98.4058 198.468 99.9998 196.503 99.9998H193.717C193.275 99.9998 192.918 99.6393 192.918 99.197C192.918 47.9135 151.331 6.34006 100.032 6.34006C48.7329 6.34006 7.14671 47.9135 7.14671 99.197C7.14671 150.48 48.7329 192.054 100.032 192.054C115.891 192.054 130.822 188.081 143.882 181.076C145.783 180.056 148.174 180.658 149.28 182.51C150.389 184.367 149.785 186.779 147.885 187.814C129.699 197.719 108.853 201.752 88.2242 199.301C66.2967 196.695 45.848 186.91 30.0661 171.47C14.2843 156.03 4.05649 135.803 0.977397 113.944C-2.1017 92.0845 2.141 69.821 13.044 50.6245C23.9469 31.4281 40.8973 16.3777 61.2523 7.81999C81.6073 -0.737712 104.223 -2.32172 125.573 3.31494C146.922 8.95159 165.806 21.4921 179.28 38.9812Z" fill="#FF603B"/>
</svg>
