<svg width="20" height="20" viewBox="0 0 20 20" fill="none" xmlns="http://www.w3.org/2000/svg">
<path d="M11.7191 18.8655C11.7191 18.9398 11.6589 19 11.5846 19H10.2256C10.1553 19 10.0969 18.946 10.0915 18.876L9.90853 16.5262C9.90308 16.4561 9.84467 16.4021 9.77444 16.4021H9.42663C9.35235 16.4021 9.29214 16.3419 9.29214 16.2676V15.7943C9.29214 15.72 9.23192 15.6598 9.15764 15.6598H8.4154C8.34112 15.6598 8.2809 15.72 8.2809 15.7943V16.2676C8.2809 16.3419 8.22068 16.4021 8.1464 16.4021H7.40416C7.32988 16.4021 7.26966 16.4623 7.26966 16.5366V17.1954C7.26966 17.2697 7.20945 17.3299 7.13516 17.3299H6.39293C6.31864 17.3299 6.25843 17.3902 6.25843 17.4644V18.1233C6.25843 18.1976 6.31864 18.2578 6.39293 18.2578H7.13516C7.20945 18.2578 7.26966 18.318 7.26966 18.3923V18.8655C7.26966 18.9398 7.20945 19 7.13516 19H5.58394C5.50966 19 5.44944 18.9398 5.44944 18.8655V15.7943C5.44944 15.72 5.38922 15.6598 5.31494 15.6598H4.5727C4.49842 15.6598 4.4382 15.5996 4.4382 15.5253V15.0521C4.4382 14.9778 4.37798 14.9176 4.3037 14.9176H3.76371C3.68943 14.9176 3.62921 14.8573 3.62921 14.7831V14.1242C3.62921 14.0499 3.569 13.9897 3.49471 13.9897H2.75248C2.6782 13.9897 2.61798 13.9295 2.61798 13.8552V13.1964C2.61798 13.1221 2.55776 13.0619 2.48348 13.0619H1.94349C1.86921 13.0619 1.80899 13.0017 1.80899 12.9274V12.2685C1.80899 12.1943 1.74877 12.1341 1.67449 12.1341H1.1345C1.06022 12.1341 1 12.0738 1 11.9996V7.62936C1 7.55508 1.06022 7.49486 1.1345 7.49486H1.67449C1.74877 7.49486 1.80899 7.55508 1.80899 7.62936V8.8449C1.80899 8.91918 1.86921 8.9794 1.94349 8.9794H2.48348C2.55776 8.9794 2.61798 9.03962 2.61798 9.1139V9.77274C2.61798 9.84702 2.6782 9.90724 2.75248 9.90724H3.49471C3.569 9.90724 3.62921 9.96746 3.62921 10.0417V10.515C3.62921 10.5893 3.68943 10.6495 3.76371 10.6495H5.31494C5.38922 10.6495 5.44944 10.5893 5.44944 10.515V10.0417C5.44944 9.96746 5.50966 9.90724 5.58394 9.90724H6.32617C6.40046 9.90724 6.46067 9.84702 6.46067 9.77274V9.1139C6.46067 9.03962 6.52089 8.9794 6.59517 8.9794H7.53966C7.61394 8.9794 7.67416 8.91918 7.67416 8.8449V8.37163C7.67416 8.29735 7.73437 8.23713 7.80866 8.23713H8.95539C9.02967 8.23713 9.08989 8.17692 9.08989 8.10263V7.44379C9.08989 7.36951 9.15011 7.30929 9.22439 7.30929H9.84022C9.9145 7.30929 9.97472 7.24908 9.97472 7.17479V2.06234C9.97472 1.98805 10.0349 1.92784 10.1092 1.92784H10.7756C10.8499 1.92784 10.9101 1.86762 10.9101 1.79334V1.1345C10.9101 1.06022 10.9703 1 11.0446 1H18.0565C18.1308 1 18.191 1.06022 18.191 1.1345V1.79334C18.191 1.86762 18.2512 1.92784 18.3255 1.92784H18.8655C18.9398 1.92784 19 1.98805 19 2.06234V5.9918C19 6.06608 18.9398 6.1263 18.8655 6.1263H13.6738C13.5995 6.1263 13.5393 6.18652 13.5393 6.2608V6.61809C13.5393 6.69238 13.5995 6.75259 13.6738 6.75259H15.8318C15.9061 6.75259 15.9663 6.81281 15.9663 6.88709V7.1748C15.9663 7.24908 15.9061 7.30929 15.8318 7.30929H13.6738C13.5995 7.30929 13.5393 7.36951 13.5393 7.44379V8.8449C13.5393 8.91918 13.5995 8.9794 13.6738 8.9794H15.2251C15.2993 8.9794 15.3596 9.03962 15.3596 9.1139V10.515C15.3596 10.5893 15.2993 10.6495 15.2251 10.6495H14.6851C14.6108 10.6495 14.5506 10.5893 14.5506 10.515V10.0417C14.5506 9.96746 14.4903 9.90724 14.4161 9.90724H13.6738C13.5995 9.90724 13.5393 9.96746 13.5393 10.0417V12.5563C13.5393 12.6305 13.4791 12.6908 13.4048 12.6908H12.8648C12.7906 12.6908 12.7303 12.751 12.7303 12.8253V13.8552C12.7303 13.9295 12.6701 13.9897 12.5958 13.9897H11.8536C11.7793 13.9897 11.7191 14.0499 11.7191 14.1242V14.7831C11.7191 14.8573 11.6589 14.9176 11.5846 14.9176H11.0446C10.9703 14.9176 10.9101 14.9778 10.9101 15.0521V18.1233C10.9101 18.1976 10.9703 18.2578 11.0446 18.2578H11.5846C11.6589 18.2578 11.7191 18.318 11.7191 18.3923V18.8655Z" fill="#FF603B"/>
<path d="M9.90853 16.5262L9.98331 16.5203L9.90853 16.5262ZM10.0915 18.876L10.0167 18.8818L10.0915 18.876ZM10.2256 19.075H11.5846V18.925H10.2256V19.075ZM11.7941 18.8655V18.3923H11.6441V18.8655H11.7941ZM11.5846 18.1828H11.0446V18.3328H11.5846V18.1828ZM10.9851 18.1233V15.0521H10.8351V18.1233H10.9851ZM11.0446 14.9926H11.5846V14.8426H11.0446V14.9926ZM11.7941 14.7831V14.1242H11.6441V14.7831H11.7941ZM11.8536 14.0647H12.5958V13.9147H11.8536V14.0647ZM12.8053 13.8552V12.8253H12.6553V13.8552H12.8053ZM12.8648 12.7658H13.4048V12.6158H12.8648V12.7658ZM13.6143 12.5563V10.0417H13.4643V12.5563H13.6143ZM13.6738 9.98224H14.4161V9.83224H13.6738V9.98224ZM14.4756 10.0417V10.515H14.6256V10.0417H14.4756ZM14.6851 10.7245H15.2251V10.5745H14.6851V10.7245ZM15.4346 10.515V9.1139H15.2846V10.515H15.4346ZM15.2251 8.9044H13.6738V9.0544H15.2251V8.9044ZM13.6143 8.8449V7.44379H13.4643V8.8449H13.6143ZM13.6738 7.38429H15.8318V7.23429H13.6738V7.38429ZM16.0413 7.1748V6.88709H15.8913V7.1748H16.0413ZM15.8318 6.67759H13.6738V6.82759H15.8318V6.67759ZM13.6143 6.61809V6.2608H13.4643V6.61809H13.6143ZM13.6738 6.2013H18.8655V6.0513H13.6738V6.2013ZM19.075 5.9918V2.06234H18.925V5.9918H19.075ZM18.8655 1.85284H18.3255V2.00284H18.8655V1.85284ZM18.266 1.79334V1.1345H18.116V1.79334H18.266ZM18.0565 0.925H11.0446V1.075H18.0565V0.925ZM10.8351 1.1345V1.79334H10.9851V1.1345H10.8351ZM10.7756 1.85284H10.1092V2.00284H10.7756V1.85284ZM9.89972 2.06234V7.17479H10.0497V2.06234H9.89972ZM9.84022 7.23429H9.22439V7.38429H9.84022V7.23429ZM9.01489 7.44379V8.10263H9.16489V7.44379H9.01489ZM8.95539 8.16213H7.80866V8.31213H8.95539V8.16213ZM7.59916 8.37163V8.8449H7.74916V8.37163H7.59916ZM7.53966 8.9044H6.59517V9.0544H7.53966V8.9044ZM6.38567 9.1139V9.77274H6.53567V9.1139H6.38567ZM6.32617 9.83224H5.58394V9.98224H6.32617V9.83224ZM5.37444 10.0417V10.515H5.52444V10.0417H5.37444ZM5.31494 10.5745H3.76371V10.7245H5.31494V10.5745ZM3.70421 10.515V10.0417H3.55421V10.515H3.70421ZM3.49471 9.83224H2.75248V9.98224H3.49471V9.83224ZM2.69298 9.77274V9.1139H2.54298V9.77274H2.69298ZM2.48348 8.9044H1.94349V9.0544H2.48348V8.9044ZM1.88399 8.8449V7.62936H1.73399V8.8449H1.88399ZM1.67449 7.41986H1.1345V7.56986H1.67449V7.41986ZM0.925 7.62936V11.9996H1.075V7.62936H0.925ZM1.1345 12.2091H1.67449V12.0591H1.1345V12.2091ZM1.73399 12.2685V12.9274H1.88399V12.2685H1.73399ZM1.94349 13.1369H2.48348V12.9869H1.94349V13.1369ZM2.54298 13.1964V13.8552H2.69298V13.1964H2.54298ZM2.75248 14.0647H3.49471V13.9147H2.75248V14.0647ZM3.55421 14.1242V14.7831H3.70421V14.1242H3.55421ZM3.76371 14.9926H4.3037V14.8426H3.76371V14.9926ZM4.3632 15.0521V15.5253H4.5132V15.0521H4.3632ZM4.5727 15.7348H5.31494V15.5848H4.5727V15.7348ZM5.37444 15.7943V18.8655H5.52444V15.7943H5.37444ZM5.58394 19.075H7.13516V18.925H5.58394V19.075ZM7.34466 18.8655V18.3923H7.19466V18.8655H7.34466ZM7.13516 18.1828H6.39293V18.3328H7.13516V18.1828ZM6.33343 18.1233V17.4644H6.18343V18.1233H6.33343ZM6.39293 17.4049H7.13516V17.2549H6.39293V17.4049ZM7.34466 17.1954V16.5366H7.19466V17.1954H7.34466ZM7.40416 16.4771H8.1464V16.3271H7.40416V16.4771ZM8.3559 16.2676V15.7943H8.2059V16.2676H8.3559ZM8.4154 15.7348H9.15764V15.5848H8.4154V15.7348ZM9.21714 15.7943V16.2676H9.36714V15.7943H9.21714ZM9.42663 16.4771H9.77444V16.3271H9.42663V16.4771ZM9.83376 16.532L10.0167 18.8818L10.1662 18.8702L9.98331 16.5203L9.83376 16.532ZM9.77444 16.4771C9.80551 16.4771 9.83135 16.501 9.83376 16.532L9.98331 16.5203C9.97482 16.4113 9.88384 16.3271 9.77444 16.3271V16.4771ZM9.21714 16.2676C9.21714 16.3833 9.31093 16.4771 9.42663 16.4771V16.3271C9.39377 16.3271 9.36714 16.3005 9.36714 16.2676H9.21714ZM9.15764 15.7348C9.1905 15.7348 9.21714 15.7615 9.21714 15.7943H9.36714C9.36714 15.6786 9.27334 15.5848 9.15764 15.5848V15.7348ZM8.3559 15.7943C8.3559 15.7615 8.38254 15.7348 8.4154 15.7348V15.5848C8.2997 15.5848 8.2059 15.6786 8.2059 15.7943H8.3559ZM8.1464 16.4771C8.2621 16.4771 8.3559 16.3833 8.3559 16.2676H8.2059C8.2059 16.3005 8.17926 16.3271 8.1464 16.3271V16.4771ZM7.34466 16.5366C7.34466 16.5037 7.3713 16.4771 7.40416 16.4771V16.3271C7.28846 16.3271 7.19466 16.4209 7.19466 16.5366H7.34466ZM7.13516 17.4049C7.25087 17.4049 7.34466 17.3111 7.34466 17.1954H7.19466C7.19466 17.2283 7.16802 17.2549 7.13516 17.2549V17.4049ZM6.33343 17.4644C6.33343 17.4316 6.36007 17.4049 6.39293 17.4049V17.2549C6.27722 17.2549 6.18343 17.3487 6.18343 17.4644H6.33343ZM6.39293 18.1828C6.36007 18.1828 6.33343 18.1561 6.33343 18.1233H6.18343C6.18343 18.239 6.27722 18.3328 6.39293 18.3328V18.1828ZM7.34466 18.3923C7.34466 18.2766 7.25087 18.1828 7.13516 18.1828V18.3328C7.16802 18.3328 7.19466 18.3594 7.19466 18.3923H7.34466ZM7.13516 19.075C7.25087 19.075 7.34466 18.9813 7.34466 18.8655H7.19466C7.19466 18.8984 7.16802 18.925 7.13516 18.925V19.075ZM5.37444 18.8655C5.37444 18.9813 5.46823 19.075 5.58394 19.075V18.925C5.55108 18.925 5.52444 18.8984 5.52444 18.8655H5.37444ZM5.31494 15.7348C5.3478 15.7348 5.37444 15.7615 5.37444 15.7943H5.52444C5.52444 15.6786 5.43064 15.5848 5.31494 15.5848V15.7348ZM4.3632 15.5253C4.3632 15.641 4.457 15.7348 4.5727 15.7348V15.5848C4.53984 15.5848 4.5132 15.5582 4.5132 15.5253H4.3632ZM4.3037 14.9926C4.33656 14.9926 4.3632 15.0192 4.3632 15.0521H4.5132C4.5132 14.9364 4.41941 14.8426 4.3037 14.8426V14.9926ZM3.55421 14.7831C3.55421 14.8988 3.64801 14.9926 3.76371 14.9926V14.8426C3.73085 14.8426 3.70421 14.8159 3.70421 14.7831H3.55421ZM3.49471 14.0647C3.52757 14.0647 3.55421 14.0914 3.55421 14.1242H3.70421C3.70421 14.0085 3.61042 13.9147 3.49471 13.9147V14.0647ZM2.54298 13.8552C2.54298 13.9709 2.63677 14.0647 2.75248 14.0647V13.9147C2.71962 13.9147 2.69298 13.8881 2.69298 13.8552H2.54298ZM2.48348 13.1369C2.51634 13.1369 2.54298 13.1635 2.54298 13.1964H2.69298C2.69298 13.0807 2.59918 12.9869 2.48348 12.9869V13.1369ZM1.73399 12.9274C1.73399 13.0431 1.82778 13.1369 1.94349 13.1369V12.9869C1.91063 12.9869 1.88399 12.9602 1.88399 12.9274H1.73399ZM1.67449 12.2091C1.70735 12.2091 1.73399 12.2357 1.73399 12.2685H1.88399C1.88399 12.1528 1.79019 12.0591 1.67449 12.0591V12.2091ZM0.925 11.9996C0.925 12.1153 1.0188 12.2091 1.1345 12.2091V12.0591C1.10164 12.0591 1.075 12.0324 1.075 11.9996H0.925ZM1.1345 7.41986C1.0188 7.41986 0.925 7.51366 0.925 7.62936H1.075C1.075 7.5965 1.10164 7.56986 1.1345 7.56986V7.41986ZM1.88399 7.62936C1.88399 7.51366 1.79019 7.41986 1.67449 7.41986V7.56986C1.70735 7.56986 1.73399 7.5965 1.73399 7.62936H1.88399ZM1.94349 8.9044C1.91063 8.9044 1.88399 8.87776 1.88399 8.8449H1.73399C1.73399 8.96061 1.82778 9.0544 1.94349 9.0544V8.9044ZM2.69298 9.1139C2.69298 8.9982 2.59918 8.9044 2.48348 8.9044V9.0544C2.51634 9.0544 2.54298 9.08104 2.54298 9.1139H2.69298ZM2.75248 9.83224C2.71962 9.83224 2.69298 9.8056 2.69298 9.77274H2.54298C2.54298 9.88844 2.63677 9.98224 2.75248 9.98224V9.83224ZM3.70421 10.0417C3.70421 9.92604 3.61042 9.83224 3.49471 9.83224V9.98224C3.52757 9.98224 3.55421 10.0089 3.55421 10.0417H3.70421ZM3.76371 10.5745C3.73085 10.5745 3.70421 10.5479 3.70421 10.515H3.55421C3.55421 10.6307 3.64801 10.7245 3.76371 10.7245V10.5745ZM5.37444 10.515C5.37444 10.5479 5.3478 10.5745 5.31494 10.5745V10.7245C5.43064 10.7245 5.52444 10.6307 5.52444 10.515H5.37444ZM5.58394 9.83224C5.46823 9.83224 5.37444 9.92604 5.37444 10.0417H5.52444C5.52444 10.0089 5.55108 9.98224 5.58394 9.98224V9.83224ZM6.38567 9.77274C6.38567 9.8056 6.35904 9.83224 6.32617 9.83224V9.98224C6.44188 9.98224 6.53567 9.88844 6.53567 9.77274H6.38567ZM6.59517 8.9044C6.47947 8.9044 6.38567 8.9982 6.38567 9.1139H6.53567C6.53567 9.08104 6.56231 9.0544 6.59517 9.0544V8.9044ZM7.59916 8.8449C7.59916 8.87776 7.57252 8.9044 7.53966 8.9044V9.0544C7.65536 9.0544 7.74916 8.96061 7.74916 8.8449H7.59916ZM7.80866 8.16213C7.69295 8.16213 7.59916 8.25593 7.59916 8.37163H7.74916C7.74916 8.33877 7.7758 8.31213 7.80866 8.31213V8.16213ZM9.01489 8.10263C9.01489 8.13549 8.98825 8.16213 8.95539 8.16213V8.31213C9.07109 8.31213 9.16489 8.21834 9.16489 8.10263H9.01489ZM9.22439 7.23429C9.10868 7.23429 9.01489 7.32809 9.01489 7.44379H9.16489C9.16489 7.41093 9.19153 7.38429 9.22439 7.38429V7.23429ZM9.89972 7.17479C9.89972 7.20766 9.87308 7.23429 9.84022 7.23429V7.38429C9.95592 7.38429 10.0497 7.2905 10.0497 7.17479H9.89972ZM10.1092 1.85284C9.99351 1.85284 9.89972 1.94663 9.89972 2.06234H10.0497C10.0497 2.02948 10.0764 2.00284 10.1092 2.00284V1.85284ZM10.8351 1.79334C10.8351 1.8262 10.8085 1.85284 10.7756 1.85284V2.00284C10.8913 2.00284 10.9851 1.90904 10.9851 1.79334H10.8351ZM11.0446 0.925C10.9289 0.925 10.8351 1.0188 10.8351 1.1345H10.9851C10.9851 1.10164 11.0118 1.075 11.0446 1.075V0.925ZM18.266 1.1345C18.266 1.0188 18.1722 0.925 18.0565 0.925V1.075C18.0894 1.075 18.116 1.10164 18.116 1.1345H18.266ZM18.3255 1.85284C18.2927 1.85284 18.266 1.8262 18.266 1.79334H18.116C18.116 1.90904 18.2098 2.00284 18.3255 2.00284V1.85284ZM19.075 2.06234C19.075 1.94663 18.9812 1.85284 18.8655 1.85284V2.00284C18.8984 2.00284 18.925 2.02948 18.925 2.06234H19.075ZM18.8655 6.2013C18.9812 6.2013 19.075 6.10751 19.075 5.9918H18.925C18.925 6.02466 18.8984 6.0513 18.8655 6.0513V6.2013ZM13.6143 6.2608C13.6143 6.22794 13.641 6.2013 13.6738 6.2013V6.0513C13.5581 6.0513 13.4643 6.1451 13.4643 6.2608H13.6143ZM13.6738 6.67759C13.641 6.67759 13.6143 6.65095 13.6143 6.61809H13.4643C13.4643 6.7338 13.5581 6.82759 13.6738 6.82759V6.67759ZM16.0413 6.88709C16.0413 6.77139 15.9475 6.67759 15.8318 6.67759V6.82759C15.8647 6.82759 15.8913 6.85423 15.8913 6.88709H16.0413ZM15.8318 7.38429C15.9475 7.38429 16.0413 7.2905 16.0413 7.1748H15.8913C15.8913 7.20766 15.8647 7.23429 15.8318 7.23429V7.38429ZM13.6143 7.44379C13.6143 7.41093 13.641 7.38429 13.6738 7.38429V7.23429C13.5581 7.23429 13.4643 7.32809 13.4643 7.44379H13.6143ZM13.6738 8.9044C13.641 8.9044 13.6143 8.87776 13.6143 8.8449H13.4643C13.4643 8.96061 13.5581 9.0544 13.6738 9.0544V8.9044ZM15.4346 9.1139C15.4346 8.9982 15.3408 8.9044 15.2251 8.9044V9.0544C15.2579 9.0544 15.2846 9.08104 15.2846 9.1139H15.4346ZM15.2251 10.7245C15.3408 10.7245 15.4346 10.6307 15.4346 10.515H15.2846C15.2846 10.5479 15.2579 10.5745 15.2251 10.5745V10.7245ZM14.4756 10.515C14.4756 10.6307 14.5694 10.7245 14.6851 10.7245V10.5745C14.6522 10.5745 14.6256 10.5479 14.6256 10.515H14.4756ZM14.4161 9.98224C14.4489 9.98224 14.4756 10.0089 14.4756 10.0417H14.6256C14.6256 9.92604 14.5318 9.83224 14.4161 9.83224V9.98224ZM13.6143 10.0417C13.6143 10.0089 13.641 9.98224 13.6738 9.98224V9.83224C13.5581 9.83224 13.4643 9.92604 13.4643 10.0417H13.6143ZM13.4048 12.7658C13.5205 12.7658 13.6143 12.672 13.6143 12.5563H13.4643C13.4643 12.5891 13.4377 12.6158 13.4048 12.6158V12.7658ZM12.8053 12.8253C12.8053 12.7924 12.832 12.7658 12.8648 12.7658V12.6158C12.7491 12.6158 12.6553 12.7095 12.6553 12.8253H12.8053ZM12.5958 14.0647C12.7115 14.0647 12.8053 13.9709 12.8053 13.8552H12.6553C12.6553 13.8881 12.6287 13.9147 12.5958 13.9147V14.0647ZM11.7941 14.1242C11.7941 14.0914 11.8207 14.0647 11.8536 14.0647V13.9147C11.7379 13.9147 11.6441 14.0085 11.6441 14.1242H11.7941ZM11.5846 14.9926C11.7003 14.9926 11.7941 14.8988 11.7941 14.7831H11.6441C11.6441 14.8159 11.6175 14.8426 11.5846 14.8426V14.9926ZM10.9851 15.0521C10.9851 15.0192 11.0118 14.9926 11.0446 14.9926V14.8426C10.9289 14.8426 10.8351 14.9364 10.8351 15.0521H10.9851ZM11.0446 18.1828C11.0118 18.1828 10.9851 18.1561 10.9851 18.1233H10.8351C10.8351 18.239 10.9289 18.3328 11.0446 18.3328V18.1828ZM11.7941 18.3923C11.7941 18.2766 11.7003 18.1828 11.5846 18.1828V18.3328C11.6175 18.3328 11.6441 18.3594 11.6441 18.3923H11.7941ZM11.5846 19.075C11.7003 19.075 11.7941 18.9813 11.7941 18.8655H11.6441C11.6441 18.8984 11.6175 18.925 11.5846 18.925V19.075ZM10.2256 18.925C10.1945 18.925 10.1687 18.9011 10.1662 18.8702L10.0167 18.8818C10.0252 18.9909 10.1162 19.075 10.2256 19.075V18.925Z" fill="black"/>
</svg>
