<svg width="22" height="22" viewBox="0 0 22 22" fill="none" xmlns="http://www.w3.org/2000/svg">
<rect width="22" height="22" rx="11" fill="#FFD4C8"/>
<path d="M7.867 6.37084L7.867 6.57255C7.867 6.67109 7.94688 6.75098 8.04542 6.75098L8.35856 6.75098C8.4571 6.75098 8.53698 6.67109 8.53698 6.57255L8.53698 6.37084C8.53698 6.34133 8.5609 6.31741 8.59041 6.31741L8.87001 6.31741C8.96855 6.31741 9.04843 6.23753 9.04843 6.13899L9.04843 5.94415C9.04843 5.91465 9.07235 5.89073 9.10185 5.89073L9.44853 5.89073C9.54707 5.89073 9.62695 5.81085 9.62695 5.71231L9.62695 5.51059C9.62695 5.41205 9.54707 5.33217 9.44853 5.33217L9.10185 5.33217C9.07235 5.33217 9.04843 5.30825 9.04843 5.27874L9.04843 5.0495C9.04843 4.95096 8.96855 4.87107 8.87001 4.87107L8.59041 4.87107C8.5609 4.87107 8.53699 4.84716 8.53699 4.81765L8.53699 4.61593C8.53699 4.51739 8.4571 4.43751 8.35856 4.43751L8.04542 4.43751C7.94688 4.43751 7.867 4.51739 7.867 4.61593L7.867 4.81765C7.867 4.84716 7.84308 4.87107 7.81358 4.87107L5.37919 4.87107C5.28065 4.87107 5.20077 4.95096 5.20077 5.0495L5.20077 5.27874C5.20077 5.30825 5.17685 5.33217 5.14735 5.33217L4.87613 5.33217C4.77759 5.33217 4.69771 5.41205 4.69771 5.51059L4.69771 5.71231C4.69771 5.74181 4.67379 5.76573 4.64429 5.76573L4.34792 5.76573C4.24938 5.76573 4.16949 5.84561 4.16949 5.94415L4.16949 6.57255C4.16949 6.67109 4.24938 6.75098 4.34792 6.75098L4.64429 6.75098C4.74283 6.75098 4.82271 6.67109 4.82271 6.57255L4.82271 6.37084C4.82271 6.34133 4.84663 6.31741 4.87613 6.31741L7.81358 6.31741C7.84308 6.31741 7.867 6.34133 7.867 6.37084Z" fill="#FF603B" stroke="black" stroke-width="0.125"/>
<path d="M5.9289 7.96217L5.9289 7.76045C5.9289 7.66191 5.84902 7.58203 5.75047 7.58203L5.43734 7.58203C5.3388 7.58203 5.25891 7.66191 5.25891 7.76045L5.25891 7.96217C5.25891 7.99168 5.235 8.0156 5.20549 8.0156L4.92589 8.0156C4.82735 8.0156 4.74747 8.09548 4.74747 8.19402L4.74747 8.38885C4.74747 8.41836 4.72355 8.44228 4.69404 8.44228L4.34737 8.44228C4.24883 8.44228 4.16895 8.52216 4.16895 8.6207L4.16895 8.82242C4.16895 8.92096 4.24883 9.00084 4.34737 9.00084L4.69404 9.00084C4.72355 9.00084 4.74747 9.02476 4.74747 9.05426L4.74747 9.28351C4.74747 9.38205 4.82735 9.46193 4.92589 9.46193L5.20549 9.46193C5.235 9.46193 5.25891 9.48585 5.25891 9.51536L5.25891 9.71707C5.25891 9.81561 5.3388 9.8955 5.43734 9.8955L5.75047 9.8955C5.84901 9.8955 5.9289 9.81561 5.9289 9.71707L5.9289 9.51536C5.9289 9.48585 5.95282 9.46193 5.98232 9.46193L8.4167 9.46193C8.51524 9.46193 8.59513 9.38205 8.59513 9.28351L8.59513 9.05426C8.59513 9.02476 8.61905 9.00084 8.64855 9.00084L8.91977 9.00084C9.01831 9.00084 9.09819 8.92096 9.09819 8.82242L9.09819 8.6207C9.09819 8.5912 9.12211 8.56728 9.15161 8.56728L9.44798 8.56728C9.54652 8.56728 9.62641 8.48739 9.62641 8.38885L9.62641 7.76045C9.62641 7.66191 9.54652 7.58203 9.44798 7.58203L9.15161 7.58203C9.05307 7.58203 8.97319 7.66191 8.97319 7.76045L8.97319 7.96217C8.97319 7.99168 8.94927 8.0156 8.91977 8.0156L5.98232 8.0156C5.95282 8.0156 5.9289 7.99168 5.9289 7.96217Z" fill="#FF603B" stroke="black" stroke-width="0.125"/>
<path d="M12.4326 19.388C12.4326 19.4499 12.3824 19.5 12.3205 19.5H11.188C11.1294 19.5 11.0808 19.455 11.0762 19.3967L10.9238 17.4385C10.9192 17.3801 10.8706 17.3351 10.812 17.3351H10.5222C10.4603 17.3351 10.4101 17.2849 10.4101 17.223V16.8286C10.4101 16.7667 10.3599 16.7165 10.298 16.7165H9.6795C9.6176 16.7165 9.56742 16.7667 9.56742 16.8286V17.223C9.56742 17.2849 9.51723 17.3351 9.45533 17.3351H8.8368C8.7749 17.3351 8.72472 17.3853 8.72472 17.4472V17.9962C8.72472 18.0581 8.67454 18.1083 8.61264 18.1083H7.99411C7.9322 18.1083 7.88202 18.1585 7.88202 18.2204V18.7694C7.88202 18.8313 7.9322 18.8815 7.99411 18.8815H8.61264C8.67454 18.8815 8.72472 18.9317 8.72472 18.9936V19.388C8.72472 19.4499 8.67454 19.5 8.61264 19.5H7.31995C7.25805 19.5 7.20787 19.4499 7.20787 19.388V16.8286C7.20787 16.7667 7.15768 16.7165 7.09578 16.7165H6.47725C6.41535 16.7165 6.36517 16.6663 6.36517 16.6044V16.2101C6.36517 16.1482 6.31499 16.098 6.25309 16.098H5.80309C5.74119 16.098 5.69101 16.0478 5.69101 15.9859V15.4369C5.69101 15.375 5.64083 15.3248 5.57893 15.3248H4.9604C4.8985 15.3248 4.84831 15.2746 4.84831 15.2127V14.6637C4.84831 14.6018 4.79813 14.5516 4.73623 14.5516H4.28624C4.22434 14.5516 4.17416 14.5014 4.17416 14.4395V13.8905C4.17416 13.8286 4.12398 13.7784 4.06207 13.7784H3.61208C3.55018 13.7784 3.5 13.7282 3.5 13.6663V10.0245C3.5 9.96257 3.55018 9.91239 3.61208 9.91239H4.06207C4.12398 9.91239 4.17416 9.96257 4.17416 10.0245V11.0374C4.17416 11.0993 4.22434 11.1495 4.28624 11.1495H4.73623C4.79813 11.1495 4.84831 11.1997 4.84831 11.2616V11.8106C4.84831 11.8725 4.8985 11.9227 4.9604 11.9227H5.57893C5.64083 11.9227 5.69101 11.9729 5.69101 12.0348V12.4292C5.69101 12.4911 5.74119 12.5413 5.80309 12.5413H7.09578C7.15768 12.5413 7.20787 12.4911 7.20787 12.4292V12.0348C7.20787 11.9729 7.25805 11.9227 7.31995 11.9227H7.93848C8.00038 11.9227 8.05056 11.8725 8.05056 11.8106V11.2616C8.05056 11.1997 8.10074 11.1495 8.16264 11.1495H8.94971C9.01162 11.1495 9.0618 11.0993 9.0618 11.0374V10.643C9.0618 10.5811 9.11198 10.5309 9.17388 10.5309H10.1295C10.1914 10.5309 10.2416 10.4808 10.2416 10.4189V9.86983C10.2416 9.80793 10.2918 9.75775 10.3537 9.75775H10.8669C10.9288 9.75775 10.9789 9.70756 10.9789 9.64566V5.38528C10.9789 5.32338 11.0291 5.2732 11.091 5.2732H11.6463C11.7082 5.2732 11.7584 5.22302 11.7584 5.16112V4.61208C11.7584 4.55018 11.8086 4.5 11.8705 4.5H17.7138C17.7757 4.5 17.8258 4.55018 17.8258 4.61208V5.16112C17.8258 5.22302 17.876 5.2732 17.9379 5.2732H18.3879C18.4498 5.2732 18.5 5.32338 18.5 5.38528V8.65984C18.5 8.72174 18.4498 8.77192 18.3879 8.77192H14.0615C13.9996 8.77192 13.9494 8.8221 13.9494 8.884V9.18174C13.9494 9.24365 13.9996 9.29383 14.0615 9.29383H15.8598C15.9217 9.29383 15.9719 9.34401 15.9719 9.40591V9.64566C15.9719 9.70756 15.9217 9.75775 15.8598 9.75775H14.0615C13.9996 9.75775 13.9494 9.80793 13.9494 9.86983V11.0374C13.9494 11.0993 13.9996 11.1495 14.0615 11.1495H15.3542C15.4161 11.1495 15.4663 11.1997 15.4663 11.2616V12.4292C15.4663 12.4911 15.4161 12.5413 15.3542 12.5413H14.9042C14.8423 12.5413 14.7921 12.4911 14.7921 12.4292V12.0348C14.7921 11.9729 14.742 11.9227 14.6801 11.9227H14.0615C13.9996 11.9227 13.9494 11.9729 13.9494 12.0348V14.1302C13.9494 14.1921 13.8993 14.2423 13.8374 14.2423H13.3874C13.3255 14.2423 13.2753 14.2925 13.2753 14.3544V15.2127C13.2753 15.2746 13.2251 15.3248 13.1632 15.3248H12.5447C12.4828 15.3248 12.4326 15.375 12.4326 15.4369V15.9859C12.4326 16.0478 12.3824 16.098 12.3205 16.098H11.8705C11.8086 16.098 11.7584 16.1481 11.7584 16.2101V18.7694C11.7584 18.8313 11.8086 18.8815 11.8705 18.8815H12.3205C12.3824 18.8815 12.4326 18.9317 12.4326 18.9936V19.388Z" fill="#FF603B"/>
<path d="M10.9238 17.4385L10.9861 17.4336L10.9238 17.4385ZM11.0762 19.3967L11.0139 19.4015L11.0762 19.3967ZM11.188 19.5625H12.3205V19.4375H11.188V19.5625ZM12.4951 19.388V18.9936H12.3701V19.388H12.4951ZM12.3205 18.819H11.8705V18.944H12.3205V18.819ZM11.8209 18.7694V16.2101H11.6959V18.7694H11.8209ZM11.8705 16.1605H12.3205V16.0355H11.8705V16.1605ZM12.4951 15.9859V15.4369H12.3701V15.9859H12.4951ZM12.5447 15.3873H13.1632V15.2623H12.5447V15.3873ZM13.3378 15.2127V14.3544H13.2128V15.2127H13.3378ZM13.3874 14.3048H13.8374V14.1798H13.3874V14.3048ZM14.0119 14.1302V12.0348H13.8869V14.1302H14.0119ZM14.0615 11.9852H14.6801V11.8602H14.0615V11.9852ZM14.7296 12.0348V12.4292H14.8546V12.0348H14.7296ZM14.9042 12.6038H15.3542V12.4788H14.9042V12.6038ZM15.5288 12.4292V11.2616H15.4038V12.4292H15.5288ZM15.3542 11.087H14.0615V11.212H15.3542V11.087ZM14.0119 11.0374V9.86983H13.8869V11.0374H14.0119ZM14.0615 9.82025H15.8598V9.69525H14.0615V9.82025ZM16.0344 9.64566V9.40591H15.9094V9.64566H16.0344ZM15.8598 9.23133H14.0615V9.35633H15.8598V9.23133ZM14.0119 9.18174V8.884H13.8869V9.18174H14.0119ZM14.0615 8.83442H18.3879V8.70942H14.0615V8.83442ZM18.5625 8.65984V5.38528H18.4375V8.65984H18.5625ZM18.3879 5.2107H17.9379V5.3357H18.3879V5.2107ZM17.8883 5.16112V4.61208H17.7633V5.16112H17.8883ZM17.7138 4.4375H11.8705V4.5625H17.7138V4.4375ZM11.6959 4.61208V5.16112H11.8209V4.61208H11.6959ZM11.6463 5.2107H11.091V5.3357H11.6463V5.2107ZM10.9164 5.38528V9.64566H11.0414V5.38528H10.9164ZM10.8669 9.69525H10.3537V9.82025H10.8669V9.69525ZM10.1791 9.86983V10.4189H10.3041V9.86983H10.1791ZM10.1295 10.4684H9.17388V10.5934H10.1295V10.4684ZM8.9993 10.643V11.0374H9.1243V10.643H8.9993ZM8.94971 11.087H8.16264V11.212H8.94971V11.087ZM7.98806 11.2616V11.8106H8.11306V11.2616H7.98806ZM7.93848 11.8602H7.31995V11.9852H7.93848V11.8602ZM7.14537 12.0348V12.4292H7.27037V12.0348H7.14537ZM7.09578 12.4788H5.80309V12.6038H7.09578V12.4788ZM5.75351 12.4292V12.0348H5.62851V12.4292H5.75351ZM5.57893 11.8602H4.9604V11.9852H5.57893V11.8602ZM4.91081 11.8106V11.2616H4.78581V11.8106H4.91081ZM4.73623 11.087H4.28624V11.212H4.73623V11.087ZM4.23666 11.0374V10.0245H4.11166V11.0374H4.23666ZM4.06207 9.84989H3.61208V9.97489H4.06207V9.84989ZM3.4375 10.0245V13.6663H3.5625V10.0245H3.4375ZM3.61208 13.8409H4.06207V13.7159H3.61208V13.8409ZM4.11166 13.8905V14.4395H4.23666V13.8905H4.11166ZM4.28624 14.6141H4.73623V14.4891H4.28624V14.6141ZM4.78581 14.6637V15.2127H4.91081V14.6637H4.78581ZM4.9604 15.3873H5.57893V15.2623H4.9604V15.3873ZM5.62851 15.4369V15.9859H5.75351V15.4369H5.62851ZM5.80309 16.1605H6.25309V16.0355H5.80309V16.1605ZM6.30267 16.2101V16.6044H6.42767V16.2101H6.30267ZM6.47725 16.779H7.09578V16.654H6.47725V16.779ZM7.14537 16.8286V19.388H7.27037V16.8286H7.14537ZM7.31995 19.5625H8.61264V19.4375H7.31995V19.5625ZM8.78722 19.388V18.9936H8.66222V19.388H8.78722ZM8.61264 18.819H7.99411V18.944H8.61264V18.819ZM7.94452 18.7694V18.2204H7.81952V18.7694H7.94452ZM7.99411 18.1708H8.61264V18.0458H7.99411V18.1708ZM8.78722 17.9962V17.4472H8.66222V17.9962H8.78722ZM8.8368 17.3976H9.45533V17.2726H8.8368V17.3976ZM9.62992 17.223V16.8286H9.50492V17.223H9.62992ZM9.6795 16.779H10.298V16.654H9.6795V16.779ZM10.3476 16.8286V17.223H10.4726V16.8286H10.3476ZM10.5222 17.3976H10.812V17.2726H10.5222V17.3976ZM10.8615 17.4433L11.0139 19.4015L11.1385 19.3918L10.9861 17.4336L10.8615 17.4433ZM10.812 17.3976C10.8379 17.3976 10.8595 17.4175 10.8615 17.4433L10.9861 17.4336C10.979 17.3427 10.9032 17.2726 10.812 17.2726V17.3976ZM10.3476 17.223C10.3476 17.3194 10.4258 17.3976 10.5222 17.3976V17.2726C10.4948 17.2726 10.4726 17.2504 10.4726 17.223H10.3476ZM10.298 16.779C10.3254 16.779 10.3476 16.8012 10.3476 16.8286H10.4726C10.4726 16.7322 10.3944 16.654 10.298 16.654V16.779ZM9.62992 16.8286C9.62992 16.8012 9.65211 16.779 9.6795 16.779V16.654C9.58308 16.654 9.50492 16.7322 9.50492 16.8286H9.62992ZM9.45533 17.3976C9.55175 17.3976 9.62992 17.3194 9.62992 17.223H9.50492C9.50492 17.2504 9.48272 17.2726 9.45533 17.2726V17.3976ZM8.78722 17.4472C8.78722 17.4198 8.80942 17.3976 8.8368 17.3976V17.2726C8.74038 17.2726 8.66222 17.3507 8.66222 17.4472H8.78722ZM8.61264 18.1708C8.70906 18.1708 8.78722 18.0926 8.78722 17.9962H8.66222C8.66222 18.0236 8.64002 18.0458 8.61264 18.0458V18.1708ZM7.94452 18.2204C7.94452 18.193 7.96672 18.1708 7.99411 18.1708V18.0458C7.89769 18.0458 7.81952 18.1239 7.81952 18.2204H7.94452ZM7.99411 18.819C7.96672 18.819 7.94452 18.7968 7.94452 18.7694H7.81952C7.81952 18.8658 7.89769 18.944 7.99411 18.944V18.819ZM8.78722 18.9936C8.78722 18.8971 8.70906 18.819 8.61264 18.819V18.944C8.64002 18.944 8.66222 18.9662 8.66222 18.9936H8.78722ZM8.61264 19.5625C8.70906 19.5625 8.78722 19.4844 8.78722 19.388H8.66222C8.66222 19.4153 8.64002 19.4375 8.61264 19.4375V19.5625ZM7.14537 19.388C7.14537 19.4844 7.22353 19.5625 7.31995 19.5625V19.4375C7.29256 19.4375 7.27037 19.4153 7.27037 19.388H7.14537ZM7.09578 16.779C7.12317 16.779 7.14537 16.8012 7.14537 16.8286H7.27037C7.27037 16.7322 7.1922 16.654 7.09578 16.654V16.779ZM6.30267 16.6044C6.30267 16.7009 6.38083 16.779 6.47725 16.779V16.654C6.44987 16.654 6.42767 16.6318 6.42767 16.6044H6.30267ZM6.25309 16.1605C6.28047 16.1605 6.30267 16.1827 6.30267 16.2101H6.42767C6.42767 16.1136 6.34951 16.0355 6.25309 16.0355V16.1605ZM5.62851 15.9859C5.62851 16.0823 5.70667 16.1605 5.80309 16.1605V16.0355C5.77571 16.0355 5.75351 16.0133 5.75351 15.9859H5.62851ZM5.57893 15.3873C5.60631 15.3873 5.62851 15.4095 5.62851 15.4369H5.75351C5.75351 15.3404 5.67535 15.2623 5.57893 15.2623V15.3873ZM4.78581 15.2127C4.78581 15.3091 4.86398 15.3873 4.9604 15.3873V15.2623C4.93301 15.2623 4.91081 15.2401 4.91081 15.2127H4.78581ZM4.73623 14.6141C4.76362 14.6141 4.78581 14.6363 4.78581 14.6637H4.91081C4.91081 14.5672 4.83265 14.4891 4.73623 14.4891V14.6141ZM4.11166 14.4395C4.11166 14.5359 4.18982 14.6141 4.28624 14.6141V14.4891C4.25886 14.4891 4.23666 14.4669 4.23666 14.4395H4.11166ZM4.06207 13.8409C4.08946 13.8409 4.11166 13.8631 4.11166 13.8905H4.23666C4.23666 13.794 4.15849 13.7159 4.06207 13.7159V13.8409ZM3.4375 13.6663C3.4375 13.7627 3.51566 13.8409 3.61208 13.8409V13.7159C3.5847 13.7159 3.5625 13.6937 3.5625 13.6663H3.4375ZM3.61208 9.84989C3.51566 9.84989 3.4375 9.92805 3.4375 10.0245H3.5625C3.5625 9.99708 3.5847 9.97489 3.61208 9.97489V9.84989ZM4.23666 10.0245C4.23666 9.92805 4.15849 9.84989 4.06207 9.84989V9.97489C4.08946 9.97489 4.11166 9.99708 4.11166 10.0245H4.23666ZM4.28624 11.087C4.25886 11.087 4.23666 11.0648 4.23666 11.0374H4.11166C4.11166 11.1338 4.18982 11.212 4.28624 11.212V11.087ZM4.91081 11.2616C4.91081 11.1652 4.83265 11.087 4.73623 11.087V11.212C4.76362 11.212 4.78581 11.2342 4.78581 11.2616H4.91081ZM4.9604 11.8602C4.93301 11.8602 4.91081 11.838 4.91081 11.8106H4.78581C4.78581 11.907 4.86398 11.9852 4.9604 11.9852V11.8602ZM5.75351 12.0348C5.75351 11.9384 5.67535 11.8602 5.57893 11.8602V11.9852C5.60631 11.9852 5.62851 12.0074 5.62851 12.0348H5.75351ZM5.80309 12.4788C5.77571 12.4788 5.75351 12.4566 5.75351 12.4292H5.62851C5.62851 12.5256 5.70667 12.6038 5.80309 12.6038V12.4788ZM7.14537 12.4292C7.14537 12.4566 7.12317 12.4788 7.09578 12.4788V12.6038C7.1922 12.6038 7.27037 12.5256 7.27037 12.4292H7.14537ZM7.31995 11.8602C7.22353 11.8602 7.14537 11.9384 7.14537 12.0348H7.27037C7.27037 12.0074 7.29256 11.9852 7.31995 11.9852V11.8602ZM7.98806 11.8106C7.98806 11.838 7.96586 11.8602 7.93848 11.8602V11.9852C8.0349 11.9852 8.11306 11.907 8.11306 11.8106H7.98806ZM8.16264 11.087C8.06623 11.087 7.98806 11.1652 7.98806 11.2616H8.11306C8.11306 11.2342 8.13526 11.212 8.16264 11.212V11.087ZM8.9993 11.0374C8.9993 11.0648 8.9771 11.087 8.94971 11.087V11.212C9.04613 11.212 9.1243 11.1338 9.1243 11.0374H8.9993ZM9.17388 10.4684C9.07746 10.4684 8.9993 10.5466 8.9993 10.643H9.1243C9.1243 10.6156 9.1465 10.5934 9.17388 10.5934V10.4684ZM10.1791 10.4189C10.1791 10.4462 10.1569 10.4684 10.1295 10.4684V10.5934C10.2259 10.5934 10.3041 10.5153 10.3041 10.4189H10.1791ZM10.3537 9.69525C10.2572 9.69525 10.1791 9.77341 10.1791 9.86983H10.3041C10.3041 9.84244 10.3263 9.82025 10.3537 9.82025V9.69525ZM10.9164 9.64566C10.9164 9.67305 10.8942 9.69525 10.8669 9.69525V9.82025C10.9633 9.82025 11.0414 9.74208 11.0414 9.64566H10.9164ZM11.091 5.2107C10.9946 5.2107 10.9164 5.28886 10.9164 5.38528H11.0414C11.0414 5.3579 11.0636 5.3357 11.091 5.3357V5.2107ZM11.6959 5.16112C11.6959 5.1885 11.6737 5.2107 11.6463 5.2107V5.3357C11.7428 5.3357 11.8209 5.25753 11.8209 5.16112H11.6959ZM11.8705 4.4375C11.7741 4.4375 11.6959 4.51566 11.6959 4.61208H11.8209C11.8209 4.5847 11.8431 4.5625 11.8705 4.5625V4.4375ZM17.8883 4.61208C17.8883 4.51566 17.8102 4.4375 17.7138 4.4375V4.5625C17.7411 4.5625 17.7633 4.5847 17.7633 4.61208H17.8883ZM17.9379 5.2107C17.9105 5.2107 17.8883 5.1885 17.8883 5.16112H17.7633C17.7633 5.25753 17.8415 5.3357 17.9379 5.3357V5.2107ZM18.5625 5.38528C18.5625 5.28886 18.4843 5.2107 18.3879 5.2107V5.3357C18.4153 5.3357 18.4375 5.3579 18.4375 5.38528H18.5625ZM18.3879 8.83442C18.4843 8.83442 18.5625 8.75625 18.5625 8.65984H18.4375C18.4375 8.68722 18.4153 8.70942 18.3879 8.70942V8.83442ZM14.0119 8.884C14.0119 8.85662 14.0341 8.83442 14.0615 8.83442V8.70942C13.9651 8.70942 13.8869 8.78758 13.8869 8.884H14.0119ZM14.0615 9.23133C14.0341 9.23133 14.0119 9.20913 14.0119 9.18174H13.8869C13.8869 9.27816 13.9651 9.35633 14.0615 9.35633V9.23133ZM16.0344 9.40591C16.0344 9.30949 15.9562 9.23133 15.8598 9.23133V9.35633C15.8872 9.35633 15.9094 9.37853 15.9094 9.40591H16.0344ZM15.8598 9.82025C15.9562 9.82025 16.0344 9.74208 16.0344 9.64566H15.9094C15.9094 9.67305 15.8872 9.69525 15.8598 9.69525V9.82025ZM14.0119 9.86983C14.0119 9.84244 14.0341 9.82025 14.0615 9.82025V9.69525C13.9651 9.69525 13.8869 9.77341 13.8869 9.86983H14.0119ZM14.0615 11.087C14.0341 11.087 14.0119 11.0648 14.0119 11.0374H13.8869C13.8869 11.1338 13.9651 11.212 14.0615 11.212V11.087ZM15.5288 11.2616C15.5288 11.1652 15.4506 11.087 15.3542 11.087V11.212C15.3816 11.212 15.4038 11.2342 15.4038 11.2616H15.5288ZM15.3542 12.6038C15.4506 12.6038 15.5288 12.5256 15.5288 12.4292H15.4038C15.4038 12.4566 15.3816 12.4788 15.3542 12.4788V12.6038ZM14.7296 12.4292C14.7296 12.5256 14.8078 12.6038 14.9042 12.6038V12.4788C14.8768 12.4788 14.8546 12.4566 14.8546 12.4292H14.7296ZM14.6801 11.9852C14.7074 11.9852 14.7296 12.0074 14.7296 12.0348H14.8546C14.8546 11.9384 14.7765 11.8602 14.6801 11.8602V11.9852ZM14.0119 12.0348C14.0119 12.0074 14.0341 11.9852 14.0615 11.9852V11.8602C13.9651 11.8602 13.8869 11.9384 13.8869 12.0348H14.0119ZM13.8374 14.3048C13.9338 14.3048 14.0119 14.2266 14.0119 14.1302H13.8869C13.8869 14.1576 13.8647 14.1798 13.8374 14.1798V14.3048ZM13.3378 14.3544C13.3378 14.327 13.36 14.3048 13.3874 14.3048V14.1798C13.2909 14.1798 13.2128 14.258 13.2128 14.3544H13.3378ZM13.1632 15.3873C13.2596 15.3873 13.3378 15.3091 13.3378 15.2127H13.2128C13.2128 15.2401 13.1906 15.2623 13.1632 15.2623V15.3873ZM12.4951 15.4369C12.4951 15.4095 12.5173 15.3873 12.5447 15.3873V15.2623C12.4482 15.2623 12.3701 15.3404 12.3701 15.4369H12.4951ZM12.3205 16.1605C12.4169 16.1605 12.4951 16.0823 12.4951 15.9859H12.3701C12.3701 16.0133 12.3479 16.0355 12.3205 16.0355V16.1605ZM11.8209 16.2101C11.8209 16.1827 11.8431 16.1605 11.8705 16.1605V16.0355C11.7741 16.0355 11.6959 16.1136 11.6959 16.2101H11.8209ZM11.8705 18.819C11.8431 18.819 11.8209 18.7968 11.8209 18.7694H11.6959C11.6959 18.8658 11.7741 18.944 11.8705 18.944V18.819ZM12.4951 18.9936C12.4951 18.8971 12.4169 18.819 12.3205 18.819V18.944C12.3479 18.944 12.3701 18.9662 12.3701 18.9936H12.4951ZM12.3205 19.5625C12.4169 19.5625 12.4951 19.4844 12.4951 19.388H12.3701C12.3701 19.4153 12.3479 19.4375 12.3205 19.4375V19.5625ZM11.188 19.4375C11.1621 19.4375 11.1405 19.4176 11.1385 19.3918L11.0139 19.4015C11.021 19.4924 11.0968 19.5625 11.188 19.5625V19.4375Z" fill="black"/>
</svg>
