<svg width="16" height="17" viewBox="0 0 16 17" fill="none" xmlns="http://www.w3.org/2000/svg">
<g clip-path="url(#clip0_2916_1436)">
<path d="M1.33854 4.01317L2.19188 3.1665L13.3385 14.3132L12.4919 15.1665L10.4385 13.1132C9.67188 13.3665 8.85854 13.4998 8.00521 13.4998C4.67188 13.4998 1.82521 11.4265 0.671875 8.49984C1.13188 7.3265 1.86521 6.29317 2.79854 5.47317L1.33854 4.01317ZM8.00521 6.49984C8.53564 6.49984 9.04435 6.71055 9.41942 7.08562C9.7945 7.4607 10.0052 7.9694 10.0052 8.49984C10.0055 8.72688 9.96722 8.95233 9.89188 9.1665L7.33854 6.61317C7.55272 6.53783 7.77816 6.4995 8.00521 6.49984ZM8.00521 3.49984C11.3385 3.49984 14.1852 5.57317 15.3385 8.49984C14.7941 9.88179 13.8696 11.0814 12.6719 11.9598L11.7252 11.0065C12.6472 10.3688 13.3907 9.50591 13.8852 8.49984C13.3463 7.39975 12.5096 6.47292 11.4701 5.82474C10.4307 5.17655 9.2302 4.83301 8.00521 4.83317C7.27854 4.83317 6.56521 4.95317 5.89854 5.1665L4.87188 4.1465C5.83188 3.73317 6.89188 3.49984 8.00521 3.49984ZM2.12521 8.49984C2.66411 9.59993 3.50085 10.5267 4.5403 11.1749C5.57975 11.8231 6.78022 12.1667 8.00521 12.1665C8.46521 12.1665 8.91854 12.1198 9.33854 12.0265L7.81854 10.4998C7.35465 10.4501 6.92176 10.2431 6.59186 9.91319C6.26196 9.58329 6.05493 9.1504 6.00521 8.6865L3.73854 6.41317C3.07854 6.97984 2.52521 7.6865 2.12521 8.49984Z" fill="black"/>
</g>
<defs>
<clipPath id="clip0_2916_1436">
<rect width="16" height="16" fill="white" transform="translate(0 0.5)"/>
</clipPath>
</defs>
</svg>
