<svg width="150" height="150" viewBox="0 0 150 150" fill="none" xmlns="http://www.w3.org/2000/svg">
<path d="M148 74.9998C148 115.317 115.317 148 75 148C34.6832 148 2 115.317 2 74.9998C2 34.6831 34.6832 2 75 2C115.317 2 148 34.6831 148 74.9998Z" stroke="#FF603B" stroke-width="4"/>
<path fill-rule="evenodd" clip-rule="evenodd" d="M76.6741 78.9259L92.5181 94.7699C93.0464 95.2801 93.7538 95.5624 94.4882 95.5561C95.2226 95.5497 95.925 95.2551 96.4443 94.7358C96.9636 94.2165 97.2582 93.5141 97.2645 92.7797C97.2709 92.0454 96.9886 91.3379 96.4784 90.8096L80.6344 74.9656L96.4784 59.1215C96.9886 58.5933 97.2709 57.8858 97.2645 57.1515C97.2582 56.4171 96.9636 55.7146 96.4443 55.1953C95.925 54.676 95.2226 54.3815 94.4882 54.3751C93.7538 54.3687 93.0464 54.651 92.5181 55.1612L76.6741 71.0053L60.83 55.1612C60.2994 54.6636 59.596 54.392 58.8687 54.4038C58.1414 54.4156 57.4472 54.71 56.933 55.2245C56.4188 55.739 56.125 56.4334 56.1137 57.1608C56.1024 57.8881 56.3745 58.5913 56.8725 59.1215L72.7138 74.9656L56.8697 90.8096C56.6022 91.068 56.3888 91.3771 56.242 91.7188C56.0952 92.0605 56.018 92.428 56.0148 92.7999C56.0115 93.1718 56.0824 93.5406 56.2232 93.8848C56.364 94.229 56.572 94.5417 56.835 94.8047C57.098 95.0676 57.4107 95.2756 57.7549 95.4164C58.0991 95.5573 58.4679 95.6281 58.8398 95.6249C59.2117 95.6217 59.5792 95.5444 59.9209 95.3976C60.2626 95.2508 60.5716 95.0375 60.83 94.7699L76.6741 78.9259Z" fill="#FF603B"/>
</svg>
