<svg width="150" height="150" viewBox="0 0 150 150" fill="none" xmlns="http://www.w3.org/2000/svg">
<path d="M148 74.9998C148 115.317 115.317 148 75 148C34.6832 148 2 115.317 2 74.9998C2 34.6831 34.6832 2 75 2C115.317 2 148 34.6831 148 74.9998Z" stroke="#FF603B" stroke-width="4"/>
<path d="M72.5 97C72.5 98.3807 73.6193 99.5 75 99.5C76.3807 99.5 77.5 98.3807 77.5 97L72.5 97ZM76.7678 50.2322C75.7915 49.2559 74.2085 49.2559 73.2322 50.2322L57.3223 66.1421C56.346 67.1184 56.346 68.7014 57.3223 69.6777C58.2986 70.654 59.8816 70.654 60.8579 69.6777L75 55.5355L89.1421 69.6777C90.1184 70.654 91.7014 70.654 92.6777 69.6777C93.654 68.7014 93.654 67.1184 92.6777 66.1421L76.7678 50.2322ZM77.5 97L77.5 52L72.5 52L72.5 97L77.5 97Z" fill="#FF603B"/>
</svg>
