<svg width="90" height="90" viewBox="0 0 90 90" fill="none" xmlns="http://www.w3.org/2000/svg">
<circle cx="45" cy="45" r="44" fill="white" stroke="black" stroke-width="2"/>
<path d="M46.5 30C46.5 29.1716 45.8284 28.5 45 28.5C44.1716 28.5 43.5 29.1716 43.5 30L46.5 30ZM43.9393 61.0607C44.5251 61.6464 45.4749 61.6464 46.0607 61.0607L55.6066 51.5147C56.1924 50.9289 56.1924 49.9792 55.6066 49.3934C55.0208 48.8076 54.0711 48.8076 53.4853 49.3934L45 57.8787L36.5147 49.3934C35.9289 48.8076 34.9792 48.8076 34.3934 49.3934C33.8076 49.9792 33.8076 50.9289 34.3934 51.5147L43.9393 61.0607ZM43.5 30L43.5 60L46.5 60L46.5 30L43.5 30Z" fill="black"/>
</svg>
