<svg width="16" height="17" viewBox="0 0 16 17" fill="none" xmlns="http://www.w3.org/2000/svg">
<g clip-path="url(#clip0_3692_4408)">
<path fill-rule="evenodd" clip-rule="evenodd" d="M7.70606 0.790136C7.48406 0.862136 7.35606 0.990136 7.29406 1.19914C7.25906 1.31614 7.25306 1.58814 7.25306 3.00814C7.25306 4.88914 7.25106 4.86514 7.44306 5.05714C7.70006 5.31314 8.30006 5.31314 8.55706 5.05714C8.74906 4.86514 8.74706 4.88914 8.74706 3.00814C8.74706 1.18814 8.74406 1.15614 8.59606 0.980136C8.47206 0.833136 8.33906 0.784136 8.04006 0.776136C7.89306 0.772136 7.74306 0.778136 7.70606 0.790136ZM2.75306 2.76614C2.59506 2.83814 2.36206 3.06614 2.28106 3.22814C2.19706 3.39714 2.19306 3.58514 2.26906 3.75314C2.34306 3.91814 4.66706 6.25014 4.85006 6.34314C5.10906 6.47614 5.37506 6.41114 5.64306 6.14914C5.90706 5.89114 5.97706 5.61114 5.84306 5.35014C5.75006 5.16714 3.41806 2.84314 3.25306 2.76914C3.10106 2.70014 2.90106 2.69914 2.75306 2.76614ZM12.8531 2.78214C12.7301 2.83914 12.5201 3.03614 11.5181 4.04114C10.5971 4.96414 10.3161 5.26214 10.2711 5.36014C10.1951 5.52514 10.1961 5.71614 10.2721 5.87814C10.3421 6.02814 10.5721 6.26414 10.7271 6.34514C10.8841 6.42714 11.1171 6.42614 11.2801 6.34314C11.4471 6.25714 13.7571 3.94714 13.8431 3.78014C13.9261 3.61814 13.9271 3.38414 13.8461 3.22914C13.7641 3.07214 13.5521 2.86414 13.3921 2.78314C13.2131 2.69214 13.0481 2.69214 12.8531 2.78214ZM0.699057 7.79214C0.404057 7.88514 0.258057 8.12014 0.258057 8.49914C0.259057 8.88614 0.403057 9.11814 0.698057 9.20614C0.816057 9.24114 1.07906 9.24714 2.50806 9.24714C3.99706 9.24714 4.19606 9.24214 4.31806 9.20214C4.49806 9.14414 4.64406 8.99814 4.70206 8.81814C4.78806 8.55314 4.74506 8.17714 4.60806 7.99114C4.57806 7.95114 4.49206 7.88414 4.41706 7.84314L4.28006 7.76714L2.54706 7.76114C1.15206 7.75714 0.791057 7.76314 0.699057 7.79214ZM11.7451 7.77814C11.6221 7.80814 11.4521 7.91114 11.3921 7.99214C11.2551 8.17714 11.2121 8.55314 11.2981 8.81814C11.3561 8.99814 11.5021 9.14414 11.6821 9.20214C11.8041 9.24214 12.0031 9.24714 13.4921 9.24714C14.9211 9.24714 15.1841 9.24114 15.3021 9.20614C15.5971 9.11814 15.7411 8.88614 15.7421 8.49914C15.7421 8.11414 15.5951 7.88314 15.2901 7.79114C15.1871 7.76014 14.8641 7.75414 13.4961 7.75614C12.5781 7.75814 11.7901 7.76814 11.7451 7.77814ZM4.85306 10.7821C4.73006 10.8391 4.52006 11.0361 3.51806 12.0411C2.59706 12.9641 2.31606 13.2621 2.27106 13.3601C2.19506 13.5251 2.19606 13.7161 2.27206 13.8781C2.34206 14.0281 2.57206 14.2641 2.72706 14.3451C2.88406 14.4271 3.11706 14.4261 3.28006 14.3431C3.44706 14.2571 5.75706 11.9471 5.84306 11.7801C5.92606 11.6181 5.92706 11.3841 5.84606 11.2291C5.76406 11.0721 5.55206 10.8641 5.39206 10.7831C5.21306 10.6921 5.04806 10.6921 4.85306 10.7821ZM10.7531 10.7661C10.5951 10.8381 10.3621 11.0661 10.2811 11.2281C10.1971 11.3971 10.1931 11.5851 10.2691 11.7531C10.3431 11.9181 12.6671 14.2501 12.8501 14.3431C13.1091 14.4761 13.3751 14.4111 13.6431 14.1491C13.9071 13.8911 13.9771 13.6111 13.8431 13.3501C13.7501 13.1671 11.4181 10.8431 11.2531 10.7691C11.1011 10.7001 10.9011 10.6991 10.7531 10.7661ZM7.74506 11.7771C7.62006 11.8091 7.45106 11.9121 7.39206 11.9921C7.25406 12.1781 7.25306 12.1911 7.25306 13.9891C7.25306 15.4211 7.25906 15.6841 7.29406 15.8021C7.38206 16.0971 7.61506 16.2411 8.00006 16.2411C8.38506 16.2411 8.61806 16.0971 8.70606 15.8021C8.76806 15.5901 8.76706 12.3751 8.70406 12.1901C8.64406 12.0141 8.57506 11.9301 8.42006 11.8461C8.31006 11.7861 8.24606 11.7711 8.05706 11.7641C7.93006 11.7591 7.79006 11.7651 7.74506 11.7771Z" fill="#FF603B"/>
</g>
<defs>
<clipPath id="clip0_3692_4408">
<rect width="16" height="16" fill="white" transform="translate(0 0.5)"/>
</clipPath>
</defs>
</svg>
