<svg width="42" height="35" viewBox="0 0 42 35" fill="none" xmlns="http://www.w3.org/2000/svg">
<g filter="url(#filter0_d_3692_2351)">
<g filter="url(#filter1_d_3692_2351)">
<path d="M13.9336 17.0734H27.9196V29.2837L20.9211 31.7295C20.8671 31.7484 20.8082 31.7483 20.7543 31.7293L13.9336 29.3256V17.0734Z" fill="url(#paint0_linear_3692_2351)"/>
<path d="M13.9336 17.0734H27.9196V29.2837L20.9211 31.7295C20.8671 31.7484 20.8082 31.7483 20.7543 31.7293L13.9336 29.3256V17.0734Z" stroke="url(#paint1_linear_3692_2351)" stroke-width="0.174825"/>
</g>
<path fill-rule="evenodd" clip-rule="evenodd" d="M22.937 30.9292L20.9618 31.6404C20.9065 31.6604 20.8459 31.6603 20.7905 31.6402L18.7412 30.8961V21.9685H22.937V30.9292Z" fill="url(#paint2_linear_3692_2351)"/>
<path fill-rule="evenodd" clip-rule="evenodd" d="M14.7559 23.4051H14.8952V28.8701L20.8829 30.9719L26.9062 28.7866V23.3218H27.0455V28.8361L20.8823 31.075L14.7559 28.9192V23.4051Z" fill="url(#paint3_linear_3692_2351)"/>
<path fill-rule="evenodd" clip-rule="evenodd" d="M20.9207 28.9614V30.5473H20.8447V28.9614H20.9207Z" fill="url(#paint4_linear_3692_2351)"/>
<path fill-rule="evenodd" clip-rule="evenodd" d="M20.6547 29.9845C20.5035 30.1589 20.3193 30.1978 20.1924 30.1766L20.2049 30.1017C20.306 30.1185 20.4636 30.0889 20.5973 29.9347C20.7316 29.7799 20.8445 29.4959 20.8445 28.9994H20.9205C20.9205 29.5059 20.8054 29.8107 20.6547 29.9845Z" fill="url(#paint5_linear_3692_2351)"/>
<path fill-rule="evenodd" clip-rule="evenodd" d="M21.1104 29.9845C21.2616 30.1589 21.4459 30.1978 21.5728 30.1766L21.5603 30.1017C21.4592 30.1185 21.3015 30.0889 21.1678 29.9347C21.0336 29.7799 20.9207 29.4959 20.9207 28.9994H20.8447C20.8447 29.5059 20.9597 29.8107 21.1104 29.9845Z" fill="url(#paint6_linear_3692_2351)"/>
<path fill-rule="evenodd" clip-rule="evenodd" d="M20.8668 30.5819L20.0088 30.1012L20.1987 30.1012L20.8826 30.5056L21.5664 30.0978H21.7341L20.8983 30.5819C20.8883 30.5865 20.8768 30.5865 20.8668 30.5819Z" fill="url(#paint7_linear_3692_2351)"/>
<path d="M11.5293 15.089L11.5293 11.4794L3.00657 11.4794C3.00657 13.7354 4.60147 15.089 5.89732 15.089L11.5293 15.089Z" fill="url(#paint8_linear_3692_2351)"/>
<path d="M11.5293 15.089L11.5293 11.4794L3.00657 11.4794C3.00657 13.7354 4.60147 15.089 5.89732 15.089L11.5293 15.089Z" fill="url(#paint9_linear_3692_2351)" stroke="url(#paint10_linear_3692_2351)" stroke-width="0.200535"/>
<path d="M14.5376 18.2974L14.5376 14.6877L6.01487 14.6877C6.01487 16.9438 7.60977 18.2974 8.90562 18.2974L14.5376 18.2974Z" fill="url(#paint11_linear_3692_2351)"/>
<path d="M14.5376 18.2974L14.5376 14.6877L6.01487 14.6877C6.01487 16.9438 7.60977 18.2974 8.90562 18.2974L14.5376 18.2974Z" fill="url(#paint12_linear_3692_2351)" stroke="url(#paint13_linear_3692_2351)" stroke-width="0.200535"/>
<path d="M30.3076 15.089L30.3076 11.4794L38.8303 11.4794C38.8303 13.7354 37.2354 15.089 35.9396 15.089L30.3076 15.089Z" fill="url(#paint14_linear_3692_2351)"/>
<path d="M30.3076 15.089L30.3076 11.4794L38.8303 11.4794C38.8303 13.7354 37.2354 15.089 35.9396 15.089L30.3076 15.089Z" fill="url(#paint15_linear_3692_2351)" stroke="url(#paint16_linear_3692_2351)" stroke-width="0.200535"/>
<path d="M27.2998 18.2974L27.2998 14.6877L35.8225 14.6877C35.8225 16.9438 34.2276 18.2974 32.9318 18.2974L27.2998 18.2974Z" fill="url(#paint17_linear_3692_2351)"/>
<path d="M27.2998 18.2974L27.2998 14.6877L35.8225 14.6877C35.8225 16.9438 34.2276 18.2974 32.9318 18.2974L27.2998 18.2974Z" fill="url(#paint18_linear_3692_2351)" stroke="url(#paint19_linear_3692_2351)" stroke-width="0.200535"/>
<path d="M20.2165 3.21161L10.7759 8.34717C10.2977 8.60732 10 9.10814 10 9.65254L10 21.3919C10 21.9363 10.2977 22.4371 10.7759 22.6973L20.2165 27.8328C20.6592 28.0737 21.1939 28.0737 21.6367 27.8328L31.0772 22.6973C31.5555 22.4371 31.8531 21.9363 31.8531 21.3919L31.8531 9.65254C31.8531 9.10814 31.5555 8.60732 31.0772 8.34717L21.6367 3.21161C21.1939 2.97075 20.6592 2.97075 20.2165 3.21161Z" fill="url(#paint20_linear_3692_2351)"/>
<g filter="url(#filter2_f_3692_2351)">
<path d="M20.2058 5.13301L12.4336 9.36101C11.9572 9.62018 11.6606 10.1191 11.6606 10.6615L11.6606 20.3384C11.6606 20.8807 11.9572 21.3797 12.4336 21.6388L20.2058 25.8668C20.6469 26.1068 21.1796 26.1068 21.6207 25.8668L29.3929 21.6388C29.8693 21.3797 30.1659 20.8807 30.1659 20.3384L30.1659 10.6615C30.1659 10.1191 29.8694 9.62018 29.3929 9.36101L21.6207 5.13301C21.1796 4.89305 20.6469 4.89305 20.2058 5.13301Z" fill="url(#paint21_linear_3692_2351)"/>
<path d="M20.2058 5.13301L12.4336 9.36101C11.9572 9.62018 11.6606 10.1191 11.6606 10.6615L11.6606 20.3384C11.6606 20.8807 11.9572 21.3797 12.4336 21.6388L20.2058 25.8668C20.6469 26.1068 21.1796 26.1068 21.6207 25.8668L29.3929 21.6388C29.8693 21.3797 30.1659 20.8807 30.1659 20.3384L30.1659 10.6615C30.1659 10.1191 29.8694 9.62018 29.3929 9.36101L21.6207 5.13301C21.1796 4.89305 20.6469 4.89305 20.2058 5.13301Z" stroke="url(#paint22_linear_3692_2351)" stroke-width="0.0874126"/>
</g>
<mask id="mask0_3692_2351" style="mask-type:alpha" maskUnits="userSpaceOnUse" x="12" y="5" width="18" height="21">
<path d="M20.298 5.98804L13.1835 9.85479C12.7301 10.1012 12.4478 10.576 12.4478 11.0921L12.4478 19.9424C12.4478 20.4585 12.7301 20.9332 13.1835 21.1797L20.298 25.0464C20.7174 25.2743 21.2236 25.2743 21.6429 25.0464L28.7575 21.1797C29.2109 20.9332 29.4932 20.4585 29.4932 19.9424L29.4932 11.0921C29.4932 10.576 29.2109 10.1012 28.7575 9.85479L21.6429 5.98804C21.2236 5.76013 20.7174 5.76013 20.298 5.98804Z" fill="white"/>
</mask>
<g mask="url(#mask0_3692_2351)">
<path d="M20.298 5.98804L13.1835 9.85479C12.7301 10.1012 12.4478 10.576 12.4478 11.0921L12.4478 19.9424C12.4478 20.4585 12.7301 20.9332 13.1835 21.1797L20.298 25.0464C20.7174 25.2743 21.2236 25.2743 21.6429 25.0464L28.7575 21.1797C29.2109 20.9332 29.4932 20.4585 29.4932 19.9424L29.4932 11.0921C29.4932 10.576 29.2109 10.1012 28.7575 9.85479L21.6429 5.98804C21.2236 5.76013 20.7174 5.76013 20.298 5.98804Z" fill="url(#paint23_radial_3692_2351)"/>
<path opacity="0.3" d="M21.6474 25.5064L29.9663 6.68884L27.0423 5.44766L19.2848 24.5035L21.6474 25.5064Z" fill="url(#paint24_linear_3692_2351)"/>
<path opacity="0.3" d="M22.3429 23.9791L14.5854 4.92322L11.6614 6.1644L19.9803 24.982L22.3429 23.9791Z" fill="url(#paint25_linear_3692_2351)"/>
<path opacity="0.3" d="M19.6585 25.7575L19.3535 5.18542H22.5301L22.2251 25.7575H19.6585Z" fill="url(#paint26_linear_3692_2351)"/>
<path opacity="0.3" d="M21.1788 26.9198L6.4165 12.5887L8.66268 10.3426L22.9937 25.1049L21.1788 26.9198Z" fill="url(#paint27_linear_3692_2351)"/>
<path opacity="0.3" d="M21.3842 26.0459L36.1465 11.7148L33.9003 9.46867L19.5693 24.231L21.3842 26.0459Z" fill="url(#paint28_linear_3692_2351)"/>
<rect x="12.4482" y="16.8988" width="17.0455" height="8.47902" fill="url(#paint29_linear_3692_2351)"/>
<g filter="url(#filter3_i_3692_2351)">
<path d="M20.298 5.98804L13.1835 9.85479C12.7301 10.1012 12.4478 10.576 12.4478 11.0921L12.4478 19.9424C12.4478 20.4585 12.7301 20.9332 13.1835 21.1797L20.298 25.0464C20.7174 25.2743 21.2236 25.2743 21.6429 25.0464L28.7575 21.1797C29.2109 20.9332 29.4932 20.4585 29.4932 19.9424L29.4932 11.0921C29.4932 10.576 29.2109 10.1012 28.7575 9.85479L21.6429 5.98804C21.2236 5.76013 20.7174 5.76013 20.298 5.98804Z" fill="#BCB0AE" fill-opacity="0.03"/>
</g>
</g>
</g>
<path d="M17.7606 20.0001V18.7006L20.9623 15.706C22.13 14.6137 22.3749 14.168 22.3749 13.5402V13.5276C22.3686 12.7868 21.8036 12.2595 21 12.2595C20.0709 12.2595 19.4431 12.8684 19.418 13.6846L19.4117 13.7411H17.6539V13.6908C17.6539 11.9832 19.0727 10.7842 20.9874 10.7842C22.9022 10.7842 24.2206 11.8765 24.2206 13.4209V13.4334C24.2206 14.5321 23.6995 15.2478 22.1363 16.6854L20.2404 18.4181V18.4934H24.3461V20.0001H17.7606Z" fill="black"/>
<defs>
<filter id="filter0_d_3692_2351" x="0.283872" y="0.408628" width="41.2692" height="34.0448" filterUnits="userSpaceOnUse" color-interpolation-filters="sRGB">
<feFlood flood-opacity="0" result="BackgroundImageFix"/>
<feColorMatrix in="SourceAlpha" type="matrix" values="0 0 0 0 0 0 0 0 0 0 0 0 0 0 0 0 0 0 127 0" result="hardAlpha"/>
<feOffset/>
<feGaussianBlur stdDeviation="1.31119"/>
<feComposite in2="hardAlpha" operator="out"/>
<feColorMatrix type="matrix" values="0 0 0 0 1 0 0 0 0 1 0 0 0 0 1 0 0 0 0.7 0"/>
<feBlend mode="normal" in2="BackgroundImageFix" result="effect1_dropShadow_3692_2351"/>
<feBlend mode="normal" in="SourceGraphic" in2="effect1_dropShadow_3692_2351" result="shape"/>
</filter>
<filter id="filter1_d_3692_2351" x="13.1469" y="16.2867" width="15.5592" height="16.2437" filterUnits="userSpaceOnUse" color-interpolation-filters="sRGB">
<feFlood flood-opacity="0" result="BackgroundImageFix"/>
<feColorMatrix in="SourceAlpha" type="matrix" values="0 0 0 0 0 0 0 0 0 0 0 0 0 0 0 0 0 0 127 0" result="hardAlpha"/>
<feOffset/>
<feGaussianBlur stdDeviation="0.34965"/>
<feColorMatrix type="matrix" values="0 0 0 0 0.7 0 0 0 0 0.561568 0 0 0 0 0.32375 0 0 0 0.78 0"/>
<feBlend mode="normal" in2="BackgroundImageFix" result="effect1_dropShadow_3692_2351"/>
<feBlend mode="normal" in="SourceGraphic" in2="effect1_dropShadow_3692_2351" result="shape"/>
</filter>
<filter id="filter2_f_3692_2351" x="11.5905" y="4.88308" width="18.6452" height="21.2336" filterUnits="userSpaceOnUse" color-interpolation-filters="sRGB">
<feFlood flood-opacity="0" result="BackgroundImageFix"/>
<feBlend mode="normal" in="SourceGraphic" in2="BackgroundImageFix" result="shape"/>
<feGaussianBlur stdDeviation="0.0131119" result="effect1_foregroundBlur_3692_2351"/>
</filter>
<filter id="filter3_i_3692_2351" x="12.4478" y="5.81714" width="17.0454" height="19.4003" filterUnits="userSpaceOnUse" color-interpolation-filters="sRGB">
<feFlood flood-opacity="0" result="BackgroundImageFix"/>
<feBlend mode="normal" in="SourceGraphic" in2="BackgroundImageFix" result="shape"/>
<feColorMatrix in="SourceAlpha" type="matrix" values="0 0 0 0 0 0 0 0 0 0 0 0 0 0 0 0 0 0 127 0" result="hardAlpha"/>
<feOffset/>
<feGaussianBlur stdDeviation="0.587774"/>
<feComposite in2="hardAlpha" operator="arithmetic" k2="-1" k3="1"/>
<feColorMatrix type="matrix" values="0 0 0 0 0.319505 0 0 0 0 0.446918 0 0 0 0 0.481667 0 0 0 1 0"/>
<feBlend mode="normal" in2="shape" result="effect1_innerShadow_3692_2351"/>
</filter>
<linearGradient id="paint0_linear_3692_2351" x1="20.9266" y1="23.5419" x2="20.9266" y2="31.7587" gradientUnits="userSpaceOnUse">
<stop stop-color="#C4D1DA"/>
<stop offset="0.47675" stop-color="#E1E8ED"/>
<stop offset="1" stop-color="#C4D1DA"/>
</linearGradient>
<linearGradient id="paint1_linear_3692_2351" x1="13.9336" y1="27.0821" x2="26.0542" y2="33.0834" gradientUnits="userSpaceOnUse">
<stop stop-color="#EDF1F4"/>
<stop offset="0.208702" stop-color="#BCCBD5"/>
<stop offset="0.648432" stop-color="#B9C9D2"/>
<stop offset="0.780206" stop-color="#FDFEFE"/>
<stop offset="0.971703" stop-color="#D0DEE8"/>
</linearGradient>
<linearGradient id="paint2_linear_3692_2351" x1="20.8391" y1="21.9685" x2="20.8391" y2="31.6553" gradientUnits="userSpaceOnUse">
<stop offset="0.22229" stop-color="#80A8C7"/>
<stop offset="0.669825" stop-color="#C3D4E2"/>
<stop offset="0.898796" stop-color="#80A8C7"/>
</linearGradient>
<linearGradient id="paint3_linear_3692_2351" x1="20.9007" y1="23.3218" x2="20.9007" y2="31.075" gradientUnits="userSpaceOnUse">
<stop stop-color="#3D3D3D"/>
<stop offset="1"/>
</linearGradient>
<linearGradient id="paint4_linear_3692_2351" x1="20.8827" y1="28.9614" x2="20.8827" y2="30.5473" gradientUnits="userSpaceOnUse">
<stop stop-color="#3D3D3D"/>
<stop offset="1"/>
</linearGradient>
<linearGradient id="paint5_linear_3692_2351" x1="20.5564" y1="28.9994" x2="20.5564" y2="30.1818" gradientUnits="userSpaceOnUse">
<stop stop-color="#3D3D3D"/>
<stop offset="1"/>
</linearGradient>
<linearGradient id="paint6_linear_3692_2351" x1="21.2087" y1="28.9994" x2="21.2087" y2="30.1818" gradientUnits="userSpaceOnUse">
<stop stop-color="#3D3D3D"/>
<stop offset="1"/>
</linearGradient>
<linearGradient id="paint7_linear_3692_2351" x1="20.8715" y1="30.0978" x2="20.8715" y2="30.5853" gradientUnits="userSpaceOnUse">
<stop stop-color="#3D3D3D"/>
<stop offset="1"/>
</linearGradient>
<linearGradient id="paint8_linear_3692_2351" x1="7.31807" y1="14.6378" x2="4.25991" y2="11.4794" gradientUnits="userSpaceOnUse">
<stop stop-color="#C0CED7"/>
<stop offset="0.875" stop-color="#D7E2E9"/>
</linearGradient>
<linearGradient id="paint9_linear_3692_2351" x1="7.31807" y1="14.6378" x2="4.25991" y2="11.4794" gradientUnits="userSpaceOnUse">
<stop stop-color="#C0CED7"/>
<stop offset="0.875" stop-color="#D7E2E9"/>
</linearGradient>
<linearGradient id="paint10_linear_3692_2351" x1="3.50791" y1="11.4794" x2="6.41566" y2="15.089" gradientUnits="userSpaceOnUse">
<stop stop-color="#F9F9F9"/>
<stop offset="0.378992" stop-color="#F9F9F9"/>
<stop offset="0.480868" stop-color="#DFDFE6"/>
<stop offset="0.729174" stop-color="#B8BAC6"/>
</linearGradient>
<linearGradient id="paint11_linear_3692_2351" x1="10.3264" y1="17.8462" x2="7.26821" y2="14.6877" gradientUnits="userSpaceOnUse">
<stop stop-color="#C0CED7"/>
<stop offset="0.875" stop-color="#D7E2E9"/>
</linearGradient>
<linearGradient id="paint12_linear_3692_2351" x1="10.3264" y1="17.8462" x2="7.26821" y2="14.6877" gradientUnits="userSpaceOnUse">
<stop stop-color="#C0CED7"/>
<stop offset="0.875" stop-color="#D7E2E9"/>
</linearGradient>
<linearGradient id="paint13_linear_3692_2351" x1="6.46607" y1="14.6877" x2="8.02022" y2="17.8462" gradientUnits="userSpaceOnUse">
<stop stop-color="#F4F4F5"/>
<stop offset="0.306027" stop-color="#F4F4F5"/>
<stop offset="0.462087" stop-color="#E8E9EC"/>
<stop offset="0.682292" stop-color="#DFDFE6"/>
<stop offset="1" stop-color="#B8BAC6"/>
</linearGradient>
<linearGradient id="paint14_linear_3692_2351" x1="34.5188" y1="14.6378" x2="37.577" y2="11.4794" gradientUnits="userSpaceOnUse">
<stop stop-color="#C0CED7"/>
<stop offset="0.875" stop-color="#D7E2E9"/>
</linearGradient>
<linearGradient id="paint15_linear_3692_2351" x1="34.5188" y1="14.6378" x2="37.577" y2="11.4794" gradientUnits="userSpaceOnUse">
<stop stop-color="#C0CED7"/>
<stop offset="0.875" stop-color="#D7E2E9"/>
</linearGradient>
<linearGradient id="paint16_linear_3692_2351" x1="38.329" y1="11.4794" x2="35.4213" y2="15.089" gradientUnits="userSpaceOnUse">
<stop stop-color="#F9F9F9"/>
<stop offset="0.378992" stop-color="#F9F9F9"/>
<stop offset="0.480868" stop-color="#DFDFE6"/>
<stop offset="0.729174" stop-color="#B8BAC6"/>
</linearGradient>
<linearGradient id="paint17_linear_3692_2351" x1="31.511" y1="17.8462" x2="34.5692" y2="14.6877" gradientUnits="userSpaceOnUse">
<stop stop-color="#C0CED7"/>
<stop offset="0.875" stop-color="#D7E2E9"/>
</linearGradient>
<linearGradient id="paint18_linear_3692_2351" x1="31.511" y1="17.8462" x2="34.5692" y2="14.6877" gradientUnits="userSpaceOnUse">
<stop stop-color="#C0CED7"/>
<stop offset="0.875" stop-color="#D7E2E9"/>
</linearGradient>
<linearGradient id="paint19_linear_3692_2351" x1="35.3713" y1="14.6877" x2="33.8172" y2="17.8462" gradientUnits="userSpaceOnUse">
<stop stop-color="#F4F4F5"/>
<stop offset="0.306027" stop-color="#F4F4F5"/>
<stop offset="0.462087" stop-color="#E8E9EC"/>
<stop offset="0.682292" stop-color="#DFDFE6"/>
<stop offset="1" stop-color="#B8BAC6"/>
</linearGradient>
<linearGradient id="paint20_linear_3692_2351" x1="16.3374" y1="5.88476" x2="26.1713" y2="25.4215" gradientUnits="userSpaceOnUse">
<stop stop-color="#F3F6F8"/>
<stop offset="1" stop-color="#B1C2CC"/>
</linearGradient>
<linearGradient id="paint21_linear_3692_2351" x1="16.2498" y1="7.50167" x2="24.7288" y2="23.1485" gradientUnits="userSpaceOnUse">
<stop stop-color="#CFDDE8"/>
<stop offset="1" stop-color="#F5F7F9"/>
</linearGradient>
<linearGradient id="paint22_linear_3692_2351" x1="17.1676" y1="6.93348" x2="26.3023" y2="23.367" gradientUnits="userSpaceOnUse">
<stop stop-color="#BECCD7"/>
<stop offset="1" stop-color="#FDFEFE"/>
</linearGradient>
<radialGradient id="paint23_radial_3692_2351" cx="0" cy="0" r="1" gradientUnits="userSpaceOnUse" gradientTransform="translate(20.9705 15.5172) rotate(90) scale(9.89468 8.52273)">
<stop stop-color="#F2F5F7"/>
<stop offset="1" stop-color="#ABBDC9"/>
</radialGradient>
<linearGradient id="paint24_linear_3692_2351" x1="28.5043" y1="6.06825" x2="21.5675" y2="22.4484" gradientUnits="userSpaceOnUse">
<stop stop-color="#224866"/>
<stop offset="1" stop-color="#F2EDED" stop-opacity="0"/>
</linearGradient>
<linearGradient id="paint25_linear_3692_2351" x1="13.1234" y1="5.54381" x2="20.0876" y2="21.9124" gradientUnits="userSpaceOnUse">
<stop stop-color="#224866"/>
<stop offset="1" stop-color="#F2EDED" stop-opacity="0"/>
</linearGradient>
<linearGradient id="paint26_linear_3692_2351" x1="20.9418" y1="5.18542" x2="20.9269" y2="22.9739" gradientUnits="userSpaceOnUse">
<stop stop-color="#224866"/>
<stop offset="1" stop-color="#F2EDED" stop-opacity="0"/>
</linearGradient>
<linearGradient id="paint27_linear_3692_2351" x1="7.53959" y1="11.4657" x2="20.1074" y2="24.0545" gradientUnits="userSpaceOnUse">
<stop stop-color="#224866"/>
<stop offset="1" stop-color="#F2EDED" stop-opacity="0"/>
</linearGradient>
<linearGradient id="paint28_linear_3692_2351" x1="35.0234" y1="10.5918" x2="22.4556" y2="23.1806" gradientUnits="userSpaceOnUse">
<stop stop-color="#224866"/>
<stop offset="1" stop-color="#F2EDED" stop-opacity="0"/>
</linearGradient>
<linearGradient id="paint29_linear_3692_2351" x1="20.9273" y1="16.8988" x2="20.9148" y2="24.8525" gradientUnits="userSpaceOnUse">
<stop stop-color="white" stop-opacity="0"/>
<stop offset="1" stop-color="#CEDCE7"/>
</linearGradient>
</defs>
</svg>
