<svg width="58" height="45" viewBox="0 0 58 45" fill="none" xmlns="http://www.w3.org/2000/svg">
<path d="M34.3526 18.6307L51.2788 9.83032L47.912 3.99878L31.8275 14.2571L34.3526 18.6307Z" fill="url(#paint0_linear_3692_2276)"/>
<path d="M31.4821 13.5714L32.2856 0L25.8571 0L26.6606 13.5714H31.4821Z" fill="url(#paint1_linear_3692_2276)"/>
<path d="M31.4821 22.8572L32.2856 37.8572H25.8571L26.6606 22.8572H31.4821Z" fill="url(#paint2_linear_3692_2276)"/>
<path d="M26.0874 14.1969L10.0029 3.9386L6.63609 9.77014L23.5623 18.5706L26.0874 14.1969Z" fill="url(#paint3_linear_3692_2276)"/>
<path d="M34.3526 19.3373L51.2788 28.1377L47.912 33.9692L31.8275 23.7109L34.3526 19.3373Z" fill="url(#paint4_linear_3692_2276)"/>
<path d="M26.0874 23.7716L10.0029 34.0299L6.63609 28.1984L23.5623 19.3979L26.0874 23.7716Z" fill="url(#paint5_linear_3692_2276)"/>
<g filter="url(#filter0_dd_3692_2276)">
<g filter="url(#filter1_d_3692_2276)">
<path d="M20.4624 28.9261V21.1711H24.9642V31.5295L20.5994 29.1565C20.515 29.1106 20.4624 29.0222 20.4624 28.9261Z" fill="#F9E28C"/>
<path d="M20.4624 28.9261V21.1711H24.9642V31.5295L20.5994 29.1565C20.515 29.1106 20.4624 29.0222 20.4624 28.9261Z" stroke="url(#paint6_linear_3692_2276)" stroke-width="0.0874126"/>
</g>
<path fill-rule="evenodd" clip-rule="evenodd" d="M20.9578 28.7008V25.1047H20.8993V28.7495L20.9237 28.7536C21.0046 28.7671 21.0945 28.8149 21.1679 28.8848C21.2412 28.9547 21.2955 29.0441 21.309 29.1383L21.3112 29.1539L23.6772 30.2621V26.3046H23.6188V30.1701L21.3643 29.1142C21.345 29.01 21.2846 28.9152 21.2082 28.8425C21.135 28.7727 21.045 28.7212 20.9578 28.7008Z" fill="url(#paint7_linear_3692_2276)"/>
<path fill-rule="evenodd" clip-rule="evenodd" d="M23.6154 29.9563C23.6785 29.8496 23.6821 29.6984 23.6772 29.6007L23.6188 29.6036C23.6236 29.7009 23.6185 29.8362 23.5651 29.9265C23.5392 29.9703 23.5025 30.0025 23.4498 30.0157C23.3961 30.0292 23.322 30.024 23.22 29.9843L23.1988 30.0388C23.3073 30.081 23.3945 30.0899 23.464 30.0724C23.5346 30.0547 23.5831 30.0109 23.6154 29.9563Z" fill="url(#paint8_linear_3692_2276)"/>
<g filter="url(#filter2_d_3692_2276)">
<path d="M37.4639 28.9261V21.1711H32.9621V31.5295L37.3269 29.1565C37.4113 29.1106 37.4639 29.0222 37.4639 28.9261Z" fill="#F9E28C"/>
<path d="M37.4639 28.9261V21.1711H32.9621V31.5295L37.3269 29.1565C37.4113 29.1106 37.4639 29.0222 37.4639 28.9261Z" stroke="url(#paint9_linear_3692_2276)" stroke-width="0.0874126"/>
</g>
<path fill-rule="evenodd" clip-rule="evenodd" d="M36.9685 28.7008V25.1047H37.027V28.7495L37.0026 28.7536C36.9217 28.7671 36.8318 28.8149 36.7584 28.8848C36.685 28.9547 36.6308 29.0441 36.6173 29.1383L36.6151 29.1539L34.249 30.2621V26.3046H34.3075V30.1701L36.562 29.1142C36.5812 29.01 36.6417 28.9152 36.7181 28.8425C36.7913 28.7727 36.8813 28.7212 36.9685 28.7008Z" fill="url(#paint10_linear_3692_2276)"/>
<path fill-rule="evenodd" clip-rule="evenodd" d="M34.3109 29.9563C34.2478 29.8496 34.2442 29.6984 34.2491 29.6007L34.3075 29.6036C34.3026 29.7009 34.3078 29.8362 34.3612 29.9265C34.3871 29.9703 34.4237 30.0025 34.4765 30.0157C34.5301 30.0292 34.6043 30.024 34.7063 29.9843L34.7275 30.0388C34.619 30.081 34.5318 30.0899 34.4622 30.0724C34.3917 30.0547 34.3432 30.0109 34.3109 29.9563Z" fill="url(#paint11_linear_3692_2276)"/>
<path d="M20.4829 16.5419L20.9961 12.9689L8.72269 11.2061C8.40195 13.4392 9.7882 15.0058 11.0709 15.19L20.4829 16.5419Z" fill="url(#paint12_linear_3692_2276)" stroke="url(#paint13_linear_3692_2276)" stroke-width="0.200535"/>
<path d="M22.0283 19.1289L22.5415 15.5559L10.2681 13.7931C9.94736 16.0262 11.3336 17.5928 12.6163 17.7771L22.0283 19.1289Z" fill="url(#paint14_linear_3692_2276)" stroke="url(#paint15_linear_3692_2276)" stroke-width="0.200535"/>
<path d="M23.9517 22.1882L24.4648 18.6153L12.1914 16.8524C11.8707 19.0855 13.257 20.6522 14.5396 20.8364L23.9517 22.1882Z" fill="url(#paint16_linear_3692_2276)" stroke="url(#paint17_linear_3692_2276)" stroke-width="0.200535"/>
<path d="M37.188 16.5419L36.6748 12.9689L48.9482 11.2061C49.2689 13.4392 47.8827 15.0058 46.6 15.19L37.188 16.5419Z" fill="url(#paint18_linear_3692_2276)" stroke="url(#paint19_linear_3692_2276)" stroke-width="0.200535"/>
<path d="M35.6421 19.1289L35.1289 15.5559L47.4023 13.7931C47.7231 16.0262 46.3368 17.5928 45.0541 17.7771L35.6421 19.1289Z" fill="url(#paint20_linear_3692_2276)" stroke="url(#paint21_linear_3692_2276)" stroke-width="0.200535"/>
<path d="M33.7192 22.1882L33.2061 18.6153L45.4795 16.8524C45.8002 19.0855 44.4139 20.6522 43.1313 20.8364L33.7192 22.1882Z" fill="url(#paint22_linear_3692_2276)" stroke="url(#paint23_linear_3692_2276)" stroke-width="0.200535"/>
<g filter="url(#filter3_d_3692_2276)">
<path d="M24.1338 20.7339H33.7492V32.9442L28.9949 35.3609C28.9229 35.3975 28.8378 35.3974 28.7659 35.3605L24.1338 32.9861V20.7339Z" fill="url(#paint24_linear_3692_2276)"/>
<path d="M24.1338 20.7339H33.7492V32.9442L28.9949 35.3609C28.9229 35.3975 28.8378 35.3974 28.7659 35.3605L24.1338 32.9861V20.7339Z" stroke="url(#paint25_linear_3692_2276)" stroke-width="0.174825"/>
</g>
<path fill-rule="evenodd" clip-rule="evenodd" d="M30.3402 34.5898L28.9951 35.2736C28.9231 35.3102 28.8379 35.31 28.766 35.2732L27.3682 34.5567V25.6292H30.3402V34.5898Z" fill="url(#paint26_linear_3692_2276)"/>
<path fill-rule="evenodd" clip-rule="evenodd" d="M24.6582 27.2898H24.7975V32.7548L28.9069 34.879L33.0853 32.7546V27.2898H33.2246V32.8041L28.9063 34.9821L24.6582 32.8039V27.2898Z" fill="url(#paint27_linear_3692_2276)"/>
<path fill-rule="evenodd" clip-rule="evenodd" d="M28.9354 32.9717V34.5576H28.8594V32.9717H28.9354Z" fill="url(#paint28_linear_3692_2276)"/>
<path fill-rule="evenodd" clip-rule="evenodd" d="M28.6694 33.9948C28.5182 34.1692 28.3339 34.208 28.207 34.1869L28.2195 34.1119C28.3206 34.1288 28.4783 34.0992 28.612 33.945C28.7462 33.7902 28.8591 33.5061 28.8591 33.0096H28.9351C28.9351 33.5161 28.8201 33.821 28.6694 33.9948Z" fill="url(#paint29_linear_3692_2276)"/>
<path fill-rule="evenodd" clip-rule="evenodd" d="M29.125 33.9948C29.2763 34.1692 29.4605 34.208 29.5874 34.1869L29.5749 34.1119C29.4738 34.1288 29.3162 34.0992 29.1825 33.945C29.0482 33.7902 28.9353 33.5061 28.9353 33.0096H28.8593C28.8593 33.5161 28.9743 33.821 29.125 33.9948Z" fill="url(#paint30_linear_3692_2276)"/>
<path fill-rule="evenodd" clip-rule="evenodd" d="M28.8814 34.592L28.0234 34.1113L28.2134 34.1113L28.8973 34.5157L29.5811 34.1079H29.7488L28.9129 34.5921C28.9029 34.5966 28.8914 34.5966 28.8814 34.592Z" fill="url(#paint31_linear_3692_2276)"/>
</g>
<g filter="url(#filter4_d_3692_2276)">
<path d="M28.2165 5.21149L18.7759 10.347C18.2977 10.6072 18 11.108 18 11.6524L18 23.3918C18 23.9362 18.2977 24.437 18.7759 24.6971L28.2165 29.8327C28.6592 30.0736 29.1939 30.0736 29.6367 29.8327L39.0772 24.6971C39.5555 24.437 39.8531 23.9362 39.8531 23.3918L39.8531 11.6524C39.8531 11.108 39.5555 10.6072 39.0772 10.3471L29.6367 5.21149C29.1939 4.97062 28.6592 4.97063 28.2165 5.21149Z" fill="url(#paint32_linear_3692_2276)"/>
</g>
<g filter="url(#filter5_f_3692_2276)">
<path d="M28.2058 7.13288L20.4336 11.3609C19.9572 11.6201 19.6606 12.119 19.6606 12.6613L19.6606 22.3382C19.6606 22.8806 19.9572 23.3795 20.4336 23.6387L28.2058 27.8667C28.6469 28.1067 29.1796 28.1067 29.6207 27.8667L37.3929 23.6387C37.8693 23.3795 38.1659 22.8806 38.1659 22.3382L38.1659 12.6613C38.1659 12.119 37.8694 11.6201 37.3929 11.3609L29.6207 7.13288C29.1796 6.89293 28.6469 6.89293 28.2058 7.13288Z" fill="url(#paint33_linear_3692_2276)"/>
<path d="M28.2058 7.13288L20.4336 11.3609C19.9572 11.6201 19.6606 12.119 19.6606 12.6613L19.6606 22.3382C19.6606 22.8806 19.9572 23.3795 20.4336 23.6387L28.2058 27.8667C28.6469 28.1067 29.1796 28.1067 29.6207 27.8667L37.3929 23.6387C37.8693 23.3795 38.1659 22.8806 38.1659 22.3382L38.1659 12.6613C38.1659 12.119 37.8694 11.6201 37.3929 11.3609L29.6207 7.13288C29.1796 6.89293 28.6469 6.89293 28.2058 7.13288Z" stroke="url(#paint34_linear_3692_2276)" stroke-width="0.0874126"/>
</g>
<mask id="mask0_3692_2276" style="mask-type:alpha" maskUnits="userSpaceOnUse" x="20" y="7" width="18" height="21">
<path d="M28.298 7.98792L21.1835 11.8547C20.7301 12.1011 20.4478 12.5759 20.4478 13.0919L20.4478 21.9423C20.4478 22.4584 20.7301 22.9331 21.1835 23.1796L28.298 27.0463C28.7174 27.2742 29.2236 27.2742 29.6429 27.0463L36.7575 23.1796C37.2109 22.9331 37.4932 22.4584 37.4932 21.9423L37.4932 13.0919C37.4932 12.5759 37.2109 12.1011 36.7575 11.8547L29.6429 7.98792C29.2236 7.76001 28.7174 7.76001 28.298 7.98792Z" fill="white"/>
</mask>
<g mask="url(#mask0_3692_2276)">
<path d="M28.298 7.98792L21.1835 11.8547C20.7301 12.1011 20.4478 12.5759 20.4478 13.0919L20.4478 21.9423C20.4478 22.4584 20.7301 22.9331 21.1835 23.1796L28.298 27.0463C28.7174 27.2742 29.2236 27.2742 29.6429 27.0463L36.7575 23.1796C37.2109 22.9331 37.4932 22.4584 37.4932 21.9423L37.4932 13.0919C37.4932 12.5759 37.2109 12.1011 36.7575 11.8547L29.6429 7.98792C29.2236 7.76001 28.7174 7.76001 28.298 7.98792Z" fill="url(#paint35_radial_3692_2276)"/>
<path opacity="0.3" d="M29.647 27.5063L37.9658 8.68872L35.0418 7.44753L27.2843 26.5034L29.647 27.5063Z" fill="url(#paint36_linear_3692_2276)"/>
<path opacity="0.3" d="M30.3424 25.9788L22.585 6.92297L19.6609 8.16416L27.9798 26.9817L30.3424 25.9788Z" fill="url(#paint37_linear_3692_2276)"/>
<path opacity="0.3" d="M27.658 27.7574L27.353 7.1853H30.5296L30.2246 27.7574H27.658Z" fill="url(#paint38_linear_3692_2276)"/>
<path opacity="0.3" d="M29.1783 28.9198L14.416 14.5887L16.6622 12.3426L30.9932 27.1049L29.1783 28.9198Z" fill="url(#paint39_linear_3692_2276)"/>
<path opacity="0.3" d="M29.3837 28.0458L44.146 13.7147L41.8998 11.4685L27.5688 26.2308L29.3837 28.0458Z" fill="url(#paint40_linear_3692_2276)"/>
<rect x="20.4473" y="18.8986" width="17.0455" height="8.47902" fill="url(#paint41_linear_3692_2276)"/>
<g filter="url(#filter6_i_3692_2276)">
<path d="M28.298 7.98792L21.1835 11.8547C20.7301 12.1011 20.4478 12.5759 20.4478 13.0919L20.4478 21.9423C20.4478 22.4584 20.7301 22.9331 21.1835 23.1796L28.298 27.0463C28.7174 27.2742 29.2236 27.2742 29.6429 27.0463L36.7575 23.1796C37.2109 22.9331 37.4932 22.4584 37.4932 21.9423L37.4932 13.0919C37.4932 12.5759 37.2109 12.1011 36.7575 11.8547L29.6429 7.98792C29.2236 7.76001 28.7174 7.76001 28.298 7.98792Z" fill="#BCB0AE" fill-opacity="0.03"/>
</g>
</g>
<path d="M28.461 22V14.68H28.4233L26.1131 16.2494V14.567L28.4547 12.941H30.3381V22H28.461Z" fill="black"/>
<defs>
<filter id="filter0_dd_3692_2276" x="0.181833" y="3.60007" width="57.3072" height="40.4385" filterUnits="userSpaceOnUse" color-interpolation-filters="sRGB">
<feFlood flood-opacity="0" result="BackgroundImageFix"/>
<feColorMatrix in="SourceAlpha" type="matrix" values="0 0 0 0 0 0 0 0 0 0 0 0 0 0 0 0 0 0 127 0" result="hardAlpha"/>
<feOffset/>
<feGaussianBlur stdDeviation="1.33794"/>
<feColorMatrix type="matrix" values="0 0 0 0 0.991667 0 0 0 0 0.801597 0 0 0 0 0.516493 0 0 0 1 0"/>
<feBlend mode="normal" in2="BackgroundImageFix" result="effect1_dropShadow_3692_2276"/>
<feColorMatrix in="SourceAlpha" type="matrix" values="0 0 0 0 0 0 0 0 0 0 0 0 0 0 0 0 0 0 127 0" result="hardAlpha"/>
<feOffset dy="0.535176"/>
<feGaussianBlur stdDeviation="4.01382"/>
<feColorMatrix type="matrix" values="0 0 0 0 1 0 0 0 0 0.722667 0 0 0 0 0.466667 0 0 0 0.6 0"/>
<feBlend mode="normal" in2="effect1_dropShadow_3692_2276" result="effect2_dropShadow_3692_2276"/>
<feBlend mode="normal" in="SourceGraphic" in2="effect2_dropShadow_3692_2276" result="shape"/>
</filter>
<filter id="filter1_d_3692_2276" x="19.7192" y="20.4281" width="5.98796" height="11.8742" filterUnits="userSpaceOnUse" color-interpolation-filters="sRGB">
<feFlood flood-opacity="0" result="BackgroundImageFix"/>
<feColorMatrix in="SourceAlpha" type="matrix" values="0 0 0 0 0 0 0 0 0 0 0 0 0 0 0 0 0 0 127 0" result="hardAlpha"/>
<feOffset/>
<feGaussianBlur stdDeviation="0.34965"/>
<feColorMatrix type="matrix" values="0 0 0 0 0.7 0 0 0 0 0.561568 0 0 0 0 0.32375 0 0 0 0.78 0"/>
<feBlend mode="normal" in2="BackgroundImageFix" result="effect1_dropShadow_3692_2276"/>
<feBlend mode="normal" in="SourceGraphic" in2="effect1_dropShadow_3692_2276" result="shape"/>
</filter>
<filter id="filter2_d_3692_2276" x="32.2192" y="20.4281" width="5.98796" height="11.8742" filterUnits="userSpaceOnUse" color-interpolation-filters="sRGB">
<feFlood flood-opacity="0" result="BackgroundImageFix"/>
<feColorMatrix in="SourceAlpha" type="matrix" values="0 0 0 0 0 0 0 0 0 0 0 0 0 0 0 0 0 0 127 0" result="hardAlpha"/>
<feOffset/>
<feGaussianBlur stdDeviation="0.34965"/>
<feColorMatrix type="matrix" values="0 0 0 0 0.7 0 0 0 0 0.561568 0 0 0 0 0.32375 0 0 0 0.78 0"/>
<feBlend mode="normal" in2="BackgroundImageFix" result="effect1_dropShadow_3692_2276"/>
<feBlend mode="normal" in="SourceGraphic" in2="effect1_dropShadow_3692_2276" result="shape"/>
</filter>
<filter id="filter3_d_3692_2276" x="23.3471" y="19.9472" width="11.1886" height="16.2278" filterUnits="userSpaceOnUse" color-interpolation-filters="sRGB">
<feFlood flood-opacity="0" result="BackgroundImageFix"/>
<feColorMatrix in="SourceAlpha" type="matrix" values="0 0 0 0 0 0 0 0 0 0 0 0 0 0 0 0 0 0 127 0" result="hardAlpha"/>
<feOffset/>
<feGaussianBlur stdDeviation="0.34965"/>
<feColorMatrix type="matrix" values="0 0 0 0 0.7 0 0 0 0 0.561568 0 0 0 0 0.32375 0 0 0 0.78 0"/>
<feBlend mode="normal" in2="BackgroundImageFix" result="effect1_dropShadow_3692_2276"/>
<feBlend mode="normal" in="SourceGraphic" in2="effect1_dropShadow_3692_2276" result="shape"/>
</filter>
<filter id="filter4_d_3692_2276" x="15.3776" y="2.40851" width="27.0978" height="30.2272" filterUnits="userSpaceOnUse" color-interpolation-filters="sRGB">
<feFlood flood-opacity="0" result="BackgroundImageFix"/>
<feColorMatrix in="SourceAlpha" type="matrix" values="0 0 0 0 0 0 0 0 0 0 0 0 0 0 0 0 0 0 127 0" result="hardAlpha"/>
<feOffset/>
<feGaussianBlur stdDeviation="1.31119"/>
<feComposite in2="hardAlpha" operator="out"/>
<feColorMatrix type="matrix" values="0 0 0 0 0.875 0 0 0 0 0.875 0 0 0 0 0.875 0 0 0 0.5 0"/>
<feBlend mode="normal" in2="BackgroundImageFix" result="effect1_dropShadow_3692_2276"/>
<feBlend mode="normal" in="SourceGraphic" in2="effect1_dropShadow_3692_2276" result="shape"/>
</filter>
<filter id="filter5_f_3692_2276" x="19.5905" y="6.88296" width="18.6452" height="21.2336" filterUnits="userSpaceOnUse" color-interpolation-filters="sRGB">
<feFlood flood-opacity="0" result="BackgroundImageFix"/>
<feBlend mode="normal" in="SourceGraphic" in2="BackgroundImageFix" result="shape"/>
<feGaussianBlur stdDeviation="0.0131119" result="effect1_foregroundBlur_3692_2276"/>
</filter>
<filter id="filter6_i_3692_2276" x="20.4478" y="7.81702" width="17.0454" height="19.4003" filterUnits="userSpaceOnUse" color-interpolation-filters="sRGB">
<feFlood flood-opacity="0" result="BackgroundImageFix"/>
<feBlend mode="normal" in="SourceGraphic" in2="BackgroundImageFix" result="shape"/>
<feColorMatrix in="SourceAlpha" type="matrix" values="0 0 0 0 0 0 0 0 0 0 0 0 0 0 0 0 0 0 127 0" result="hardAlpha"/>
<feOffset/>
<feGaussianBlur stdDeviation="0.587774"/>
<feComposite in2="hardAlpha" operator="arithmetic" k2="-1" k3="1"/>
<feColorMatrix type="matrix" values="0 0 0 0 0.713726 0 0 0 0 0.490196 0 0 0 0 0.247059 0 0 0 1 0"/>
<feBlend mode="normal" in2="shape" result="effect1_innerShadow_3692_2276"/>
</filter>
<linearGradient id="paint0_linear_3692_2276" x1="49.5954" y1="6.91455" x2="33.09" y2="16.4439" gradientUnits="userSpaceOnUse">
<stop stop-color="#F6D04E" stop-opacity="0"/>
<stop offset="1" stop-color="#F6D04E" stop-opacity="0.4"/>
</linearGradient>
<linearGradient id="paint1_linear_3692_2276" x1="29.0714" y1="0" x2="29.0714" y2="13.5714" gradientUnits="userSpaceOnUse">
<stop stop-color="#F6D04E" stop-opacity="0"/>
<stop offset="1" stop-color="#F6D04E" stop-opacity="0.4"/>
</linearGradient>
<linearGradient id="paint2_linear_3692_2276" x1="29.0714" y1="37.8572" x2="29.0714" y2="22.8572" gradientUnits="userSpaceOnUse">
<stop stop-color="#F6D04E" stop-opacity="0"/>
<stop offset="1" stop-color="#F6D04E" stop-opacity="0.4"/>
</linearGradient>
<linearGradient id="paint3_linear_3692_2276" x1="8.31951" y1="6.85437" x2="24.8249" y2="16.3837" gradientUnits="userSpaceOnUse">
<stop stop-color="#F6D04E" stop-opacity="0"/>
<stop offset="1" stop-color="#F6D04E" stop-opacity="0.4"/>
</linearGradient>
<linearGradient id="paint4_linear_3692_2276" x1="49.5954" y1="31.0535" x2="33.09" y2="21.5241" gradientUnits="userSpaceOnUse">
<stop stop-color="#F6D04E" stop-opacity="0"/>
<stop offset="1" stop-color="#F6D04E" stop-opacity="0.4"/>
</linearGradient>
<linearGradient id="paint5_linear_3692_2276" x1="8.31951" y1="31.1141" x2="24.8249" y2="21.5848" gradientUnits="userSpaceOnUse">
<stop stop-color="#F6D04E" stop-opacity="0"/>
<stop offset="1" stop-color="#F6D04E" stop-opacity="0.4"/>
</linearGradient>
<linearGradient id="paint6_linear_3692_2276" x1="20.4624" y1="28.2309" x2="25.0842" y2="29.2752" gradientUnits="userSpaceOnUse">
<stop stop-color="#8D664F"/>
<stop offset="0.208702" stop-color="#C49F7D"/>
<stop offset="0.648432" stop-color="#FFF1DC"/>
<stop offset="0.827985" stop-color="#B38368"/>
<stop offset="0.971703" stop-color="#8C5F4C"/>
</linearGradient>
<linearGradient id="paint7_linear_3692_2276" x1="22.2883" y1="25.1047" x2="22.2883" y2="30.2621" gradientUnits="userSpaceOnUse">
<stop stop-color="#42100D"/>
<stop offset="0.479167" stop-color="#B95C1A"/>
<stop offset="1" stop-color="#E7AF3E"/>
</linearGradient>
<linearGradient id="paint8_linear_3692_2276" x1="23.2443" y1="30" x2="23.6377" y2="29.6503" gradientUnits="userSpaceOnUse">
<stop stop-color="#E2A63B"/>
<stop offset="1" stop-color="#D99938"/>
</linearGradient>
<linearGradient id="paint9_linear_3692_2276" x1="37.4639" y1="28.2309" x2="32.8421" y2="29.2752" gradientUnits="userSpaceOnUse">
<stop stop-color="#8D664F"/>
<stop offset="0.208702" stop-color="#C49F7D"/>
<stop offset="0.648432" stop-color="#FFF1DC"/>
<stop offset="0.827985" stop-color="#B38368"/>
<stop offset="0.971703" stop-color="#8C5F4C"/>
</linearGradient>
<linearGradient id="paint10_linear_3692_2276" x1="35.638" y1="25.1047" x2="35.638" y2="30.2621" gradientUnits="userSpaceOnUse">
<stop stop-color="#42100D"/>
<stop offset="0.479167" stop-color="#B95C1A"/>
<stop offset="1" stop-color="#E7AF3E"/>
</linearGradient>
<linearGradient id="paint11_linear_3692_2276" x1="34.6955" y1="30" x2="34.3022" y2="29.6066" gradientUnits="userSpaceOnUse">
<stop stop-color="#E3A83B"/>
<stop offset="1" stop-color="#DB9A37"/>
</linearGradient>
<linearGradient id="paint12_linear_3692_2276" x1="14.4399" y1="15.6739" x2="11.9814" y2="11.6562" gradientUnits="userSpaceOnUse">
<stop stop-color="#B9750F"/>
<stop offset="0.875" stop-color="#F9D26B"/>
</linearGradient>
<linearGradient id="paint13_linear_3692_2276" x1="9.21893" y1="11.2774" x2="11.584" y2="15.2637" gradientUnits="userSpaceOnUse">
<stop stop-color="#FCF6CD"/>
<stop offset="0.448" stop-color="#FCEC96"/>
<stop offset="0.708" stop-color="#DDBA62"/>
<stop offset="0.928" stop-color="#B98543"/>
</linearGradient>
<linearGradient id="paint14_linear_3692_2276" x1="15.9853" y1="18.261" x2="13.5268" y2="14.2433" gradientUnits="userSpaceOnUse">
<stop stop-color="#B9750F"/>
<stop offset="0.875" stop-color="#F9D26B"/>
</linearGradient>
<linearGradient id="paint15_linear_3692_2276" x1="10.7643" y1="13.8644" x2="13.1294" y2="17.8508" gradientUnits="userSpaceOnUse">
<stop stop-color="#FCF6CD"/>
<stop offset="0.448" stop-color="#FCEC96"/>
<stop offset="0.708" stop-color="#DDBA62"/>
<stop offset="0.928" stop-color="#B98543"/>
</linearGradient>
<linearGradient id="paint16_linear_3692_2276" x1="17.9087" y1="21.3203" x2="15.4502" y2="17.3026" gradientUnits="userSpaceOnUse">
<stop stop-color="#B9750F"/>
<stop offset="0.875" stop-color="#F9D26B"/>
</linearGradient>
<linearGradient id="paint17_linear_3692_2276" x1="12.6877" y1="16.9237" x2="15.0527" y2="20.9101" gradientUnits="userSpaceOnUse">
<stop stop-color="#FCF6CD"/>
<stop offset="0.448" stop-color="#FCEC96"/>
<stop offset="0.708" stop-color="#DDBA62"/>
<stop offset="0.928" stop-color="#B98543"/>
</linearGradient>
<linearGradient id="paint18_linear_3692_2276" x1="43.231" y1="15.6739" x2="45.6895" y2="11.6562" gradientUnits="userSpaceOnUse">
<stop stop-color="#B9750F"/>
<stop offset="0.875" stop-color="#F9D26B"/>
</linearGradient>
<linearGradient id="paint19_linear_3692_2276" x1="48.452" y1="11.2774" x2="46.0869" y2="15.2637" gradientUnits="userSpaceOnUse">
<stop stop-color="#FCF6CD"/>
<stop offset="0.448" stop-color="#FCEC96"/>
<stop offset="0.708" stop-color="#DDBA62"/>
<stop offset="0.928" stop-color="#B98543"/>
</linearGradient>
<linearGradient id="paint20_linear_3692_2276" x1="41.6851" y1="18.261" x2="44.1436" y2="14.2433" gradientUnits="userSpaceOnUse">
<stop stop-color="#B9750F"/>
<stop offset="0.875" stop-color="#F9D26B"/>
</linearGradient>
<linearGradient id="paint21_linear_3692_2276" x1="46.9061" y1="13.8644" x2="44.541" y2="17.8508" gradientUnits="userSpaceOnUse">
<stop stop-color="#FCF6CD"/>
<stop offset="0.448" stop-color="#FCEC96"/>
<stop offset="0.708" stop-color="#DDBA62"/>
<stop offset="0.928" stop-color="#B98543"/>
</linearGradient>
<linearGradient id="paint22_linear_3692_2276" x1="39.7622" y1="21.3203" x2="42.2207" y2="17.3026" gradientUnits="userSpaceOnUse">
<stop stop-color="#B9750F"/>
<stop offset="0.875" stop-color="#F9D26B"/>
</linearGradient>
<linearGradient id="paint23_linear_3692_2276" x1="44.9832" y1="16.9237" x2="42.6182" y2="20.9101" gradientUnits="userSpaceOnUse">
<stop stop-color="#FCF6CD"/>
<stop offset="0.448" stop-color="#FCEC96"/>
<stop offset="0.708" stop-color="#DDBA62"/>
<stop offset="0.928" stop-color="#B98543"/>
</linearGradient>
<linearGradient id="paint24_linear_3692_2276" x1="28.9415" y1="27.2024" x2="28.9415" y2="35.4192" gradientUnits="userSpaceOnUse">
<stop stop-color="#904821"/>
<stop offset="0.2286" stop-color="#904821"/>
<stop offset="0.47675" stop-color="#CDA154"/>
<stop offset="0.88344" stop-color="#904821"/>
<stop offset="1" stop-color="#904821"/>
</linearGradient>
<linearGradient id="paint25_linear_3692_2276" x1="24.1338" y1="30.7426" x2="33.4321" y2="33.9078" gradientUnits="userSpaceOnUse">
<stop stop-color="#D4AC5B"/>
<stop offset="0.208702" stop-color="#FBE67B"/>
<stop offset="0.648432" stop-color="#FCFAE2"/>
<stop offset="0.780206" stop-color="#F8D45A"/>
<stop offset="0.971703" stop-color="#DBA944"/>
</linearGradient>
<linearGradient id="paint26_linear_3692_2276" x1="28.8542" y1="25.6292" x2="28.8542" y2="35.301" gradientUnits="userSpaceOnUse">
<stop stop-color="#EBCE6E"/>
<stop offset="0.22229" stop-color="#EBCE6E"/>
<stop offset="0.669825" stop-color="#FCF5C9"/>
<stop offset="0.898796" stop-color="#EBCE6E"/>
<stop offset="1" stop-color="#EBCE6E"/>
</linearGradient>
<linearGradient id="paint27_linear_3692_2276" x1="28.9414" y1="27.2898" x2="28.9414" y2="34.9821" gradientUnits="userSpaceOnUse">
<stop stop-color="#42100D"/>
<stop offset="0.479167" stop-color="#B95C1A"/>
<stop offset="1" stop-color="#E7AF3E"/>
</linearGradient>
<linearGradient id="paint28_linear_3692_2276" x1="28.8974" y1="32.9717" x2="28.8974" y2="34.5576" gradientUnits="userSpaceOnUse">
<stop stop-color="#42100D"/>
<stop offset="0.479167" stop-color="#B95C1A"/>
<stop offset="1" stop-color="#E7AF3E"/>
</linearGradient>
<linearGradient id="paint29_linear_3692_2276" x1="28.5711" y1="33.0096" x2="28.5711" y2="34.1921" gradientUnits="userSpaceOnUse">
<stop stop-color="#42100D"/>
<stop offset="0.479167" stop-color="#B95C1A"/>
<stop offset="1" stop-color="#E7AF3E"/>
</linearGradient>
<linearGradient id="paint30_linear_3692_2276" x1="29.2234" y1="33.0096" x2="29.2234" y2="34.1921" gradientUnits="userSpaceOnUse">
<stop stop-color="#42100D"/>
<stop offset="0.479167" stop-color="#B95C1A"/>
<stop offset="1" stop-color="#E7AF3E"/>
</linearGradient>
<linearGradient id="paint31_linear_3692_2276" x1="28.8861" y1="34.1079" x2="28.8861" y2="34.5955" gradientUnits="userSpaceOnUse">
<stop stop-color="#42100D"/>
<stop offset="0.479167" stop-color="#B95C1A"/>
<stop offset="1" stop-color="#E7AF3E"/>
</linearGradient>
<linearGradient id="paint32_linear_3692_2276" x1="24.3374" y1="7.88464" x2="34.1713" y2="27.4213" gradientUnits="userSpaceOnUse">
<stop stop-color="#FBEFBA"/>
<stop offset="1" stop-color="#E4B748"/>
</linearGradient>
<linearGradient id="paint33_linear_3692_2276" x1="24.2498" y1="9.50154" x2="32.7288" y2="25.1484" gradientUnits="userSpaceOnUse">
<stop stop-color="#CCA053"/>
<stop offset="1" stop-color="#FCEFA7"/>
</linearGradient>
<linearGradient id="paint34_linear_3692_2276" x1="25.1676" y1="8.93336" x2="34.3023" y2="25.3669" gradientUnits="userSpaceOnUse">
<stop stop-color="#646464"/>
<stop offset="1" stop-color="#DCDCDC"/>
</linearGradient>
<radialGradient id="paint35_radial_3692_2276" cx="0" cy="0" r="1" gradientUnits="userSpaceOnUse" gradientTransform="translate(28.9705 17.5171) rotate(90) scale(9.89468 8.52273)">
<stop stop-color="#FBEFBB"/>
<stop offset="1" stop-color="#F8D96C"/>
</radialGradient>
<linearGradient id="paint36_linear_3692_2276" x1="36.5038" y1="8.06813" x2="29.567" y2="24.4483" gradientUnits="userSpaceOnUse">
<stop stop-color="#BB7519"/>
<stop offset="1" stop-color="#F2EDED" stop-opacity="0"/>
</linearGradient>
<linearGradient id="paint37_linear_3692_2276" x1="21.1229" y1="7.54357" x2="28.0871" y2="23.9121" gradientUnits="userSpaceOnUse">
<stop stop-color="#BB7519"/>
<stop offset="1" stop-color="#F2EDED" stop-opacity="0"/>
</linearGradient>
<linearGradient id="paint38_linear_3692_2276" x1="28.9413" y1="7.1853" x2="28.9265" y2="24.9738" gradientUnits="userSpaceOnUse">
<stop stop-color="#BB7519"/>
<stop offset="1" stop-color="#F2EDED" stop-opacity="0"/>
</linearGradient>
<linearGradient id="paint39_linear_3692_2276" x1="15.5391" y1="13.4657" x2="28.1069" y2="26.0545" gradientUnits="userSpaceOnUse">
<stop stop-color="#BB7519"/>
<stop offset="1" stop-color="#F2EDED" stop-opacity="0"/>
</linearGradient>
<linearGradient id="paint40_linear_3692_2276" x1="43.0229" y1="12.5916" x2="30.4551" y2="25.1805" gradientUnits="userSpaceOnUse">
<stop stop-color="#BB7519"/>
<stop offset="1" stop-color="#F2EDED" stop-opacity="0"/>
</linearGradient>
<linearGradient id="paint41_linear_3692_2276" x1="28.9263" y1="18.8986" x2="28.9138" y2="26.8523" gradientUnits="userSpaceOnUse">
<stop stop-color="#FCFBE5" stop-opacity="0"/>
<stop offset="1" stop-color="#D4A042"/>
</linearGradient>
</defs>
</svg>
