<svg width="26" height="26" viewBox="0 0 26 26" fill="none" xmlns="http://www.w3.org/2000/svg">
<g clip-path="url(#clip0_2957_1325)">
<path d="M19 13.998H7C6.73478 13.998 6.48043 13.8927 6.29289 13.7052C6.10536 13.5176 6 13.2633 6 12.998C6 12.7328 6.10536 12.4785 6.29289 12.2909C6.48043 12.1034 6.73478 11.998 7 11.998H19C19.2652 11.998 19.5196 12.1034 19.7071 12.2909C19.8946 12.4785 20 12.7328 20 12.998C20 13.2633 19.8946 13.5176 19.7071 13.7052C19.5196 13.8927 19.2652 13.998 19 13.998Z" fill="black"/>
</g>
<rect x="0.5" y="0.5" width="25" height="25" rx="4.5" stroke="black"/>
<defs>
<clipPath id="clip0_2957_1325">
<rect x="1" y="1" width="24" height="24" rx="4" fill="white"/>
</clipPath>
</defs>
</svg>
