<svg width="30" height="30" viewBox="0 0 30 30" fill="none" xmlns="http://www.w3.org/2000/svg">
<g clip-path="url(#clip0_2957_712)">
<mask id="mask0_2957_712" style="mask-type:luminance" maskUnits="userSpaceOnUse" x="4" y="5" width="22" height="21">
<path d="M5 12.0712C5 11.0487 5 10.5387 5.19 10.0787C5.38 9.62 5.7425 9.2575 6.465 8.535L7.285 7.715C8.0075 6.9925 8.37 6.63 8.82875 6.44C9.2875 6.25 9.8 6.25 10.8212 6.25H19.1788C20.2013 6.25 20.7113 6.25 21.1713 6.44C21.63 6.63 21.9913 6.9925 22.715 7.715L23.535 8.535C24.2587 9.2575 24.6187 9.62 24.81 10.0787C25 10.5387 25 11.0487 25 12.0712V20C25 22.3575 25 23.535 24.2675 24.2675C23.535 25 22.3575 25 20 25H10C7.6425 25 6.465 25 5.7325 24.2675C5 23.535 5 22.3575 5 20V12.0712Z" stroke="white" stroke-width="1.5"/>
<path d="M18.5408 12.5H11.457C11.1633 12.5 11.0158 12.5 10.9245 12.5912C10.8333 12.6825 10.832 12.83 10.832 13.125V17.0837C10.832 18.04 10.832 18.5175 10.957 18.7738C11.0904 19.0505 11.3209 19.2685 11.6048 19.3861C11.8886 19.5037 12.2058 19.5127 12.4958 19.4113C12.7645 19.3175 13.1033 18.98 13.7795 18.3037C14.092 17.9912 14.2483 17.8337 14.4145 17.7462C14.5946 17.651 14.7952 17.6012 14.9989 17.6012C15.2026 17.6012 15.4032 17.651 15.5833 17.7462C15.7495 17.8337 15.907 17.9912 16.2208 18.3037C16.8958 18.9787 17.2333 19.3175 17.5033 19.4125C17.7933 19.5139 18.1105 19.505 18.3943 19.3874C18.6781 19.2698 18.9087 19.0518 19.042 18.775C19.167 18.5175 19.167 18.04 19.167 17.0837V13.125C19.167 12.83 19.167 12.6825 19.0745 12.5912C18.9833 12.5 18.8358 12.5 18.5408 12.5Z" stroke="#C0C0C0" stroke-opacity="0.25" stroke-width="1.25" stroke-linecap="round"/>
<path d="M5 12.5H25V20C25 22.3575 25 23.535 24.2675 24.2675C23.535 25 22.3575 25 20 25H10C7.6425 25 6.465 25 5.7325 24.2675C5 23.535 5 22.3575 5 20V12.5Z" stroke="white" stroke-width="1.5"/>
</mask>
<g mask="url(#mask0_2957_712)">
<path d="M0 0H30V30H0V0Z" fill="#FF603B"/>
</g>
</g>
<defs>
<clipPath id="clip0_2957_712">
<rect width="30" height="30" fill="white"/>
</clipPath>
</defs>
</svg>
