<svg width="294" height="294" viewBox="0 0 294 294" fill="none" xmlns="http://www.w3.org/2000/svg">
<path d="M86.7799 40.6077L86.7799 36.6556C86.7799 35.4012 85.763 34.3843 84.5087 34.3843L26.9571 34.3843C25.7027 34.3843 24.6859 35.4012 24.6859 36.6556L24.6859 40.6077C24.6859 41.862 23.669 42.8789 22.4146 42.8789L16.6081 42.8789C15.3537 42.8789 14.3368 41.862 14.3368 40.6077L14.3368 28.2958C14.3368 27.0415 15.3537 26.0246 16.6081 26.0246L22.4146 26.0246C23.669 26.0246 24.6859 25.0078 24.6859 23.7534L24.6859 19.8013C24.6859 18.5469 25.7027 17.5301 26.9571 17.5301L32.2708 17.5301C33.5252 17.5301 34.542 16.5132 34.542 15.2589L34.542 10.7674C34.542 9.51303 35.5589 8.49617 36.8133 8.49617L84.5087 8.49618C85.763 8.49618 86.7799 7.47933 86.7799 6.22497L86.7799 2.27283C86.7799 1.01848 87.7967 0.00162235 89.0511 0.00162246L95.1862 0.001623C96.4406 0.00162311 97.4574 1.01848 97.4574 2.27283L97.4574 6.22497C97.4574 7.47932 98.4743 8.49618 99.7286 8.49618L105.207 8.49618C106.461 8.49618 107.478 9.51303 107.478 10.7674L107.478 15.2589C107.478 16.5132 108.495 17.5301 109.749 17.5301L116.541 17.5301C117.796 17.5301 118.813 18.5469 118.813 19.8013L118.813 23.7534C118.813 25.0078 117.796 26.0246 116.541 26.0246L109.749 26.0246C108.495 26.0246 107.478 27.0415 107.478 28.2958L107.478 32.1131C107.478 33.3675 106.461 34.3843 105.207 34.3843L99.7286 34.3843C98.4743 34.3843 97.4574 35.4012 97.4574 36.6556L97.4574 40.6077C97.4574 41.862 96.4406 42.8789 95.1862 42.8789L89.0511 42.8789C87.7967 42.8789 86.7799 41.862 86.7799 40.6077Z" fill="#FF603B"/>
<path d="M46.3686 63.8708L46.3686 67.823C46.3686 69.0773 47.3854 70.0942 48.6398 70.0942L106.191 70.0942C107.446 70.0942 108.463 69.0773 108.463 67.823L108.463 63.8708C108.463 62.6165 109.479 61.5996 110.734 61.5996L116.54 61.5996C117.795 61.5996 118.812 62.6165 118.812 63.8708L118.812 76.1827C118.812 77.437 117.795 78.4539 116.54 78.4539L110.734 78.4539C109.479 78.4539 108.463 79.4707 108.463 80.7251L108.463 84.6772C108.463 85.9316 107.446 86.9485 106.191 86.9485L100.878 86.9485C99.6232 86.9484 98.6064 87.9653 98.6064 89.2197L98.6064 93.7111C98.6064 94.9655 97.5895 95.9823 96.3352 95.9823L48.6398 95.9823C47.3854 95.9823 46.3686 96.9992 46.3686 98.2535L46.3686 102.206C46.3686 103.46 45.3517 104.477 44.0974 104.477L37.9622 104.477C36.7079 104.477 35.691 103.46 35.691 102.206L35.691 98.2535C35.691 96.9992 34.6742 95.9823 33.4198 95.9823L27.9418 95.9823C26.6874 95.9823 25.6706 94.9655 25.6706 93.7111L25.6706 89.2197C25.6706 87.9653 24.6537 86.9484 23.3993 86.9484L16.6071 86.9484C15.3528 86.9484 14.3359 85.9316 14.3359 84.6772L14.3359 80.7251C14.3359 79.4707 15.3528 78.4539 16.6071 78.4539L23.3993 78.4539C24.6537 78.4539 25.6706 77.437 25.6706 76.1827L25.6706 72.3654C25.6706 71.111 26.6874 70.0942 27.9418 70.0942L33.4198 70.0942C34.6742 70.0942 35.691 69.0773 35.691 67.823L35.691 63.8708C35.691 62.6165 36.7079 61.5996 37.9622 61.5996L44.0974 61.5996C45.3517 61.5996 46.3686 62.6165 46.3686 63.8708Z" fill="#FF603B"/>
<path d="M175.011 291.691C175.011 292.904 174.028 293.887 172.815 293.887H150.626C149.479 293.887 148.525 293.004 148.436 291.861L145.45 253.496C145.361 252.352 144.407 251.47 143.26 251.47H137.582C136.369 251.47 135.386 250.487 135.386 249.274V241.547C135.386 240.334 134.402 239.351 133.19 239.351H121.071C119.858 239.351 118.875 240.334 118.875 241.547V249.274C118.875 250.487 117.892 251.47 116.679 251.47H104.561C103.348 251.47 102.365 252.453 102.365 253.666V264.423C102.365 265.636 101.382 266.619 100.169 266.619H88.0503C86.8375 266.619 85.8543 267.602 85.8543 268.815V279.572C85.8543 280.784 86.8375 281.768 88.0503 281.768H100.169C101.382 281.768 102.365 282.751 102.365 283.964V291.691C102.365 292.904 101.382 293.887 100.169 293.887H74.8419C73.6291 293.887 72.6459 292.903 72.6459 291.691V241.547C72.6459 240.334 71.6628 239.351 70.45 239.351H58.3315C57.1187 239.351 56.1355 238.368 56.1355 237.155V229.428C56.1355 228.215 55.1523 227.232 53.9395 227.232H45.1231C43.9103 227.232 42.9272 226.249 42.9272 225.036V214.279C42.9272 213.066 41.944 212.083 40.7312 212.083H28.6127C27.3999 212.083 26.4167 211.1 26.4167 209.887V199.13C26.4167 197.918 25.4335 196.934 24.2207 196.934H15.4043C14.1915 196.934 13.2084 195.951 13.2084 194.738V183.982C13.2084 182.769 12.2252 181.786 11.0124 181.786H2.19597C0.983169 181.786 0 180.802 0 179.59V108.238C0 107.025 0.983171 106.042 2.19597 106.042H11.0124C12.2252 106.042 13.2084 107.025 13.2084 108.238V128.084C13.2084 129.296 14.1915 130.28 15.4043 130.28H24.2207C25.4335 130.28 26.4167 131.263 26.4167 132.476V143.232C26.4167 144.445 27.3999 145.428 28.6127 145.428H40.7312C41.944 145.428 42.9272 146.412 42.9272 147.624V155.352C42.9272 156.564 43.9103 157.547 45.1231 157.547H70.45C71.6628 157.547 72.6459 156.564 72.6459 155.352V147.624C72.6459 146.412 73.6291 145.428 74.8419 145.428H86.9604C88.1732 145.428 89.1564 144.445 89.1564 143.232V132.476C89.1564 131.263 90.1396 130.28 91.3524 130.28H106.773C107.986 130.28 108.969 129.296 108.969 128.084V120.357C108.969 119.144 109.952 118.161 111.165 118.161H129.888C131.1 118.161 132.084 117.177 132.084 115.965V105.208C132.084 103.995 133.067 103.012 134.28 103.012H144.334C145.547 103.012 146.53 102.029 146.53 100.816V17.3448C146.53 16.132 147.513 15.1488 148.726 15.1488H159.606C160.819 15.1488 161.802 14.1656 161.802 12.9528V2.19597C161.802 0.983169 162.786 0 163.998 0H278.482C279.694 0 280.678 0.983169 280.678 2.19597V12.9528C280.678 14.1656 281.661 15.1488 282.874 15.1488H291.69C292.903 15.1488 293.886 16.132 293.886 17.3448V81.5011C293.886 82.7139 292.903 83.6971 291.69 83.6971H206.925C205.713 83.6971 204.729 84.6803 204.729 85.8931V91.7266C204.729 92.9394 205.713 93.9225 206.925 93.9225H242.159C243.371 93.9225 244.355 94.9057 244.355 96.1185V100.816C244.355 102.029 243.371 103.012 242.159 103.012H206.925C205.713 103.012 204.729 103.995 204.729 105.208V128.084C204.729 129.296 205.713 130.28 206.925 130.28H232.252C233.465 130.28 234.448 131.263 234.448 132.476V155.352C234.448 156.564 233.465 157.547 232.252 157.547H223.436C222.223 157.547 221.24 156.564 221.24 155.352V147.624C221.24 146.412 220.257 145.428 219.044 145.428H206.925C205.713 145.428 204.729 146.412 204.729 147.624V188.679C204.729 189.892 203.746 190.875 202.534 190.875H193.717C192.504 190.875 191.521 191.858 191.521 193.071V209.887C191.521 211.1 190.538 212.083 189.325 212.083H177.207C175.994 212.083 175.011 213.066 175.011 214.279V225.036C175.011 226.249 174.028 227.232 172.815 227.232H163.998C162.786 227.232 161.802 228.215 161.802 229.428V279.572C161.802 280.784 162.786 281.768 163.998 281.768H172.815C174.028 281.768 175.011 282.751 175.011 283.964V291.691Z" fill="#FF603B"/>
</svg>
