<svg width="294" height="308" viewBox="0 0 294 308" fill="none" xmlns="http://www.w3.org/2000/svg">
<path d="M86.7789 40.6062L86.7789 36.6541C86.7789 35.3997 85.762 34.3829 84.5077 34.3829L26.9561 34.3829C25.7017 34.3829 24.6849 35.3997 24.6849 36.6541L24.6849 40.6062C24.6849 41.8606 23.668 42.8774 22.4137 42.8774L16.6071 42.8774C15.3527 42.8774 14.3359 41.8606 14.3359 40.6062L14.3359 28.2944C14.3359 27.04 15.3527 26.0232 16.6071 26.0232L22.4137 26.0232C23.668 26.0232 24.6849 25.0063 24.6849 23.7519L24.6849 19.7998C24.6849 18.5455 25.7017 17.5286 26.9561 17.5286L32.2699 17.5286C33.5242 17.5286 34.5411 16.5117 34.5411 15.2574L34.5411 10.7659C34.5411 9.51156 35.5579 8.49471 36.8123 8.49471L84.5077 8.49471C85.762 8.49471 86.7789 7.47786 86.7789 6.2235L86.7789 2.27137C86.7789 1.01701 87.7958 0.000157506 89.0501 0.000157615L95.1852 0.000158152C96.4396 0.000158261 97.4564 1.01702 97.4564 2.27137L97.4564 6.22351C97.4564 7.47786 98.4733 8.49471 99.7276 8.49471L105.206 8.49472C106.46 8.49472 107.477 9.51157 107.477 10.7659L107.477 15.2574C107.477 16.5118 108.494 17.5286 109.748 17.5286L116.54 17.5286C117.795 17.5286 118.812 18.5455 118.812 19.7998L118.812 23.752C118.812 25.0063 117.795 26.0232 116.54 26.0232L109.748 26.0232C108.494 26.0232 107.477 27.04 107.477 28.2944L107.477 32.1117C107.477 33.366 106.46 34.3829 105.206 34.3829L99.7276 34.3829C98.4733 34.3829 97.4564 35.3997 97.4564 36.6541L97.4564 40.6062C97.4564 41.8606 96.4396 42.8774 95.1852 42.8774L89.0501 42.8774C87.7957 42.8774 86.7789 41.8606 86.7789 40.6062Z" fill="#FF603B"/>
<path d="M46.3686 63.8694L46.3686 67.8215C46.3686 69.0758 47.3854 70.0927 48.6398 70.0927L106.191 70.0927C107.446 70.0927 108.463 69.0759 108.463 67.8215L108.463 63.8694C108.463 62.615 109.479 61.5982 110.734 61.5982L116.54 61.5982C117.795 61.5982 118.812 62.615 118.812 63.8694L118.812 76.1812C118.812 77.4356 117.795 78.4524 116.54 78.4524L110.734 78.4524C109.479 78.4524 108.463 79.4693 108.463 80.7236L108.463 84.6758C108.463 85.9301 107.446 86.947 106.191 86.947L100.878 86.947C99.6232 86.947 98.6064 87.9638 98.6064 89.2182L98.6064 93.7097C98.6064 94.964 97.5895 95.9809 96.3352 95.9809L48.6398 95.9809C47.3854 95.9809 46.3686 96.9977 46.3686 98.2521L46.3686 102.204C46.3686 103.459 45.3517 104.475 44.0974 104.475L37.9622 104.475C36.7079 104.475 35.691 103.459 35.691 102.204L35.691 98.2521C35.691 96.9977 34.6742 95.9809 33.4198 95.9809L27.9418 95.9809C26.6874 95.9809 25.6706 94.964 25.6706 93.7097L25.6706 89.2182C25.6706 87.9638 24.6537 86.947 23.3993 86.947L16.6071 86.947C15.3528 86.947 14.3359 85.9301 14.3359 84.6758L14.3359 80.7236C14.3359 79.4693 15.3528 78.4524 16.6071 78.4524L23.3993 78.4524C24.6537 78.4524 25.6706 77.4356 25.6706 76.1812L25.6706 72.3639C25.6706 71.1096 26.6874 70.0927 27.9418 70.0927L33.4198 70.0927C34.6742 70.0927 35.691 69.0758 35.691 67.8215L35.691 63.8694C35.691 62.615 36.7079 61.5981 37.9622 61.5981L44.0974 61.5981C45.3517 61.5981 46.3686 62.615 46.3686 63.8694Z" fill="#FF603B"/>
<path d="M175.011 276.542C175.011 277.755 174.028 278.738 172.815 278.738H150.54C149.429 278.738 148.494 277.909 148.36 276.806L145.526 253.402C145.392 252.299 144.456 251.47 143.346 251.47H137.582C136.369 251.47 135.386 250.487 135.386 249.274V241.547C135.386 240.334 134.402 239.351 133.19 239.351H121.071C119.858 239.351 118.875 240.334 118.875 241.547V249.274C118.875 250.487 117.892 251.47 116.679 251.47H104.561C103.348 251.47 102.365 252.453 102.365 253.666V264.423C102.365 265.636 101.382 266.619 100.169 266.619H88.0503C86.8375 266.619 85.8543 267.602 85.8543 268.815V293.304C85.8543 294.517 86.8375 295.5 88.0503 295.5H100.169C101.382 295.5 102.365 296.483 102.365 297.696V305.423C102.365 306.636 101.382 307.619 100.169 307.619H74.8419C73.6291 307.619 72.6459 306.636 72.6459 305.423V241.547C72.6459 240.334 71.6628 239.351 70.45 239.351H58.3315C57.1187 239.351 56.1355 238.368 56.1355 237.155V229.428C56.1355 228.215 55.1523 227.232 53.9395 227.232H45.1231C43.9103 227.232 42.9272 226.249 42.9272 225.036V214.279C42.9272 213.066 41.944 212.083 40.7312 212.083H28.6127C27.3999 212.083 26.4167 211.1 26.4167 209.887V199.13C26.4167 197.918 25.4335 196.934 24.2207 196.934H15.4043C14.1915 196.934 13.2084 195.951 13.2084 194.738V183.982C13.2084 182.769 12.2252 181.786 11.0124 181.786H2.19597C0.983169 181.786 0 180.802 0 179.59V108.238C0 107.025 0.983171 106.042 2.19597 106.042H11.0124C12.2252 106.042 13.2084 107.025 13.2084 108.238V128.084C13.2084 129.296 14.1915 130.28 15.4043 130.28H24.2207C25.4335 130.28 26.4167 131.263 26.4167 132.476V143.232C26.4167 144.445 27.3999 145.428 28.6127 145.428H40.7312C41.944 145.428 42.9272 146.412 42.9272 147.624V155.352C42.9272 156.564 43.9103 157.547 45.1231 157.547H70.45C71.6628 157.547 72.6459 156.564 72.6459 155.352V147.624C72.6459 146.412 73.6291 145.428 74.8419 145.428H86.9604C88.1732 145.428 89.1564 144.445 89.1564 143.232V132.476C89.1564 131.263 90.1396 130.28 91.3524 130.28H106.773C107.986 130.28 108.969 129.296 108.969 128.084V120.357C108.969 119.144 109.952 118.161 111.165 118.161H129.888C131.1 118.161 132.084 117.177 132.084 115.965V105.208C132.084 103.995 133.067 103.012 134.28 103.012H144.334C145.547 103.012 146.53 102.029 146.53 100.816V17.3448C146.53 16.132 147.513 15.1488 148.726 15.1488H159.606C160.819 15.1488 161.802 14.1656 161.802 12.9528V2.19597C161.802 0.983169 162.786 0 163.998 0H278.482C279.694 0 280.678 0.983169 280.678 2.19597V12.9528C280.678 14.1656 281.661 15.1488 282.874 15.1488H291.69C292.903 15.1488 293.886 16.132 293.886 17.3448V81.5011C293.886 82.7139 292.903 83.6971 291.69 83.6971H206.925C205.713 83.6971 204.729 84.6803 204.729 85.8931V91.7266C204.729 92.9394 205.713 93.9225 206.925 93.9225H242.159C243.371 93.9225 244.355 94.9057 244.355 96.1185V100.816C244.355 102.029 243.371 103.012 242.159 103.012H206.925C205.713 103.012 204.729 103.995 204.729 105.208V128.084C204.729 129.296 205.713 130.28 206.925 130.28H232.252C233.465 130.28 234.448 131.263 234.448 132.476V155.352C234.448 156.564 233.465 157.547 232.252 157.547H223.436C222.223 157.547 221.24 156.564 221.24 155.352V147.624C221.24 146.412 220.257 145.428 219.044 145.428H206.925C205.713 145.428 204.729 146.412 204.729 147.624V188.679C204.729 189.892 203.746 190.875 202.534 190.875H193.717C192.504 190.875 191.521 191.858 191.521 193.071V209.887C191.521 211.1 190.538 212.083 189.325 212.083H177.207C175.994 212.083 175.011 213.066 175.011 214.279V225.036C175.011 226.249 174.028 227.232 172.815 227.232H163.998C162.786 227.232 161.802 228.215 161.802 229.428V264.423C161.802 265.636 162.786 266.619 163.998 266.619H172.815C174.028 266.619 175.011 267.602 175.011 268.815V276.542Z" fill="#FF603B"/>
</svg>
